<svg xmlns="http://www.w3.org/2000/svg" xmlns:xlink="http://www.w3.org/1999/xlink" width="500" zoomAndPan="magnify" viewBox="0 0 375 374.999991" height="500" preserveAspectRatio="xMidYMid meet" version="1.0"><defs><clipPath id="113765c461"><path d="M 39.023438 50.714844 L 274 50.714844 L 274 251 L 39.023438 251 Z M 39.023438 50.714844 " clip-rule="nonzero"/></clipPath><clipPath id="0e365be531"><path d="M 106 117 L 280.523438 117 L 280.523438 292 L 106 292 Z M 106 117 " clip-rule="nonzero"/></clipPath><clipPath id="63cc857f2a"><path d="M 6.09375 67.03125 L 90.09375 67.03125 L 90.09375 153.28125 L 6.09375 153.28125 Z M 6.09375 67.03125 " clip-rule="nonzero"/></clipPath><clipPath id="c7c4541e2e"><path d="M 148.316406 162.570312 L 262.316406 162.570312 L 262.316406 257.820312 L 148.316406 257.820312 Z M 148.316406 162.570312 " clip-rule="nonzero"/></clipPath><clipPath id="3720894288"><path d="M 149 163 L 248 163 L 248 256 L 149 256 Z M 149 163 " clip-rule="nonzero"/></clipPath><clipPath id="8bc4d9494e"><path d="M 148.320312 163.800781 L 242.21875 153.179688 L 252.839844 247.082031 L 158.941406 257.703125 Z M 148.320312 163.800781 " clip-rule="nonzero"/></clipPath><clipPath id="ce45665e89"><path d="M 148.320312 163.800781 L 242.21875 153.179688 L 252.839844 247.082031 L 158.941406 257.703125 Z M 148.320312 163.800781 " clip-rule="nonzero"/></clipPath><clipPath id="8d99baf50e"><path d="M 240 205.46875 L 368.992188 205.46875 L 368.992188 323.96875 L 240 323.96875 Z M 240 205.46875 " clip-rule="nonzero"/></clipPath><clipPath id="de541ac15a"><path d="M 231.742188 261 L 243 261 L 243 313 L 231.742188 313 Z M 231.742188 261 " clip-rule="nonzero"/></clipPath></defs><rect x="-37.5" width="450" fill="#ffffff" y="-37.499999" height="449.999989" fill-opacity="1"/><rect x="-37.5" width="450" fill="#f6f5f4" y="-37.499999" height="449.999989" fill-opacity="1"/><g clip-path="url(#113765c461)"><path fill="#b2a6d9" d="M 248.234375 105.8125 L 271.726562 105.8125 L 273.253906 100.160156 L 88.46875 50.664062 L 38.976562 235.425781 L 94.121094 250.214844 L 94.121094 237.882812 L 53.574219 227.007812 L 96.914062 65.261719 Z M 248.234375 105.8125 " fill-opacity="1" fill-rule="nonzero"/></g><g clip-path="url(#0e365be531)"><path fill="#b2a6d9" d="M 256.320312 117.738281 L 106.046875 117.738281 L 106.046875 291.863281 L 280.171875 291.863281 L 280.171875 117.738281 Z M 268.246094 279.933594 L 117.972656 279.933594 L 117.972656 129.664062 L 268.246094 129.664062 Z M 268.246094 279.933594 " fill-opacity="1" fill-rule="nonzero"/></g><g clip-path="url(#63cc857f2a)"><path fill="#2d2c38" d="M 78.132812 116.765625 C 78.132812 116.765625 76.277344 123.046875 74.246094 125.082031 C 72.210938 127.117188 65.925781 128.972656 65.925781 128.972656 C 65.925781 128.972656 72.210938 130.828125 74.246094 132.863281 C 76.277344 134.898438 78.132812 141.179688 78.132812 141.179688 C 78.132812 141.179688 79.992188 134.898438 82.023438 132.863281 C 84.058594 130.828125 90.34375 128.972656 90.34375 128.972656 C 90.34375 128.972656 84.058594 127.117188 82.023438 125.082031 C 79.992188 123.046875 78.132812 116.765625 78.132812 116.765625 Z M 24.609375 116.085938 C 24.609375 116.085938 21.792969 125.613281 18.707031 128.699219 C 15.621094 131.785156 6.09375 134.601562 6.09375 134.601562 C 6.09375 134.601562 15.621094 137.414062 18.707031 140.5 C 21.792969 143.585938 24.609375 153.117188 24.609375 153.117188 C 24.609375 153.117188 27.421875 143.585938 30.507812 140.5 C 33.59375 137.414062 43.125 134.601562 43.125 134.601562 C 43.125 134.601562 33.59375 131.785156 30.507812 128.699219 C 27.421875 125.613281 24.609375 116.085938 24.609375 116.085938 Z M 53.007812 67.082031 C 53.007812 67.082031 48.691406 81.699219 43.957031 86.433594 C 39.222656 91.167969 24.609375 95.484375 24.609375 95.484375 C 24.609375 95.484375 39.222656 99.800781 43.957031 104.535156 C 48.691406 109.269531 53.007812 123.882812 53.007812 123.882812 C 53.007812 123.882812 57.328125 109.269531 62.058594 104.535156 C 66.792969 99.800781 81.410156 95.484375 81.410156 95.484375 C 81.410156 95.484375 66.792969 91.167969 62.058594 86.433594 C 57.328125 81.699219 53.007812 67.082031 53.007812 67.082031 " fill-opacity="1" fill-rule="evenodd"/></g><g clip-path="url(#c7c4541e2e)"><path fill="#ede8f5" d="M 260.339844 257.757812 L 150.105469 257.757812 C 149.121094 257.757812 148.320312 256.957031 148.320312 255.96875 C 148.320312 254.980469 149.121094 254.179688 150.105469 254.179688 L 260.339844 254.179688 C 261.324219 254.179688 262.125 254.980469 262.125 255.96875 C 262.125 256.957031 261.324219 257.757812 260.339844 257.757812 Z M 262.125 210.125 C 262.125 209.136719 261.324219 208.335938 260.339844 208.335938 L 150.105469 208.335938 C 149.121094 208.335938 148.320312 209.136719 148.320312 210.125 C 148.320312 211.113281 149.121094 211.914062 150.105469 211.914062 L 260.339844 211.914062 C 261.324219 211.914062 262.125 211.113281 262.125 210.125 Z M 262.125 164.355469 C 262.125 163.371094 261.324219 162.570312 260.339844 162.570312 L 150.105469 162.570312 C 149.121094 162.570312 148.320312 163.371094 148.320312 164.355469 C 148.320312 165.34375 149.121094 166.144531 150.105469 166.144531 L 260.339844 166.144531 C 261.324219 166.144531 262.125 165.34375 262.125 164.355469 Z M 262.125 164.355469 " fill-opacity="1" fill-rule="nonzero"/></g><g clip-path="url(#3720894288)"><g clip-path="url(#8bc4d9494e)"><g clip-path="url(#ce45665e89)"><path fill="#2d2c38" d="M 157.535156 245.265625 C 157.992188 249.328125 160.511719 252.867188 164.203125 254.628906 C 167.894531 256.386719 172.230469 256.121094 175.675781 253.921875 C 178.011719 252.425781 228.695312 220.078125 242.199219 211.457031 C 246.003906 209.03125 248.101562 204.636719 247.59375 200.148438 C 247.085938 195.65625 244.0625 191.839844 239.808594 190.328125 C 219.511719 183.078125 183.957031 170.394531 165.480469 163.792969 C 161.632812 162.421875 157.34375 163.128906 154.140625 165.664062 C 150.9375 168.207031 149.269531 172.222656 149.730469 176.28125 C 151.261719 189.804688 153.742188 211.738281 155.746094 229.460938 C 155.992188 231.628906 157.945312 233.183594 160.113281 232.941406 C 162.28125 232.695312 163.835938 230.742188 163.589844 228.574219 C 161.585938 210.851562 159.105469 188.917969 157.574219 175.394531 C 157.421875 174.039062 157.976562 172.703125 159.046875 171.855469 C 160.113281 171.011719 161.546875 170.773438 162.824219 171.234375 C 181.308594 177.832031 216.863281 190.515625 237.148438 197.757812 C 238.570312 198.265625 239.578125 199.539062 239.746094 201.035156 C 239.914062 202.527344 239.21875 203.996094 237.945312 204.808594 C 224.449219 213.417969 173.769531 245.773438 171.425781 247.265625 C 170.28125 248 168.832031 248.085938 167.601562 247.503906 C 166.371094 246.914062 165.53125 245.734375 165.378906 244.378906 C 165.132812 242.21875 163.179688 240.65625 161.011719 240.898438 C 158.84375 241.144531 157.289062 243.105469 157.535156 245.265625 " fill-opacity="1" fill-rule="evenodd"/></g></g></g><g clip-path="url(#8d99baf50e)"><path fill="#2d2c38" d="M 358.5625 216.390625 C 351.867188 209.351562 342.957031 205.46875 333.476562 205.46875 C 324.015625 205.46875 315.105469 209.351562 308.410156 216.390625 L 304.890625 220.136719 L 301.347656 216.390625 C 294.699219 209.375 285.789062 205.488281 276.28125 205.46875 C 266.800781 205.488281 257.890625 209.375 251.242188 216.390625 C 240.433594 227.746094 238.011719 245.042969 244.566406 259.027344 C 245.117188 258.476562 245.757812 258.042969 246.488281 257.722656 L 246.511719 257.699219 L 246.738281 257.609375 L 246.921875 257.496094 L 246.96875 257.496094 C 247.515625 257.242188 248.042969 256.992188 248.542969 256.742188 C 258.917969 251.484375 261.523438 243.28125 263.464844 237.226562 C 264.972656 232.496094 267.027344 226.03125 274.042969 226.03125 C 278.269531 226.03125 282.085938 227.652344 284.804688 230.578125 C 288.714844 234.714844 290.3125 241.613281 289.148438 249.429688 C 288.757812 252.078125 288.074219 254.683594 287.183594 257.105469 L 287.363281 257.105469 C 289.148438 257.105469 290.976562 257.335938 292.804688 257.792969 C 302.652344 260.375 309.460938 269.308594 309.460938 279.5 L 309.460938 295.035156 C 309.460938 302.53125 305.851562 309.363281 299.953125 313.476562 C 299.316406 313.910156 298.628906 314.320312 297.945312 314.6875 C 297.234375 315.097656 296.527344 315.441406 295.773438 315.738281 L 303.222656 323.574219 C 303.65625 324.03125 304.273438 324.285156 304.890625 324.285156 C 305.507812 324.285156 306.125 324.03125 306.535156 323.574219 L 358.5625 268.828125 C 361.875 265.332031 364.4375 261.242188 366.195312 256.808594 C 367.933594 252.355469 368.867188 247.554688 368.867188 242.597656 C 368.84375 232.703125 365.191406 223.402344 358.5625 216.390625 Z M 358.5625 216.390625 " fill-opacity="1" fill-rule="nonzero"/></g><path fill="#2d2c38" d="M 297.671875 309.476562 C 297.96875 309.25 298.265625 309.019531 298.539062 308.792969 C 298.835938 308.539062 299.109375 308.3125 299.382812 308.039062 C 299.933594 307.535156 300.410156 307.007812 300.867188 306.4375 C 301.097656 306.140625 301.324219 305.867188 301.53125 305.570312 C 301.761719 305.273438 301.964844 304.976562 302.148438 304.65625 C 302.332031 304.335938 302.515625 304.015625 302.695312 303.695312 C 303.40625 302.417969 303.953125 301.023438 304.320312 299.558594 C 304.410156 299.261719 304.480469 298.945312 304.523438 298.648438 C 304.59375 298.347656 304.640625 298.050781 304.683594 297.753906 C 304.730469 297.457031 304.777344 297.136719 304.800781 296.839844 C 304.820312 296.613281 304.84375 296.40625 304.84375 296.203125 C 304.867188 295.8125 304.890625 295.425781 304.890625 295.035156 L 304.890625 279.5 C 304.890625 271.363281 299.496094 264.28125 291.730469 262.226562 C 290.242188 261.859375 288.78125 261.675781 287.363281 261.675781 L 279.640625 261.675781 C 282.085938 258.316406 283.890625 253.726562 284.621094 248.765625 C 285.582031 242.324219 284.417969 236.816406 281.445312 233.664062 C 279.597656 231.652344 277.035156 230.601562 274.042969 230.601562 C 270.363281 230.601562 269.199219 234.324219 267.804688 238.621094 C 267.097656 240.816406 266.296875 243.375 265.042969 246.046875 C 264.859375 246.457031 264.652344 246.894531 264.425781 247.304688 C 264.171875 247.808594 263.898438 248.308594 263.625 248.8125 C 263.578125 248.859375 263.53125 248.925781 263.488281 249.019531 C 263.214844 249.476562 262.917969 249.953125 262.597656 250.433594 C 261.546875 251.988281 260.3125 253.542969 258.804688 255.027344 C 258.300781 255.507812 257.773438 256.007812 257.203125 256.488281 C 256.359375 257.199219 255.445312 257.90625 254.460938 258.570312 C 253.480469 259.230469 252.40625 259.894531 251.242188 260.488281 C 251.082031 260.578125 250.921875 260.671875 250.738281 260.761719 C 250.121094 261.082031 249.480469 261.378906 248.816406 261.675781 L 248.613281 261.675781 C 248.613281 261.699219 248.636719 261.722656 248.660156 261.746094 C 248.589844 261.789062 248.5 261.8125 248.359375 261.882812 C 247.675781 262.179688 247.195312 262.796875 247.058594 263.503906 C 247.035156 263.664062 247.011719 263.800781 247.011719 263.960938 L 247.011719 310.574219 C 247.011719 311.832031 248.042969 312.859375 249.296875 312.859375 L 287.363281 312.859375 C 288.78125 312.859375 290.242188 312.675781 291.730469 312.308594 C 291.933594 312.265625 292.140625 312.195312 292.347656 312.128906 C 292.871094 311.992188 293.375 311.808594 293.855469 311.601562 C 294.128906 311.488281 294.402344 311.375 294.675781 311.238281 C 295.40625 310.917969 296.09375 310.527344 296.757812 310.09375 C 297.074219 309.886719 297.371094 309.683594 297.671875 309.476562 Z M 297.671875 309.476562 " fill-opacity="1" fill-rule="nonzero"/><g clip-path="url(#de541ac15a)"><path fill="#2d2c38" d="M 242.441406 266.246094 L 242.441406 263.960938 C 242.441406 263.160156 242.582031 262.40625 242.855469 261.675781 L 234.058594 261.675781 C 232.800781 261.675781 231.773438 262.703125 231.773438 263.960938 L 231.773438 310.574219 C 231.773438 311.832031 232.800781 312.859375 234.058594 312.859375 L 242.855469 312.859375 C 242.582031 312.152344 242.441406 311.375 242.441406 310.574219 Z M 242.441406 266.246094 " fill-opacity="1" fill-rule="nonzero"/></g></svg>