<svg xmlns="http://www.w3.org/2000/svg" xmlns:xlink="http://www.w3.org/1999/xlink" width="500" zoomAndPan="magnify" viewBox="0 0 375 374.999991" height="500" preserveAspectRatio="xMidYMid meet" version="1.0"><defs><g/><clipPath id="0dc2921e47"><path d="M 78.15625 64.640625 L 226 64.640625 L 226 270 L 78.15625 270 Z M 78.15625 64.640625 " clip-rule="nonzero"/></clipPath><clipPath id="791d81dce5"><path d="M 149 105 L 297 105 L 297 310.640625 L 149 310.640625 Z M 149 105 " clip-rule="nonzero"/></clipPath><clipPath id="dae5ec1d43"><path d="M 37.5 40.511719 L 150 40.511719 L 150 72.949219 L 37.5 72.949219 Z M 37.5 40.511719 " clip-rule="nonzero"/></clipPath><clipPath id="e0816d366e"><path d="M 53.71875 40.511719 L 133.78125 40.511719 C 138.082031 40.511719 142.207031 42.222656 145.25 45.261719 C 148.292969 48.304688 150 52.429688 150 56.730469 C 150 61.03125 148.292969 65.15625 145.25 68.199219 C 142.207031 71.238281 138.082031 72.949219 133.78125 72.949219 L 53.71875 72.949219 C 49.417969 72.949219 45.292969 71.238281 42.25 68.199219 C 39.207031 65.15625 37.5 61.03125 37.5 56.730469 C 37.5 52.429688 39.207031 48.304688 42.25 45.261719 C 45.292969 42.222656 49.417969 40.511719 53.71875 40.511719 Z M 53.71875 40.511719 " clip-rule="nonzero"/></clipPath><clipPath id="592197430b"><path d="M 37.519531 40.511719 L 149.980469 40.511719 L 149.980469 72.761719 L 37.519531 72.761719 Z M 37.519531 40.511719 " clip-rule="nonzero"/></clipPath><clipPath id="d5a1f5e7de"><path d="M 53.730469 40.511719 L 133.769531 40.511719 C 138.070312 40.511719 142.191406 42.21875 145.234375 45.261719 C 148.273438 48.300781 149.980469 52.425781 149.980469 56.726562 C 149.980469 61.023438 148.273438 65.148438 145.234375 68.1875 C 142.191406 71.230469 138.070312 72.9375 133.769531 72.9375 L 53.730469 72.9375 C 49.429688 72.9375 45.308594 71.230469 42.265625 68.1875 C 39.226562 65.148438 37.519531 61.023438 37.519531 56.726562 C 37.519531 52.425781 39.226562 48.300781 42.265625 45.261719 C 45.308594 42.21875 49.429688 40.511719 53.730469 40.511719 Z M 53.730469 40.511719 " clip-rule="nonzero"/></clipPath><clipPath id="47fc1c76c5"><path d="M 222.054688 78.484375 L 361.90625 78.484375 L 361.90625 126.671875 L 222.054688 126.671875 Z M 222.054688 78.484375 " clip-rule="nonzero"/></clipPath><clipPath id="70ed0abe99"><path d="M 239.304688 78.484375 L 344.652344 78.484375 C 349.226562 78.484375 353.613281 80.304688 356.847656 83.539062 C 360.082031 86.773438 361.902344 91.160156 361.902344 95.734375 L 361.902344 109.421875 C 361.902344 113.996094 360.082031 118.382812 356.847656 121.621094 C 353.613281 124.855469 349.226562 126.671875 344.652344 126.671875 L 239.304688 126.671875 C 234.730469 126.671875 230.34375 124.855469 227.105469 121.621094 C 223.871094 118.382812 222.054688 113.996094 222.054688 109.421875 L 222.054688 95.734375 C 222.054688 91.160156 223.871094 86.773438 227.105469 83.539062 C 230.34375 80.304688 234.730469 78.484375 239.304688 78.484375 Z M 239.304688 78.484375 " clip-rule="nonzero"/></clipPath><clipPath id="d062d7f954"><path d="M 222.066406 78.484375 L 361.554688 78.484375 L 361.554688 126.484375 L 222.066406 126.484375 Z M 222.066406 78.484375 " clip-rule="nonzero"/></clipPath><clipPath id="c0ef9b9568"><path d="M 239.3125 78.484375 L 344.636719 78.484375 C 349.210938 78.484375 353.597656 80.304688 356.832031 83.535156 C 360.066406 86.769531 361.882812 91.15625 361.882812 95.730469 L 361.882812 109.414062 C 361.882812 113.988281 360.066406 118.375 356.832031 121.609375 C 353.597656 124.84375 349.210938 126.660156 344.636719 126.660156 L 239.3125 126.660156 C 234.738281 126.660156 230.351562 124.84375 227.117188 121.609375 C 223.882812 118.375 222.066406 113.988281 222.066406 109.414062 L 222.066406 95.730469 C 222.066406 91.15625 223.882812 86.769531 227.117188 83.535156 C 230.351562 80.304688 234.738281 78.484375 239.3125 78.484375 Z M 239.3125 78.484375 " clip-rule="nonzero"/></clipPath><clipPath id="be03e6c912"><path d="M 23.917969 248.535156 L 136.429688 248.535156 L 136.429688 280.96875 L 23.917969 280.96875 Z M 23.917969 248.535156 " clip-rule="nonzero"/></clipPath><clipPath id="53ba0015a4"><path d="M 40.132812 248.535156 L 120.199219 248.535156 C 124.5 248.535156 128.625 250.242188 131.667969 253.285156 C 134.707031 256.324219 136.417969 260.453125 136.417969 264.753906 C 136.417969 269.054688 134.707031 273.179688 131.667969 276.21875 C 128.625 279.261719 124.5 280.96875 120.199219 280.96875 L 40.132812 280.96875 C 35.832031 280.96875 31.707031 279.261719 28.667969 276.21875 C 25.625 273.179688 23.917969 269.054688 23.917969 264.753906 C 23.917969 260.453125 25.625 256.324219 28.667969 253.285156 C 31.707031 250.242188 35.832031 248.535156 40.132812 248.535156 Z M 40.132812 248.535156 " clip-rule="nonzero"/></clipPath><clipPath id="a2bd0ef221"><path d="M 23.933594 248.535156 L 136.398438 248.535156 L 136.398438 280.785156 L 23.933594 280.785156 Z M 23.933594 248.535156 " clip-rule="nonzero"/></clipPath><clipPath id="72fd3d520e"><path d="M 40.148438 248.535156 L 120.183594 248.535156 C 124.484375 248.535156 128.609375 250.242188 131.648438 253.28125 C 134.691406 256.324219 136.398438 260.449219 136.398438 264.746094 C 136.398438 269.046875 134.691406 273.171875 131.648438 276.210938 C 128.609375 279.253906 124.484375 280.960938 120.183594 280.960938 L 40.148438 280.960938 C 35.847656 280.960938 31.722656 279.253906 28.683594 276.210938 C 25.644531 273.171875 23.933594 269.046875 23.933594 264.746094 C 23.933594 260.449219 25.644531 256.324219 28.683594 253.28125 C 31.722656 250.242188 35.847656 248.535156 40.148438 248.535156 Z M 40.148438 248.535156 " clip-rule="nonzero"/></clipPath><clipPath id="930df5f869"><path d="M 225 302.445312 L 337.511719 302.445312 L 337.511719 334.882812 L 225 334.882812 Z M 225 302.445312 " clip-rule="nonzero"/></clipPath><clipPath id="494bffa6ec"><path d="M 241.21875 302.445312 L 321.28125 302.445312 C 325.582031 302.445312 329.707031 304.152344 332.75 307.195312 C 335.792969 310.238281 337.5 314.363281 337.5 318.664062 C 337.5 322.964844 335.792969 327.089844 332.75 330.132812 C 329.707031 333.171875 325.582031 334.882812 321.28125 334.882812 L 241.21875 334.882812 C 236.917969 334.882812 232.792969 333.171875 229.75 330.132812 C 226.707031 327.089844 225 322.964844 225 318.664062 C 225 314.363281 226.707031 310.238281 229.75 307.195312 C 232.792969 304.152344 236.917969 302.445312 241.21875 302.445312 Z M 241.21875 302.445312 " clip-rule="nonzero"/></clipPath><clipPath id="471249fe5e"><path d="M 225.019531 302.445312 L 337.480469 302.445312 L 337.480469 334.695312 L 225.019531 334.695312 Z M 225.019531 302.445312 " clip-rule="nonzero"/></clipPath><clipPath id="ced35c9035"><path d="M 241.230469 302.445312 L 321.269531 302.445312 C 325.570312 302.445312 329.691406 304.152344 332.734375 307.195312 C 335.773438 310.234375 337.480469 314.359375 337.480469 318.660156 C 337.480469 322.957031 335.773438 327.082031 332.734375 330.121094 C 329.691406 333.164062 325.570312 334.871094 321.269531 334.871094 L 241.230469 334.871094 C 236.929688 334.871094 232.808594 333.164062 229.765625 330.121094 C 226.726562 327.082031 225.019531 322.957031 225.019531 318.660156 C 225.019531 314.359375 226.726562 310.234375 229.765625 307.195312 C 232.808594 304.152344 236.929688 302.445312 241.230469 302.445312 Z M 241.230469 302.445312 " clip-rule="nonzero"/></clipPath><clipPath id="6ac95dfb9c"><path d="M 83.023438 213.707031 L 291.96875 213.707031 L 291.96875 240.03125 L 83.023438 240.03125 Z M 83.023438 213.707031 " clip-rule="nonzero"/></clipPath><clipPath id="cd6c7a944c"><path d="M 316 142 L 353.476562 142 L 353.476562 191.480469 L 316 191.480469 Z M 316 142 " clip-rule="nonzero"/></clipPath><clipPath id="fe21abed40"><path d="M 291.976562 142 L 308 142 L 308 146 L 291.976562 146 Z M 291.976562 142 " clip-rule="nonzero"/></clipPath><clipPath id="7cc86a62cf"><path d="M 137.648438 142.421875 L 237.398438 142.421875 L 237.398438 207.671875 L 137.648438 207.671875 Z M 137.648438 142.421875 " clip-rule="nonzero"/></clipPath></defs><rect x="-37.5" width="450" fill="#ffffff" y="-37.499999" height="449.999989" fill-opacity="1"/><rect x="-37.5" width="450" fill="#f6f5f4" y="-37.499999" height="449.999989" fill-opacity="1"/><g clip-path="url(#0dc2921e47)"><path fill="#b2a6d9" d="M 97.449219 215.882812 C 97.449219 167.980469 135.042969 128.8125 182.34375 126.371094 L 182.34375 139.996094 L 204.167969 121.148438 L 225.960938 102.335938 L 204.167969 83.488281 L 182.34375 64.640625 L 182.34375 78.265625 C 124.363281 80.976562 78.203125 128.8125 78.203125 187.460938 C 78.203125 220.101562 92.496094 249.390625 115.191406 269.410156 C 104.046875 254.480469 97.449219 235.96875 97.449219 215.882812 Z M 97.449219 215.882812 " fill-opacity="1" fill-rule="evenodd"/></g><g clip-path="url(#791d81dce5)"><path fill="#b2a6d9" d="M 277.578125 159.042969 C 277.578125 206.976562 239.988281 246.109375 192.6875 248.554688 L 192.6875 234.929688 L 170.863281 253.777344 L 149.070312 272.625 L 170.863281 291.4375 L 192.6875 310.28125 L 192.6875 296.65625 C 250.632812 293.945312 296.828125 246.109375 296.828125 187.460938 C 296.828125 154.824219 282.535156 125.535156 259.839844 105.515625 C 270.984375 120.445312 277.578125 138.992188 277.578125 159.042969 Z M 277.578125 159.042969 " fill-opacity="1" fill-rule="evenodd"/></g><g clip-path="url(#dae5ec1d43)"><g clip-path="url(#e0816d366e)"><path fill="#ede8f5" d="M 37.5 40.511719 L 150.011719 40.511719 L 150.011719 72.949219 L 37.5 72.949219 Z M 37.5 40.511719 " fill-opacity="1" fill-rule="nonzero"/></g></g><g clip-path="url(#592197430b)"><g clip-path="url(#d5a1f5e7de)"><path stroke-linecap="butt" transform="matrix(0.75, 0, 0, 0.75, 37.518188, 40.512245)" fill="none" stroke-linejoin="miter" d="M 21.616376 -0.000701053 L 128.335133 -0.000701053 C 134.069508 -0.000701053 139.5643 2.275341 143.621592 6.332633 C 147.673676 10.384716 149.949717 15.884717 149.949717 21.619092 C 149.949717 27.348259 147.673676 32.848259 143.621592 36.900343 C 139.5643 40.957635 134.069508 43.233677 128.335133 43.233677 L 21.616376 43.233677 C 15.882 43.233677 10.387208 40.957635 6.329916 36.900343 C 2.277833 32.848259 0.00179095 27.348259 0.00179095 21.619092 C 0.00179095 15.884717 2.277833 10.384716 6.329916 6.332633 C 10.387208 2.275341 15.882 -0.000701053 21.616376 -0.000701053 Z M 21.616376 -0.000701053 " stroke="#000000" stroke-width="4" stroke-opacity="1" stroke-miterlimit="4"/></g></g><g clip-path="url(#47fc1c76c5)"><g clip-path="url(#70ed0abe99)"><path fill="#ede8f5" d="M 222.054688 78.484375 L 361.90625 78.484375 L 361.90625 126.671875 L 222.054688 126.671875 Z M 222.054688 78.484375 " fill-opacity="1" fill-rule="nonzero"/></g></g><g clip-path="url(#d062d7f954)"><g clip-path="url(#c0ef9b9568)"><path stroke-linecap="butt" transform="matrix(0.75, 0, 0, 0.75, 222.066583, 78.485796)" fill="none" stroke-linejoin="miter" d="M 22.994558 -0.00189419 L 163.426859 -0.00189419 C 169.525818 -0.00189419 175.374776 2.425189 179.687277 6.732481 C 183.999777 11.044982 186.421652 16.89394 186.421652 22.992899 L 186.421652 41.237692 C 186.421652 47.336651 183.999777 53.185609 179.687277 57.49811 C 175.374776 61.81061 169.525818 64.232485 163.426859 64.232485 L 22.994558 64.232485 C 16.895599 64.232485 11.04664 61.81061 6.73414 57.49811 C 2.42164 53.185609 -0.00023529 47.336651 -0.00023529 41.237692 L -0.00023529 22.992899 C -0.00023529 16.89394 2.42164 11.044982 6.73414 6.732481 C 11.04664 2.425189 16.895599 -0.00189419 22.994558 -0.00189419 Z M 22.994558 -0.00189419 " stroke="#b2a6d9" stroke-width="8" stroke-opacity="1" stroke-miterlimit="4"/></g></g><g clip-path="url(#be03e6c912)"><g clip-path="url(#53ba0015a4)"><path fill="#ede8f5" d="M 23.917969 248.535156 L 136.429688 248.535156 L 136.429688 280.96875 L 23.917969 280.96875 Z M 23.917969 248.535156 " fill-opacity="1" fill-rule="nonzero"/></g></g><g clip-path="url(#a2bd0ef221)"><g clip-path="url(#72fd3d520e)"><path stroke-linecap="butt" transform="matrix(0.75, 0, 0, 0.75, 23.934814, 248.534398)" fill="none" stroke-linejoin="miter" d="M 21.618167 0.00101089 L 128.336924 0.00101089 C 134.066091 0.00101089 139.566091 2.277053 143.618175 6.329136 C 147.675466 10.386428 149.951508 15.886429 149.951508 21.615596 C 149.951508 27.349971 147.675466 32.849971 143.618175 36.902055 C 139.566091 40.959347 134.066091 43.235389 128.336924 43.235389 L 21.618167 43.235389 C 15.883791 43.235389 10.383791 40.959347 6.331707 36.902055 C 2.279624 32.849971 -0.00162653 27.349971 -0.00162653 21.615596 C -0.00162653 15.886429 2.279624 10.386428 6.331707 6.329136 C 10.383791 2.277053 15.883791 0.00101089 21.618167 0.00101089 Z M 21.618167 0.00101089 " stroke="#000000" stroke-width="4" stroke-opacity="1" stroke-miterlimit="4"/></g></g><g clip-path="url(#930df5f869)"><g clip-path="url(#494bffa6ec)"><path fill="#ede8f5" d="M 225 302.445312 L 337.511719 302.445312 L 337.511719 334.882812 L 225 334.882812 Z M 225 302.445312 " fill-opacity="1" fill-rule="nonzero"/></g></g><g clip-path="url(#471249fe5e)"><g clip-path="url(#ced35c9035)"><path stroke-linecap="butt" transform="matrix(0.75, 0, 0, 0.75, 225.018184, 302.445448)" fill="none" stroke-linejoin="miter" d="M 21.616381 -0.000180853 L 128.335138 -0.000180853 C 134.069513 -0.000180853 139.564305 2.275861 143.621597 6.333153 C 147.673681 10.385236 149.949723 15.885237 149.949723 21.619612 C 149.949723 27.348779 147.673681 32.84878 143.621597 36.900863 C 139.564305 40.958155 134.069513 43.234197 128.335138 43.234197 L 21.616381 43.234197 C 15.882006 43.234197 10.387214 40.958155 6.329922 36.900863 C 2.277838 32.84878 0.00179617 27.348779 0.00179617 21.619612 C 0.00179617 15.885237 2.277838 10.385236 6.329922 6.333153 C 10.387214 2.275861 15.882006 -0.000180853 21.616381 -0.000180853 Z M 21.616381 -0.000180853 " stroke="#000000" stroke-width="4" stroke-opacity="1" stroke-miterlimit="4"/></g></g><g clip-path="url(#6ac95dfb9c)"><path fill="#f5c2c2" d="M 287.261719 229.214844 L 217.175781 229.214844 C 217.3125 228.453125 217.382812 227.679688 217.382812 226.875 C 217.382812 226.0625 217.3125 225.285156 217.175781 224.523438 L 287.261719 224.523438 C 288.539062 224.523438 289.601562 225.585938 289.601562 226.875 C 289.601562 228.15625 288.539062 229.214844 287.261719 229.214844 Z M 287.261719 222.15625 L 216.496094 222.15625 C 214.59375 217.21875 209.804688 213.707031 204.214844 213.707031 C 198.59375 213.707031 193.78125 217.257812 191.902344 222.25 L 87.648438 222.25 C 86.367188 222.25 85.199219 222.769531 84.367188 223.597656 C 83.539062 224.429688 83.023438 225.585938 83.023438 226.875 C 83.023438 229.433594 85.089844 231.5 87.648438 231.5 L 191.902344 231.5 C 193.78125 236.480469 198.59375 240.03125 204.214844 240.03125 C 209.804688 240.03125 214.59375 236.519531 216.496094 231.582031 L 287.261719 231.582031 C 289.859375 231.582031 291.96875 229.476562 291.96875 226.875 C 291.96875 224.277344 289.859375 222.15625 287.261719 222.15625 " fill-opacity="1" fill-rule="nonzero"/></g><g clip-path="url(#cd6c7a944c)"><path fill="#000000" d="M 352.78125 170.359375 L 319.03125 142.847656 C 318.570312 142.472656 317.941406 142.394531 317.40625 142.652344 C 316.871094 142.902344 316.527344 143.441406 316.527344 144.03125 L 316.527344 189.882812 C 316.527344 190.554688 316.972656 191.152344 317.617188 191.347656 C 317.765625 191.390625 317.914062 191.410156 318.0625 191.410156 C 318.566406 191.410156 319.046875 191.164062 319.339844 190.730469 L 331.15625 173.070312 L 351.8125 173.070312 C 352.460938 173.070312 353.035156 172.664062 353.257812 172.054688 C 353.476562 171.445312 353.285156 170.769531 352.78125 170.359375 Z M 352.78125 170.359375 " fill-opacity="1" fill-rule="nonzero"/></g><path fill="#000000" d="M 318.0625 118.046875 C 317.214844 118.046875 316.527344 118.730469 316.527344 119.574219 L 316.527344 131.800781 C 316.527344 132.644531 317.214844 133.328125 318.0625 133.328125 C 318.910156 133.328125 319.597656 132.644531 319.597656 131.800781 L 319.597656 119.574219 C 319.597656 118.730469 318.910156 118.046875 318.0625 118.046875 Z M 318.0625 118.046875 " fill-opacity="1" fill-rule="nonzero"/><g clip-path="url(#fe21abed40)"><path fill="#000000" d="M 305.789062 142.5 L 293.519531 142.5 C 292.671875 142.5 291.984375 143.1875 291.984375 144.03125 C 291.984375 144.875 292.671875 145.558594 293.519531 145.558594 L 305.789062 145.558594 C 306.636719 145.558594 307.324219 144.875 307.324219 144.03125 C 307.324219 143.1875 306.636719 142.5 305.789062 142.5 Z M 305.789062 142.5 " fill-opacity="1" fill-rule="nonzero"/></g><path fill="#000000" d="M 342.609375 142.5 L 330.335938 142.5 C 329.488281 142.5 328.800781 143.1875 328.800781 144.03125 C 328.800781 144.875 329.488281 145.558594 330.335938 145.558594 L 342.609375 145.558594 C 343.453125 145.558594 344.140625 144.875 344.140625 144.03125 C 344.140625 143.1875 343.453125 142.5 342.609375 142.5 Z M 342.609375 142.5 " fill-opacity="1" fill-rule="nonzero"/><path fill="#000000" d="M 310.46875 134.300781 L 301.789062 125.65625 C 301.191406 125.0625 300.21875 125.0625 299.621094 125.65625 C 299.023438 126.253906 299.023438 127.222656 299.621094 127.820312 L 308.300781 136.464844 C 308.601562 136.761719 308.992188 136.910156 309.386719 136.910156 C 309.777344 136.910156 310.171875 136.761719 310.46875 136.464844 C 311.066406 135.867188 311.066406 134.898438 310.46875 134.300781 Z M 310.46875 134.300781 " fill-opacity="1" fill-rule="nonzero"/><path fill="#000000" d="M 310.46875 151.597656 C 309.871094 151.003906 308.898438 151.003906 308.300781 151.597656 L 299.621094 160.242188 C 299.019531 160.839844 299.019531 161.808594 299.621094 162.40625 C 299.921875 162.703125 300.3125 162.851562 300.707031 162.851562 C 301.097656 162.851562 301.492188 162.703125 301.789062 162.402344 L 310.46875 153.757812 C 311.066406 153.164062 311.066406 152.195312 310.46875 151.597656 Z M 310.46875 151.597656 " fill-opacity="1" fill-rule="nonzero"/><path fill="#000000" d="M 336.5 125.65625 C 335.902344 125.0625 334.929688 125.0625 334.332031 125.65625 L 325.652344 134.300781 C 325.054688 134.898438 325.054688 135.867188 325.652344 136.464844 C 325.953125 136.761719 326.347656 136.910156 326.738281 136.910156 C 327.132812 136.910156 327.523438 136.761719 327.820312 136.464844 L 336.5 127.820312 C 337.101562 127.222656 337.101562 126.253906 336.5 125.65625 Z M 336.5 125.65625 " fill-opacity="1" fill-rule="nonzero"/><g clip-path="url(#7cc86a62cf)"><path fill="#f5c2c2" d="M 222.105469 142.421875 L 152.894531 142.421875 C 144.507812 142.421875 137.695312 149.234375 137.695312 157.621094 L 137.695312 192.648438 C 137.695312 201.035156 144.507812 207.847656 152.894531 207.847656 L 222.105469 207.847656 C 230.492188 207.847656 237.304688 201.035156 237.304688 192.648438 L 237.304688 157.621094 C 237.304688 149.234375 230.492188 142.421875 222.105469 142.421875 Z M 177.257812 192.886719 L 177.257812 157.402344 L 207.980469 175.15625 L 177.257812 192.90625 Z M 177.257812 192.886719 " fill-opacity="1" fill-rule="nonzero"/></g><g fill="#000000" fill-opacity="1"><g transform="translate(255.019675, 111.578899)"><g><path d="M 11.625 -15.640625 C 10.84375 -16.910156 9.65625 -17.546875 8.0625 -17.546875 C 6.46875 -17.546875 5.273438 -16.910156 4.484375 -15.640625 C 3.691406 -14.367188 3.296875 -12.316406 3.296875 -9.484375 C 3.296875 -6.660156 3.691406 -4.613281 4.484375 -3.34375 C 5.273438 -2.070312 6.46875 -1.4375 8.0625 -1.4375 C 9.65625 -1.4375 10.84375 -2.070312 11.625 -3.34375 C 12.414062 -4.613281 12.8125 -6.660156 12.8125 -9.484375 C 12.8125 -12.316406 12.414062 -14.367188 11.625 -15.640625 Z M 13.09375 -2 C 11.90625 -0.488281 10.226562 0.265625 8.0625 0.265625 C 5.894531 0.265625 4.210938 -0.488281 3.015625 -2 C 1.816406 -3.507812 1.21875 -6.003906 1.21875 -9.484375 C 1.21875 -12.972656 1.816406 -15.46875 3.015625 -16.96875 C 4.210938 -18.476562 5.894531 -19.234375 8.0625 -19.234375 C 10.226562 -19.234375 11.90625 -18.476562 13.09375 -16.96875 C 14.289062 -15.46875 14.890625 -12.972656 14.890625 -9.484375 C 14.890625 -6.003906 14.289062 -3.507812 13.09375 -2 Z M 13.09375 -2 "/></g></g></g><g fill="#000000" fill-opacity="1"><g transform="translate(271.134844, 111.578899)"><g><path d="M 13 -16.640625 L 7.390625 -11.15625 L 7.390625 -11.109375 C 7.390625 -11.085938 7.394531 -11.078125 7.40625 -11.078125 L 8.15625 -11.078125 C 10 -11.078125 11.410156 -10.632812 12.390625 -9.75 C 13.367188 -8.863281 13.859375 -7.582031 13.859375 -5.90625 C 13.859375 -3.925781 13.269531 -2.398438 12.09375 -1.328125 C 10.925781 -0.265625 9.257812 0.265625 7.09375 0.265625 C 5.539062 0.265625 4.15625 -0.0390625 2.9375 -0.65625 C 2.707031 -0.769531 2.550781 -0.945312 2.46875 -1.1875 C 2.382812 -1.4375 2.382812 -1.679688 2.46875 -1.921875 C 2.539062 -2.148438 2.691406 -2.300781 2.921875 -2.375 C 3.160156 -2.457031 3.382812 -2.445312 3.59375 -2.34375 C 4.726562 -1.769531 5.894531 -1.484375 7.09375 -1.484375 C 8.625 -1.484375 9.785156 -1.851562 10.578125 -2.59375 C 11.378906 -3.34375 11.78125 -4.445312 11.78125 -5.90625 C 11.78125 -7.132812 11.367188 -8.046875 10.546875 -8.640625 C 9.722656 -9.242188 8.410156 -9.546875 6.609375 -9.546875 L 5.515625 -9.546875 C 5.285156 -9.546875 5.09375 -9.625 4.9375 -9.78125 C 4.78125 -9.9375 4.703125 -10.125 4.703125 -10.34375 C 4.703125 -10.882812 4.894531 -11.34375 5.28125 -11.71875 L 10.921875 -17.1875 L 10.921875 -17.21875 C 10.921875 -17.226562 10.910156 -17.234375 10.890625 -17.234375 L 3.0625 -17.234375 C 2.84375 -17.234375 2.644531 -17.320312 2.46875 -17.5 C 2.289062 -17.675781 2.203125 -17.882812 2.203125 -18.125 C 2.203125 -18.34375 2.285156 -18.539062 2.453125 -18.71875 C 2.617188 -18.894531 2.820312 -18.984375 3.0625 -18.984375 L 12.734375 -18.984375 C 12.984375 -18.984375 13.1875 -18.894531 13.34375 -18.71875 C 13.507812 -18.539062 13.59375 -18.34375 13.59375 -18.125 C 13.59375 -17.53125 13.394531 -17.035156 13 -16.640625 Z M 13 -16.640625 "/></g></g></g><g fill="#000000" fill-opacity="1"><g transform="translate(287.250012, 111.578899)"><g><path d="M 5.921875 -12.484375 L 5.921875 -11.265625 C 5.921875 -10.929688 5.804688 -10.644531 5.578125 -10.40625 C 5.359375 -10.175781 5.078125 -10.0625 4.734375 -10.0625 C 4.390625 -10.0625 4.097656 -10.175781 3.859375 -10.40625 C 3.628906 -10.644531 3.515625 -10.929688 3.515625 -11.265625 L 3.515625 -12.484375 C 3.515625 -12.828125 3.628906 -13.113281 3.859375 -13.34375 C 4.097656 -13.582031 4.390625 -13.703125 4.734375 -13.703125 C 5.054688 -13.703125 5.332031 -13.582031 5.5625 -13.34375 C 5.800781 -13.113281 5.921875 -12.828125 5.921875 -12.484375 Z M 5.921875 -2.421875 L 5.921875 -1.21875 C 5.921875 -0.875 5.800781 -0.582031 5.5625 -0.34375 C 5.332031 -0.113281 5.054688 0 4.734375 0 C 4.390625 0 4.097656 -0.117188 3.859375 -0.359375 C 3.628906 -0.609375 3.515625 -0.894531 3.515625 -1.21875 L 3.515625 -2.421875 C 3.515625 -2.742188 3.628906 -3.023438 3.859375 -3.265625 C 4.097656 -3.515625 4.390625 -3.640625 4.734375 -3.640625 C 5.054688 -3.640625 5.332031 -3.519531 5.5625 -3.28125 C 5.800781 -3.050781 5.921875 -2.765625 5.921875 -2.421875 Z M 5.921875 -2.421875 "/></g></g></g><g fill="#000000" fill-opacity="1"><g transform="translate(296.685185, 111.578899)"><g><path d="M 11.625 -15.640625 C 10.84375 -16.910156 9.65625 -17.546875 8.0625 -17.546875 C 6.46875 -17.546875 5.273438 -16.910156 4.484375 -15.640625 C 3.691406 -14.367188 3.296875 -12.316406 3.296875 -9.484375 C 3.296875 -6.660156 3.691406 -4.613281 4.484375 -3.34375 C 5.273438 -2.070312 6.46875 -1.4375 8.0625 -1.4375 C 9.65625 -1.4375 10.84375 -2.070312 11.625 -3.34375 C 12.414062 -4.613281 12.8125 -6.660156 12.8125 -9.484375 C 12.8125 -12.316406 12.414062 -14.367188 11.625 -15.640625 Z M 13.09375 -2 C 11.90625 -0.488281 10.226562 0.265625 8.0625 0.265625 C 5.894531 0.265625 4.210938 -0.488281 3.015625 -2 C 1.816406 -3.507812 1.21875 -6.003906 1.21875 -9.484375 C 1.21875 -12.972656 1.816406 -15.46875 3.015625 -16.96875 C 4.210938 -18.476562 5.894531 -19.234375 8.0625 -19.234375 C 10.226562 -19.234375 11.90625 -18.476562 13.09375 -16.96875 C 14.289062 -15.46875 14.890625 -12.972656 14.890625 -9.484375 C 14.890625 -6.003906 14.289062 -3.507812 13.09375 -2 Z M 13.09375 -2 "/></g></g></g><g fill="#000000" fill-opacity="1"><g transform="translate(312.800353, 111.578899)"><g><path d="M 12.25 -17.8125 C 13.269531 -16.875 13.78125 -15.554688 13.78125 -13.859375 C 13.78125 -12.160156 13.164062 -10.441406 11.9375 -8.703125 C 10.707031 -6.972656 8.410156 -4.671875 5.046875 -1.796875 C 5.023438 -1.796875 5.015625 -1.785156 5.015625 -1.765625 C 5.015625 -1.742188 5.023438 -1.734375 5.046875 -1.734375 L 13 -1.734375 C 13.226562 -1.734375 13.425781 -1.644531 13.59375 -1.46875 C 13.769531 -1.300781 13.859375 -1.097656 13.859375 -0.859375 C 13.859375 -0.628906 13.773438 -0.425781 13.609375 -0.25 C 13.441406 -0.0820312 13.238281 0 13 0 L 3.046875 0 C 2.796875 0 2.582031 -0.0820312 2.40625 -0.25 C 2.238281 -0.425781 2.15625 -0.628906 2.15625 -0.859375 C 2.15625 -1.441406 2.378906 -1.914062 2.828125 -2.28125 C 6.242188 -5.144531 8.566406 -7.394531 9.796875 -9.03125 C 11.023438 -10.664062 11.640625 -12.222656 11.640625 -13.703125 C 11.640625 -14.929688 11.300781 -15.863281 10.625 -16.5 C 9.957031 -17.144531 8.972656 -17.46875 7.671875 -17.46875 C 6.242188 -17.46875 4.78125 -17.023438 3.28125 -16.140625 C 3.082031 -16.023438 2.875 -16.003906 2.65625 -16.078125 C 2.445312 -16.160156 2.296875 -16.304688 2.203125 -16.515625 C 1.992188 -17.085938 2.144531 -17.519531 2.65625 -17.8125 C 4.28125 -18.757812 6.039062 -19.234375 7.9375 -19.234375 C 9.789062 -19.234375 11.226562 -18.757812 12.25 -17.8125 Z M 12.25 -17.8125 "/></g></g></g><g fill="#000000" fill-opacity="1"><g transform="translate(66.744142, 63.105346)"><g><path d="M 8.5 -11.421875 C 7.925781 -12.359375 7.054688 -12.828125 5.890625 -12.828125 C 4.722656 -12.828125 3.847656 -12.359375 3.265625 -11.421875 C 2.691406 -10.492188 2.40625 -9 2.40625 -6.9375 C 2.40625 -4.875 2.691406 -3.375 3.265625 -2.4375 C 3.847656 -1.507812 4.722656 -1.046875 5.890625 -1.046875 C 7.054688 -1.046875 7.925781 -1.507812 8.5 -2.4375 C 9.070312 -3.375 9.359375 -4.875 9.359375 -6.9375 C 9.359375 -9 9.070312 -10.492188 8.5 -11.421875 Z M 9.578125 -1.453125 C 8.703125 -0.359375 7.472656 0.1875 5.890625 0.1875 C 4.304688 0.1875 3.078125 -0.359375 2.203125 -1.453125 C 1.328125 -2.554688 0.890625 -4.378906 0.890625 -6.921875 C 0.890625 -9.472656 1.328125 -11.300781 2.203125 -12.40625 C 3.078125 -13.507812 4.304688 -14.0625 5.890625 -14.0625 C 7.472656 -14.0625 8.703125 -13.507812 9.578125 -12.40625 C 10.453125 -11.300781 10.890625 -9.472656 10.890625 -6.921875 C 10.890625 -4.378906 10.453125 -2.554688 9.578125 -1.453125 Z M 9.578125 -1.453125 "/></g></g></g><g fill="#000000" fill-opacity="1"><g transform="translate(78.521736, 63.105346)"><g><path d="M 8.5 -11.421875 C 7.925781 -12.359375 7.054688 -12.828125 5.890625 -12.828125 C 4.722656 -12.828125 3.847656 -12.359375 3.265625 -11.421875 C 2.691406 -10.492188 2.40625 -9 2.40625 -6.9375 C 2.40625 -4.875 2.691406 -3.375 3.265625 -2.4375 C 3.847656 -1.507812 4.722656 -1.046875 5.890625 -1.046875 C 7.054688 -1.046875 7.925781 -1.507812 8.5 -2.4375 C 9.070312 -3.375 9.359375 -4.875 9.359375 -6.9375 C 9.359375 -9 9.070312 -10.492188 8.5 -11.421875 Z M 9.578125 -1.453125 C 8.703125 -0.359375 7.472656 0.1875 5.890625 0.1875 C 4.304688 0.1875 3.078125 -0.359375 2.203125 -1.453125 C 1.328125 -2.554688 0.890625 -4.378906 0.890625 -6.921875 C 0.890625 -9.472656 1.328125 -11.300781 2.203125 -12.40625 C 3.078125 -13.507812 4.304688 -14.0625 5.890625 -14.0625 C 7.472656 -14.0625 8.703125 -13.507812 9.578125 -12.40625 C 10.453125 -11.300781 10.890625 -9.472656 10.890625 -6.921875 C 10.890625 -4.378906 10.453125 -2.554688 9.578125 -1.453125 Z M 9.578125 -1.453125 "/></g></g></g><g fill="#000000" fill-opacity="1"><g transform="translate(90.299331, 63.105346)"><g><path d="M 4.328125 -9.125 L 4.328125 -8.234375 C 4.328125 -7.984375 4.242188 -7.773438 4.078125 -7.609375 C 3.921875 -7.441406 3.710938 -7.359375 3.453125 -7.359375 C 3.203125 -7.359375 2.988281 -7.441406 2.8125 -7.609375 C 2.644531 -7.773438 2.5625 -7.984375 2.5625 -8.234375 L 2.5625 -9.125 C 2.5625 -9.375 2.644531 -9.582031 2.8125 -9.75 C 2.988281 -9.925781 3.203125 -10.015625 3.453125 -10.015625 C 3.691406 -10.015625 3.894531 -9.925781 4.0625 -9.75 C 4.238281 -9.582031 4.328125 -9.375 4.328125 -9.125 Z M 4.328125 -1.765625 L 4.328125 -0.890625 C 4.328125 -0.640625 4.238281 -0.425781 4.0625 -0.25 C 3.894531 -0.0820312 3.691406 0 3.453125 0 C 3.203125 0 2.988281 -0.0859375 2.8125 -0.265625 C 2.644531 -0.441406 2.5625 -0.648438 2.5625 -0.890625 L 2.5625 -1.765625 C 2.5625 -2.003906 2.644531 -2.210938 2.8125 -2.390625 C 2.988281 -2.566406 3.203125 -2.65625 3.453125 -2.65625 C 3.691406 -2.65625 3.894531 -2.566406 4.0625 -2.390625 C 4.238281 -2.222656 4.328125 -2.015625 4.328125 -1.765625 Z M 4.328125 -1.765625 "/></g></g></g><g fill="#000000" fill-opacity="1"><g transform="translate(97.194922, 63.105346)"><g><path d="M 9.5 -12.15625 L 5.390625 -8.15625 L 5.390625 -8.109375 C 5.390625 -8.097656 5.398438 -8.09375 5.421875 -8.09375 L 5.96875 -8.09375 C 7.3125 -8.09375 8.335938 -7.769531 9.046875 -7.125 C 9.765625 -6.476562 10.125 -5.539062 10.125 -4.3125 C 10.125 -2.863281 9.695312 -1.75 8.84375 -0.96875 C 7.988281 -0.195312 6.769531 0.1875 5.1875 0.1875 C 4.050781 0.1875 3.035156 -0.03125 2.140625 -0.46875 C 1.984375 -0.5625 1.867188 -0.695312 1.796875 -0.875 C 1.734375 -1.050781 1.738281 -1.226562 1.8125 -1.40625 C 1.851562 -1.570312 1.957031 -1.679688 2.125 -1.734375 C 2.300781 -1.796875 2.46875 -1.785156 2.625 -1.703125 C 3.457031 -1.285156 4.3125 -1.078125 5.1875 -1.078125 C 6.300781 -1.078125 7.148438 -1.347656 7.734375 -1.890625 C 8.316406 -2.441406 8.609375 -3.25 8.609375 -4.3125 C 8.609375 -5.207031 8.304688 -5.875 7.703125 -6.3125 C 7.097656 -6.75 6.140625 -6.96875 4.828125 -6.96875 L 4.03125 -6.96875 C 3.863281 -6.96875 3.722656 -7.023438 3.609375 -7.140625 C 3.492188 -7.253906 3.4375 -7.394531 3.4375 -7.5625 C 3.4375 -7.957031 3.578125 -8.289062 3.859375 -8.5625 L 7.984375 -12.5625 L 7.984375 -12.578125 C 7.984375 -12.585938 7.976562 -12.59375 7.96875 -12.59375 L 2.234375 -12.59375 C 2.078125 -12.59375 1.929688 -12.65625 1.796875 -12.78125 C 1.671875 -12.914062 1.609375 -13.070312 1.609375 -13.25 C 1.609375 -13.40625 1.664062 -13.546875 1.78125 -13.671875 C 1.90625 -13.804688 2.054688 -13.875 2.234375 -13.875 L 9.3125 -13.875 C 9.488281 -13.875 9.632812 -13.804688 9.75 -13.671875 C 9.875 -13.546875 9.9375 -13.40625 9.9375 -13.25 C 9.9375 -12.8125 9.789062 -12.445312 9.5 -12.15625 Z M 9.5 -12.15625 "/></g></g></g><g fill="#000000" fill-opacity="1"><g transform="translate(108.972517, 63.105346)"><g><path d="M 10.296875 -4.5625 C 10.296875 -3.007812 9.859375 -1.828125 8.984375 -1.015625 C 8.117188 -0.210938 6.851562 0.1875 5.1875 0.1875 C 4.132812 0.1875 3.140625 -0.0195312 2.203125 -0.4375 C 2.035156 -0.507812 1.910156 -0.632812 1.828125 -0.8125 C 1.742188 -0.988281 1.738281 -1.164062 1.8125 -1.34375 C 1.851562 -1.507812 1.953125 -1.617188 2.109375 -1.671875 C 2.273438 -1.734375 2.429688 -1.734375 2.578125 -1.671875 C 3.441406 -1.273438 4.3125 -1.078125 5.1875 -1.078125 C 7.582031 -1.078125 8.78125 -2.238281 8.78125 -4.5625 C 8.78125 -5.53125 8.519531 -6.269531 8 -6.78125 C 7.476562 -7.300781 6.726562 -7.5625 5.75 -7.5625 C 5.0625 -7.5625 4.414062 -7.394531 3.8125 -7.0625 C 3.363281 -6.8125 2.960938 -6.6875 2.609375 -6.6875 C 2.429688 -6.6875 2.273438 -6.753906 2.140625 -6.890625 C 2.015625 -7.023438 1.957031 -7.179688 1.96875 -7.359375 L 2.28125 -12.78125 C 2.300781 -13.09375 2.421875 -13.351562 2.640625 -13.5625 C 2.859375 -13.769531 3.117188 -13.875 3.421875 -13.875 L 9.078125 -13.875 C 9.253906 -13.875 9.40625 -13.804688 9.53125 -13.671875 C 9.664062 -13.546875 9.734375 -13.398438 9.734375 -13.234375 C 9.734375 -13.078125 9.664062 -12.929688 9.53125 -12.796875 C 9.40625 -12.660156 9.253906 -12.59375 9.078125 -12.59375 L 3.890625 -12.59375 C 3.773438 -12.59375 3.71875 -12.539062 3.71875 -12.4375 L 3.453125 -8.125 C 3.453125 -8.113281 3.460938 -8.109375 3.484375 -8.109375 L 3.515625 -8.109375 C 4.265625 -8.554688 5.097656 -8.78125 6.015625 -8.78125 C 7.378906 -8.78125 8.429688 -8.410156 9.171875 -7.671875 C 9.921875 -6.941406 10.296875 -5.90625 10.296875 -4.5625 Z M 10.296875 -4.5625 "/></g></g></g><g fill="#000000" fill-opacity="1"><g transform="translate(53.160767, 271.127442)"><g><path d="M 5.875 -12.03125 L 2.640625 -9.046875 C 2.515625 -8.929688 2.367188 -8.890625 2.203125 -8.921875 C 2.035156 -8.953125 1.914062 -9.046875 1.84375 -9.203125 C 1.65625 -9.597656 1.722656 -9.957031 2.046875 -10.28125 L 5.359375 -13.359375 C 5.734375 -13.703125 6.175781 -13.875 6.6875 -13.875 C 6.882812 -13.875 7.0625 -13.796875 7.21875 -13.640625 C 7.375 -13.484375 7.453125 -13.304688 7.453125 -13.109375 L 7.453125 -0.765625 C 7.453125 -0.554688 7.375 -0.375 7.21875 -0.21875 C 7.0625 -0.0703125 6.882812 0 6.6875 0 C 6.488281 0 6.3125 -0.0703125 6.15625 -0.21875 C 6 -0.375 5.921875 -0.554688 5.921875 -0.765625 L 5.921875 -12.03125 C 5.921875 -12.039062 5.914062 -12.046875 5.90625 -12.046875 Z M 5.875 -12.03125 "/></g></g></g><g fill="#000000" fill-opacity="1"><g transform="translate(64.938361, 271.127442)"><g><path d="M 8.5 -11.421875 C 7.925781 -12.359375 7.054688 -12.828125 5.890625 -12.828125 C 4.722656 -12.828125 3.847656 -12.359375 3.265625 -11.421875 C 2.691406 -10.492188 2.40625 -9 2.40625 -6.9375 C 2.40625 -4.875 2.691406 -3.375 3.265625 -2.4375 C 3.847656 -1.507812 4.722656 -1.046875 5.890625 -1.046875 C 7.054688 -1.046875 7.925781 -1.507812 8.5 -2.4375 C 9.070312 -3.375 9.359375 -4.875 9.359375 -6.9375 C 9.359375 -9 9.070312 -10.492188 8.5 -11.421875 Z M 9.578125 -1.453125 C 8.703125 -0.359375 7.472656 0.1875 5.890625 0.1875 C 4.304688 0.1875 3.078125 -0.359375 2.203125 -1.453125 C 1.328125 -2.554688 0.890625 -4.378906 0.890625 -6.921875 C 0.890625 -9.472656 1.328125 -11.300781 2.203125 -12.40625 C 3.078125 -13.507812 4.304688 -14.0625 5.890625 -14.0625 C 7.472656 -14.0625 8.703125 -13.507812 9.578125 -12.40625 C 10.453125 -11.300781 10.890625 -9.472656 10.890625 -6.921875 C 10.890625 -4.378906 10.453125 -2.554688 9.578125 -1.453125 Z M 9.578125 -1.453125 "/></g></g></g><g fill="#000000" fill-opacity="1"><g transform="translate(76.715956, 271.127442)"><g><path d="M 4.328125 -9.125 L 4.328125 -8.234375 C 4.328125 -7.984375 4.242188 -7.773438 4.078125 -7.609375 C 3.921875 -7.441406 3.710938 -7.359375 3.453125 -7.359375 C 3.203125 -7.359375 2.988281 -7.441406 2.8125 -7.609375 C 2.644531 -7.773438 2.5625 -7.984375 2.5625 -8.234375 L 2.5625 -9.125 C 2.5625 -9.375 2.644531 -9.582031 2.8125 -9.75 C 2.988281 -9.925781 3.203125 -10.015625 3.453125 -10.015625 C 3.691406 -10.015625 3.894531 -9.925781 4.0625 -9.75 C 4.238281 -9.582031 4.328125 -9.375 4.328125 -9.125 Z M 4.328125 -1.765625 L 4.328125 -0.890625 C 4.328125 -0.640625 4.238281 -0.425781 4.0625 -0.25 C 3.894531 -0.0820312 3.691406 0 3.453125 0 C 3.203125 0 2.988281 -0.0859375 2.8125 -0.265625 C 2.644531 -0.441406 2.5625 -0.648438 2.5625 -0.890625 L 2.5625 -1.765625 C 2.5625 -2.003906 2.644531 -2.210938 2.8125 -2.390625 C 2.988281 -2.566406 3.203125 -2.65625 3.453125 -2.65625 C 3.691406 -2.65625 3.894531 -2.566406 4.0625 -2.390625 C 4.238281 -2.222656 4.328125 -2.015625 4.328125 -1.765625 Z M 4.328125 -1.765625 "/></g></g></g><g fill="#000000" fill-opacity="1"><g transform="translate(83.611547, 271.127442)"><g><path d="M 8.9375 -13.015625 C 9.6875 -12.328125 10.0625 -11.363281 10.0625 -10.125 C 10.0625 -8.882812 9.613281 -7.628906 8.71875 -6.359375 C 7.820312 -5.097656 6.144531 -3.414062 3.6875 -1.3125 C 3.675781 -1.3125 3.671875 -1.300781 3.671875 -1.28125 C 3.671875 -1.269531 3.675781 -1.265625 3.6875 -1.265625 L 9.5 -1.265625 C 9.664062 -1.265625 9.8125 -1.203125 9.9375 -1.078125 C 10.0625 -0.953125 10.125 -0.800781 10.125 -0.625 C 10.125 -0.457031 10.0625 -0.3125 9.9375 -0.1875 C 9.820312 -0.0625 9.675781 0 9.5 0 L 2.21875 0 C 2.039062 0 1.890625 -0.0625 1.765625 -0.1875 C 1.640625 -0.3125 1.578125 -0.457031 1.578125 -0.625 C 1.578125 -1.050781 1.742188 -1.398438 2.078125 -1.671875 C 4.566406 -3.765625 6.257812 -5.40625 7.15625 -6.59375 C 8.0625 -7.789062 8.515625 -8.929688 8.515625 -10.015625 C 8.515625 -10.910156 8.265625 -11.59375 7.765625 -12.0625 C 7.273438 -12.53125 6.554688 -12.765625 5.609375 -12.765625 C 4.566406 -12.765625 3.492188 -12.441406 2.390625 -11.796875 C 2.253906 -11.710938 2.101562 -11.695312 1.9375 -11.75 C 1.78125 -11.8125 1.671875 -11.914062 1.609375 -12.0625 C 1.460938 -12.476562 1.570312 -12.796875 1.9375 -13.015625 C 3.125 -13.710938 4.410156 -14.0625 5.796875 -14.0625 C 7.148438 -14.0625 8.195312 -13.710938 8.9375 -13.015625 Z M 8.9375 -13.015625 "/></g></g></g><g fill="#000000" fill-opacity="1"><g transform="translate(95.389142, 271.127442)"><g><path d="M 5.65625 -6.75 C 4.570312 -6.507812 3.75 -6.132812 3.1875 -5.625 C 2.625 -5.113281 2.34375 -4.503906 2.34375 -3.796875 C 2.34375 -2.941406 2.65625 -2.265625 3.28125 -1.765625 C 3.914062 -1.273438 4.785156 -1.03125 5.890625 -1.03125 C 6.992188 -1.03125 7.851562 -1.28125 8.46875 -1.78125 C 9.09375 -2.28125 9.40625 -2.953125 9.40625 -3.796875 C 9.40625 -5.304688 8.269531 -6.289062 6 -6.75 C 5.882812 -6.757812 5.769531 -6.757812 5.65625 -6.75 Z M 2.84375 -10.609375 C 2.84375 -9.992188 3.09375 -9.457031 3.59375 -9 C 4.09375 -8.550781 4.804688 -8.222656 5.734375 -8.015625 C 5.835938 -8.003906 5.941406 -8.003906 6.046875 -8.015625 C 6.960938 -8.222656 7.675781 -8.554688 8.1875 -9.015625 C 8.707031 -9.472656 8.96875 -10.003906 8.96875 -10.609375 C 8.96875 -11.296875 8.695312 -11.835938 8.15625 -12.234375 C 7.625 -12.640625 6.867188 -12.84375 5.890625 -12.84375 C 4.929688 -12.84375 4.179688 -12.640625 3.640625 -12.234375 C 3.109375 -11.835938 2.84375 -11.296875 2.84375 -10.609375 Z M 9.5625 -0.875 C 8.675781 -0.164062 7.453125 0.1875 5.890625 0.1875 C 4.328125 0.1875 3.101562 -0.164062 2.21875 -0.875 C 1.332031 -1.582031 0.890625 -2.539062 0.890625 -3.75 C 0.890625 -4.550781 1.160156 -5.265625 1.703125 -5.890625 C 2.242188 -6.523438 3.019531 -7 4.03125 -7.3125 C 4.039062 -7.3125 4.046875 -7.328125 4.046875 -7.359375 C 4.046875 -7.367188 4.039062 -7.375 4.03125 -7.375 C 3.195312 -7.6875 2.546875 -8.132812 2.078125 -8.71875 C 1.617188 -9.3125 1.390625 -9.984375 1.390625 -10.734375 C 1.390625 -11.734375 1.789062 -12.535156 2.59375 -13.140625 C 3.394531 -13.753906 4.492188 -14.0625 5.890625 -14.0625 C 7.285156 -14.0625 8.382812 -13.753906 9.1875 -13.140625 C 9.988281 -12.535156 10.390625 -11.734375 10.390625 -10.734375 C 10.390625 -9.210938 9.507812 -8.132812 7.75 -7.5 C 7.738281 -7.5 7.734375 -7.488281 7.734375 -7.46875 C 7.734375 -7.457031 7.738281 -7.453125 7.75 -7.453125 C 9.84375 -6.804688 10.890625 -5.570312 10.890625 -3.75 C 10.890625 -2.539062 10.445312 -1.582031 9.5625 -0.875 Z M 9.5625 -0.875 "/></g></g></g><g fill="#000000" fill-opacity="1"><g transform="translate(254.244129, 325.038495)"><g><path d="M 5.875 -12.03125 L 2.640625 -9.046875 C 2.515625 -8.929688 2.367188 -8.890625 2.203125 -8.921875 C 2.035156 -8.953125 1.914062 -9.046875 1.84375 -9.203125 C 1.65625 -9.597656 1.722656 -9.957031 2.046875 -10.28125 L 5.359375 -13.359375 C 5.734375 -13.703125 6.175781 -13.875 6.6875 -13.875 C 6.882812 -13.875 7.0625 -13.796875 7.21875 -13.640625 C 7.375 -13.484375 7.453125 -13.304688 7.453125 -13.109375 L 7.453125 -0.765625 C 7.453125 -0.554688 7.375 -0.375 7.21875 -0.21875 C 7.0625 -0.0703125 6.882812 0 6.6875 0 C 6.488281 0 6.3125 -0.0703125 6.15625 -0.21875 C 6 -0.375 5.921875 -0.554688 5.921875 -0.765625 L 5.921875 -12.03125 C 5.921875 -12.039062 5.914062 -12.046875 5.90625 -12.046875 Z M 5.875 -12.03125 "/></g></g></g><g fill="#000000" fill-opacity="1"><g transform="translate(266.021724, 325.038495)"><g><path d="M 8.9375 -13.015625 C 9.6875 -12.328125 10.0625 -11.363281 10.0625 -10.125 C 10.0625 -8.882812 9.613281 -7.628906 8.71875 -6.359375 C 7.820312 -5.097656 6.144531 -3.414062 3.6875 -1.3125 C 3.675781 -1.3125 3.671875 -1.300781 3.671875 -1.28125 C 3.671875 -1.269531 3.675781 -1.265625 3.6875 -1.265625 L 9.5 -1.265625 C 9.664062 -1.265625 9.8125 -1.203125 9.9375 -1.078125 C 10.0625 -0.953125 10.125 -0.800781 10.125 -0.625 C 10.125 -0.457031 10.0625 -0.3125 9.9375 -0.1875 C 9.820312 -0.0625 9.675781 0 9.5 0 L 2.21875 0 C 2.039062 0 1.890625 -0.0625 1.765625 -0.1875 C 1.640625 -0.3125 1.578125 -0.457031 1.578125 -0.625 C 1.578125 -1.050781 1.742188 -1.398438 2.078125 -1.671875 C 4.566406 -3.765625 6.257812 -5.40625 7.15625 -6.59375 C 8.0625 -7.789062 8.515625 -8.929688 8.515625 -10.015625 C 8.515625 -10.910156 8.265625 -11.59375 7.765625 -12.0625 C 7.273438 -12.53125 6.554688 -12.765625 5.609375 -12.765625 C 4.566406 -12.765625 3.492188 -12.441406 2.390625 -11.796875 C 2.253906 -11.710938 2.101562 -11.695312 1.9375 -11.75 C 1.78125 -11.8125 1.671875 -11.914062 1.609375 -12.0625 C 1.460938 -12.476562 1.570312 -12.796875 1.9375 -13.015625 C 3.125 -13.710938 4.410156 -14.0625 5.796875 -14.0625 C 7.148438 -14.0625 8.195312 -13.710938 8.9375 -13.015625 Z M 8.9375 -13.015625 "/></g></g></g><g fill="#000000" fill-opacity="1"><g transform="translate(277.799319, 325.038495)"><g><path d="M 4.328125 -9.125 L 4.328125 -8.234375 C 4.328125 -7.984375 4.242188 -7.773438 4.078125 -7.609375 C 3.921875 -7.441406 3.710938 -7.359375 3.453125 -7.359375 C 3.203125 -7.359375 2.988281 -7.441406 2.8125 -7.609375 C 2.644531 -7.773438 2.5625 -7.984375 2.5625 -8.234375 L 2.5625 -9.125 C 2.5625 -9.375 2.644531 -9.582031 2.8125 -9.75 C 2.988281 -9.925781 3.203125 -10.015625 3.453125 -10.015625 C 3.691406 -10.015625 3.894531 -9.925781 4.0625 -9.75 C 4.238281 -9.582031 4.328125 -9.375 4.328125 -9.125 Z M 4.328125 -1.765625 L 4.328125 -0.890625 C 4.328125 -0.640625 4.238281 -0.425781 4.0625 -0.25 C 3.894531 -0.0820312 3.691406 0 3.453125 0 C 3.203125 0 2.988281 -0.0859375 2.8125 -0.265625 C 2.644531 -0.441406 2.5625 -0.648438 2.5625 -0.890625 L 2.5625 -1.765625 C 2.5625 -2.003906 2.644531 -2.210938 2.8125 -2.390625 C 2.988281 -2.566406 3.203125 -2.65625 3.453125 -2.65625 C 3.691406 -2.65625 3.894531 -2.566406 4.0625 -2.390625 C 4.238281 -2.222656 4.328125 -2.015625 4.328125 -1.765625 Z M 4.328125 -1.765625 "/></g></g></g><g fill="#000000" fill-opacity="1"><g transform="translate(284.69491, 325.038495)"><g><path d="M 8.5 -11.421875 C 7.925781 -12.359375 7.054688 -12.828125 5.890625 -12.828125 C 4.722656 -12.828125 3.847656 -12.359375 3.265625 -11.421875 C 2.691406 -10.492188 2.40625 -9 2.40625 -6.9375 C 2.40625 -4.875 2.691406 -3.375 3.265625 -2.4375 C 3.847656 -1.507812 4.722656 -1.046875 5.890625 -1.046875 C 7.054688 -1.046875 7.925781 -1.507812 8.5 -2.4375 C 9.070312 -3.375 9.359375 -4.875 9.359375 -6.9375 C 9.359375 -9 9.070312 -10.492188 8.5 -11.421875 Z M 9.578125 -1.453125 C 8.703125 -0.359375 7.472656 0.1875 5.890625 0.1875 C 4.304688 0.1875 3.078125 -0.359375 2.203125 -1.453125 C 1.328125 -2.554688 0.890625 -4.378906 0.890625 -6.921875 C 0.890625 -9.472656 1.328125 -11.300781 2.203125 -12.40625 C 3.078125 -13.507812 4.304688 -14.0625 5.890625 -14.0625 C 7.472656 -14.0625 8.703125 -13.507812 9.578125 -12.40625 C 10.453125 -11.300781 10.890625 -9.472656 10.890625 -6.921875 C 10.890625 -4.378906 10.453125 -2.554688 9.578125 -1.453125 Z M 9.578125 -1.453125 "/></g></g></g><g fill="#000000" fill-opacity="1"><g transform="translate(296.472505, 325.038495)"><g><path d="M 1.859375 -4.46875 L 6.765625 -4.46875 C 6.878906 -4.46875 6.9375 -4.523438 6.9375 -4.640625 L 6.9375 -11.625 C 6.9375 -11.632812 6.929688 -11.640625 6.921875 -11.640625 C 6.890625 -11.640625 6.875 -11.632812 6.875 -11.625 L 1.84375 -4.515625 L 1.84375 -4.484375 C 1.84375 -4.472656 1.847656 -4.46875 1.859375 -4.46875 Z M 6.9375 -0.734375 L 6.9375 -3.078125 C 6.9375 -3.179688 6.878906 -3.234375 6.765625 -3.234375 L 0.90625 -3.234375 C 0.726562 -3.234375 0.578125 -3.296875 0.453125 -3.421875 C 0.335938 -3.546875 0.28125 -3.691406 0.28125 -3.859375 C 0.28125 -4.265625 0.398438 -4.640625 0.640625 -4.984375 L 6.5 -13.265625 C 6.78125 -13.671875 7.171875 -13.875 7.671875 -13.875 C 7.890625 -13.875 8.070312 -13.800781 8.21875 -13.65625 C 8.363281 -13.507812 8.4375 -13.332031 8.4375 -13.125 L 8.4375 -4.640625 C 8.4375 -4.523438 8.488281 -4.46875 8.59375 -4.46875 L 10.1875 -4.46875 C 10.363281 -4.46875 10.507812 -4.40625 10.625 -4.28125 C 10.738281 -4.164062 10.796875 -4.023438 10.796875 -3.859375 C 10.796875 -3.679688 10.734375 -3.53125 10.609375 -3.40625 C 10.492188 -3.289062 10.351562 -3.234375 10.1875 -3.234375 L 8.59375 -3.234375 C 8.488281 -3.234375 8.4375 -3.179688 8.4375 -3.078125 L 8.4375 -0.734375 C 8.4375 -0.535156 8.363281 -0.363281 8.21875 -0.21875 C 8.070312 -0.0703125 7.890625 0 7.671875 0 C 7.472656 0 7.300781 -0.0664062 7.15625 -0.203125 C 7.007812 -0.347656 6.9375 -0.523438 6.9375 -0.734375 Z M 6.9375 -0.734375 "/></g></g></g></svg>