<svg xmlns="http://www.w3.org/2000/svg" xmlns:xlink="http://www.w3.org/1999/xlink" width="500" zoomAndPan="magnify" viewBox="0 0 375 374.999991" height="500" preserveAspectRatio="xMidYMid meet" version="1.0"><defs><g/><clipPath id="bc18fd0f2e"><path d="M 218.804688 99.152344 L 330.554688 99.152344 L 330.554688 210.902344 L 218.804688 210.902344 Z M 218.804688 99.152344 " clip-rule="nonzero"/></clipPath><clipPath id="8892896e75"><path d="M 248 148.648438 L 284.941406 148.648438 L 284.941406 190.011719 L 248 190.011719 Z M 248 148.648438 " clip-rule="nonzero"/></clipPath><clipPath id="4fb69c9bdd"><path d="M 243.234375 140.210938 L 282 140.210938 L 282 184 L 243.234375 184 Z M 243.234375 140.210938 " clip-rule="nonzero"/></clipPath></defs><rect x="-37.5" width="450" fill="#ffffff" y="-37.499999" height="449.999989" fill-opacity="1"/><rect x="-37.5" width="450" fill="#b2a6d9" y="-37.499999" height="449.999989" fill-opacity="1"/><g fill="#2d2c38" fill-opacity="1"><g transform="translate(44.439112, 192.6028)"><g><path d="M 20.71875 0.921875 C 17 0.921875 13.390625 0.460938 9.890625 -0.453125 C 6.398438 -1.367188 3.5625 -2.59375 1.375 -4.125 L 5.640625 -13.703125 C 7.691406 -12.347656 10.070312 -11.253906 12.78125 -10.421875 C 15.488281 -9.585938 18.15625 -9.171875 20.78125 -9.171875 C 25.757812 -9.171875 28.25 -10.421875 28.25 -12.921875 C 28.25 -14.222656 27.539062 -15.191406 26.125 -15.828125 C 24.707031 -16.460938 22.425781 -17.128906 19.28125 -17.828125 C 15.820312 -18.578125 12.929688 -19.375 10.609375 -20.21875 C 8.296875 -21.070312 6.304688 -22.4375 4.640625 -24.3125 C 2.984375 -26.195312 2.15625 -28.734375 2.15625 -31.921875 C 2.15625 -34.722656 2.921875 -37.25 4.453125 -39.5 C 5.984375 -41.75 8.265625 -43.53125 11.296875 -44.84375 C 14.335938 -46.15625 18.066406 -46.8125 22.484375 -46.8125 C 25.503906 -46.8125 28.476562 -46.472656 31.40625 -45.796875 C 34.332031 -45.117188 36.910156 -44.125 39.140625 -42.8125 L 35.140625 -33.171875 C 30.765625 -35.535156 26.523438 -36.71875 22.421875 -36.71875 C 19.835938 -36.71875 17.957031 -36.332031 16.78125 -35.5625 C 15.601562 -34.800781 15.015625 -33.804688 15.015625 -32.578125 C 15.015625 -31.359375 15.710938 -30.441406 17.109375 -29.828125 C 18.503906 -29.210938 20.753906 -28.578125 23.859375 -27.921875 C 27.359375 -27.179688 30.253906 -26.382812 32.546875 -25.53125 C 34.847656 -24.6875 36.835938 -23.332031 38.515625 -21.46875 C 40.203125 -19.613281 41.046875 -17.09375 41.046875 -13.90625 C 41.046875 -11.144531 40.28125 -8.648438 38.75 -6.421875 C 37.21875 -4.191406 34.921875 -2.410156 31.859375 -1.078125 C 28.804688 0.253906 25.09375 0.921875 20.71875 0.921875 Z M 20.71875 0.921875 "/></g></g></g><g fill="#2d2c38" fill-opacity="1"><g transform="translate(82.984716, 192.6028)"><g><path d="M 27.140625 -36.125 C 31.554688 -36.125 35.109375 -34.8125 37.796875 -32.1875 C 40.484375 -29.5625 41.828125 -25.609375 41.828125 -20.328125 L 41.828125 0 L 29.375 0 L 29.375 -18.296875 C 29.375 -23.140625 27.425781 -25.5625 23.53125 -25.5625 C 21.394531 -25.5625 19.679688 -24.863281 18.390625 -23.46875 C 17.097656 -22.070312 16.453125 -19.972656 16.453125 -17.171875 L 16.453125 0 L 4 0 L 4 -35.53125 L 15.859375 -35.53125 L 15.859375 -31.671875 C 17.265625 -33.109375 18.925781 -34.207031 20.84375 -34.96875 C 22.769531 -35.738281 24.867188 -36.125 27.140625 -36.125 Z M 27.140625 -36.125 "/></g></g></g><g fill="#2d2c38" fill-opacity="1"><g transform="translate(124.742493, 192.6028)"><g><path d="M 19.140625 -36.125 C 25.046875 -36.125 29.550781 -34.78125 32.65625 -32.09375 C 35.757812 -29.40625 37.3125 -25.285156 37.3125 -19.734375 L 37.3125 0 L 25.703125 0 L 25.703125 -4.59375 C 23.910156 -1.132812 20.410156 0.59375 15.203125 0.59375 C 12.453125 0.59375 10.070312 0.113281 8.0625 -0.84375 C 6.050781 -1.8125 4.53125 -3.113281 3.5 -4.75 C 2.476562 -6.394531 1.96875 -8.265625 1.96875 -10.359375 C 1.96875 -13.722656 3.253906 -16.332031 5.828125 -18.1875 C 8.410156 -20.050781 12.390625 -20.984375 17.765625 -20.984375 L 24.84375 -20.984375 C 24.625 -24.742188 22.113281 -26.625 17.3125 -26.625 C 15.601562 -26.625 13.875 -26.347656 12.125 -25.796875 C 10.375 -25.253906 8.890625 -24.5 7.671875 -23.53125 L 3.46875 -32 C 5.4375 -33.3125 7.828125 -34.328125 10.640625 -35.046875 C 13.460938 -35.765625 16.296875 -36.125 19.140625 -36.125 Z M 18.6875 -7.28125 C 20.125 -7.28125 21.390625 -7.628906 22.484375 -8.328125 C 23.578125 -9.023438 24.363281 -10.050781 24.84375 -11.40625 L 24.84375 -14.484375 L 19.46875 -14.484375 C 15.84375 -14.484375 14.03125 -13.285156 14.03125 -10.890625 C 14.03125 -9.796875 14.441406 -8.921875 15.265625 -8.265625 C 16.097656 -7.609375 17.238281 -7.28125 18.6875 -7.28125 Z M 18.6875 -7.28125 "/></g></g></g><g fill="#2d2c38" fill-opacity="1"><g transform="translate(162.042551, 192.6028)"><g><path d="M 26.359375 -36.125 C 29.585938 -36.125 32.523438 -35.367188 35.171875 -33.859375 C 37.816406 -32.347656 39.914062 -30.207031 41.46875 -27.4375 C 43.019531 -24.664062 43.796875 -21.441406 43.796875 -17.765625 C 43.796875 -14.097656 43.019531 -10.875 41.46875 -8.09375 C 39.914062 -5.320312 37.816406 -3.179688 35.171875 -1.671875 C 32.523438 -0.160156 29.585938 0.59375 26.359375 0.59375 C 22.203125 0.59375 18.898438 -0.648438 16.453125 -3.140625 L 16.453125 12.71875 L 4 12.71875 L 4 -35.53125 L 15.859375 -35.53125 L 15.859375 -32 C 18.179688 -34.75 21.679688 -36.125 26.359375 -36.125 Z M 23.734375 -9.3125 C 25.921875 -9.3125 27.710938 -10.0625 29.109375 -11.5625 C 30.503906 -13.070312 31.203125 -15.140625 31.203125 -17.765625 C 31.203125 -20.390625 30.503906 -22.453125 29.109375 -23.953125 C 27.710938 -25.460938 25.921875 -26.21875 23.734375 -26.21875 C 21.546875 -26.21875 19.753906 -25.460938 18.359375 -23.953125 C 16.960938 -22.453125 16.265625 -20.390625 16.265625 -17.765625 C 16.265625 -15.140625 16.960938 -13.070312 18.359375 -11.5625 C 19.753906 -10.0625 21.546875 -9.3125 23.734375 -9.3125 Z M 23.734375 -9.3125 "/></g></g></g><g fill="#2d2c38" fill-opacity="1"><g transform="translate(44.439112, 260.102796)"><g><path d="M 20.71875 0.921875 C 17 0.921875 13.390625 0.460938 9.890625 -0.453125 C 6.398438 -1.367188 3.5625 -2.59375 1.375 -4.125 L 5.640625 -13.703125 C 7.691406 -12.347656 10.070312 -11.253906 12.78125 -10.421875 C 15.488281 -9.585938 18.15625 -9.171875 20.78125 -9.171875 C 25.757812 -9.171875 28.25 -10.421875 28.25 -12.921875 C 28.25 -14.222656 27.539062 -15.191406 26.125 -15.828125 C 24.707031 -16.460938 22.425781 -17.128906 19.28125 -17.828125 C 15.820312 -18.578125 12.929688 -19.375 10.609375 -20.21875 C 8.296875 -21.070312 6.304688 -22.4375 4.640625 -24.3125 C 2.984375 -26.195312 2.15625 -28.734375 2.15625 -31.921875 C 2.15625 -34.722656 2.921875 -37.25 4.453125 -39.5 C 5.984375 -41.75 8.265625 -43.53125 11.296875 -44.84375 C 14.335938 -46.15625 18.066406 -46.8125 22.484375 -46.8125 C 25.503906 -46.8125 28.476562 -46.472656 31.40625 -45.796875 C 34.332031 -45.117188 36.910156 -44.125 39.140625 -42.8125 L 35.140625 -33.171875 C 30.765625 -35.535156 26.523438 -36.71875 22.421875 -36.71875 C 19.835938 -36.71875 17.957031 -36.332031 16.78125 -35.5625 C 15.601562 -34.800781 15.015625 -33.804688 15.015625 -32.578125 C 15.015625 -31.359375 15.710938 -30.441406 17.109375 -29.828125 C 18.503906 -29.210938 20.753906 -28.578125 23.859375 -27.921875 C 27.359375 -27.179688 30.253906 -26.382812 32.546875 -25.53125 C 34.847656 -24.6875 36.835938 -23.332031 38.515625 -21.46875 C 40.203125 -19.613281 41.046875 -17.09375 41.046875 -13.90625 C 41.046875 -11.144531 40.28125 -8.648438 38.75 -6.421875 C 37.21875 -4.191406 34.921875 -2.410156 31.859375 -1.078125 C 28.804688 0.253906 25.09375 0.921875 20.71875 0.921875 Z M 20.71875 0.921875 "/></g></g></g><g fill="#2d2c38" fill-opacity="1"><g transform="translate(82.984716, 260.102796)"><g><path d="M 22.15625 0.59375 C 18.226562 0.59375 14.710938 -0.191406 11.609375 -1.765625 C 8.503906 -3.335938 6.085938 -5.519531 4.359375 -8.3125 C 2.628906 -11.113281 1.765625 -14.285156 1.765625 -17.828125 C 1.765625 -21.367188 2.628906 -24.523438 4.359375 -27.296875 C 6.085938 -30.078125 8.503906 -32.242188 11.609375 -33.796875 C 14.710938 -35.347656 18.226562 -36.125 22.15625 -36.125 C 26.175781 -36.125 29.648438 -35.257812 32.578125 -33.53125 C 35.515625 -31.8125 37.59375 -29.421875 38.8125 -26.359375 L 29.171875 -21.4375 C 27.554688 -24.625 25.195312 -26.21875 22.09375 -26.21875 C 19.863281 -26.21875 18.015625 -25.472656 16.546875 -23.984375 C 15.085938 -22.503906 14.359375 -20.453125 14.359375 -17.828125 C 14.359375 -15.160156 15.085938 -13.070312 16.546875 -11.5625 C 18.015625 -10.0625 19.863281 -9.3125 22.09375 -9.3125 C 25.195312 -9.3125 27.554688 -10.90625 29.171875 -14.09375 L 38.8125 -9.171875 C 37.59375 -6.117188 35.515625 -3.726562 32.578125 -2 C 29.648438 -0.269531 26.175781 0.59375 22.15625 0.59375 Z M 22.15625 0.59375 "/></g></g></g><g fill="#2d2c38" fill-opacity="1"><g transform="translate(118.645917, 260.102796)"><g><path d="M 15.859375 -31.265625 C 17.128906 -32.890625 18.78125 -34.101562 20.8125 -34.90625 C 22.84375 -35.71875 25.171875 -36.125 27.796875 -36.125 L 27.796875 -24.90625 C 26.660156 -25.039062 25.722656 -25.109375 24.984375 -25.109375 C 22.316406 -25.109375 20.226562 -24.382812 18.71875 -22.9375 C 17.207031 -21.5 16.453125 -19.296875 16.453125 -16.328125 L 16.453125 0 L 4 0 L 4 -35.53125 L 15.859375 -35.53125 Z M 15.859375 -31.265625 "/></g></g></g><g fill="#2d2c38" fill-opacity="1"><g transform="translate(143.818385, 260.102796)"><g><path d="M 4 -35.53125 L 16.453125 -35.53125 L 16.453125 0 L 4 0 Z M 10.21875 -39.46875 C 7.945312 -39.46875 6.109375 -40.097656 4.703125 -41.359375 C 3.304688 -42.628906 2.609375 -44.207031 2.609375 -46.09375 C 2.609375 -47.96875 3.304688 -49.539062 4.703125 -50.8125 C 6.109375 -52.082031 7.945312 -52.71875 10.21875 -52.71875 C 12.488281 -52.71875 14.320312 -52.113281 15.71875 -50.90625 C 17.125 -49.707031 17.828125 -48.164062 17.828125 -46.28125 C 17.828125 -44.320312 17.125 -42.695312 15.71875 -41.40625 C 14.320312 -40.113281 12.488281 -39.46875 10.21875 -39.46875 Z M 10.21875 -39.46875 "/></g></g></g><g fill="#2d2c38" fill-opacity="1"><g transform="translate(160.468748, 260.102796)"><g><path d="M 26.359375 -36.125 C 29.585938 -36.125 32.523438 -35.378906 35.171875 -33.890625 C 37.816406 -32.410156 39.914062 -30.28125 41.46875 -27.5 C 43.019531 -24.726562 43.796875 -21.503906 43.796875 -17.828125 C 43.796875 -14.160156 43.019531 -10.925781 41.46875 -8.125 C 39.914062 -5.332031 37.816406 -3.179688 35.171875 -1.671875 C 32.523438 -0.160156 29.585938 0.59375 26.359375 0.59375 C 21.679688 0.59375 18.179688 -0.785156 15.859375 -3.546875 L 15.859375 0 L 4 0 L 4 -48.640625 L 16.453125 -48.640625 L 16.453125 -32.453125 C 18.859375 -34.898438 22.160156 -36.125 26.359375 -36.125 Z M 23.734375 -9.3125 C 25.921875 -9.3125 27.710938 -10.0625 29.109375 -11.5625 C 30.503906 -13.070312 31.203125 -15.160156 31.203125 -17.828125 C 31.203125 -20.453125 30.503906 -22.503906 29.109375 -23.984375 C 27.710938 -25.472656 25.921875 -26.21875 23.734375 -26.21875 C 21.546875 -26.21875 19.753906 -25.472656 18.359375 -23.984375 C 16.960938 -22.503906 16.265625 -20.453125 16.265625 -17.828125 C 16.265625 -15.160156 16.960938 -13.070312 18.359375 -11.5625 C 19.753906 -10.0625 21.546875 -9.3125 23.734375 -9.3125 Z M 23.734375 -9.3125 "/></g></g></g><g fill="#2d2c38" fill-opacity="1"><g transform="translate(202.160979, 260.102796)"><g><path d="M 40.328125 -17.703125 C 40.328125 -17.617188 40.257812 -16.59375 40.125 -14.625 L 14.296875 -14.625 C 14.816406 -12.78125 15.832031 -11.367188 17.34375 -10.390625 C 18.851562 -9.410156 20.742188 -8.921875 23.015625 -8.921875 C 24.710938 -8.921875 26.1875 -9.160156 27.4375 -9.640625 C 28.6875 -10.117188 29.941406 -10.90625 31.203125 -12 L 37.765625 -5.171875 C 34.304688 -1.328125 29.257812 0.59375 22.625 0.59375 C 18.46875 0.59375 14.816406 -0.191406 11.671875 -1.765625 C 8.523438 -3.335938 6.085938 -5.519531 4.359375 -8.3125 C 2.628906 -11.113281 1.765625 -14.285156 1.765625 -17.828125 C 1.765625 -21.328125 2.601562 -24.460938 4.28125 -27.234375 C 5.96875 -30.015625 8.296875 -32.191406 11.265625 -33.765625 C 14.242188 -35.335938 17.59375 -36.125 21.3125 -36.125 C 24.851562 -36.125 28.0625 -35.390625 30.9375 -33.921875 C 33.820312 -32.460938 36.109375 -30.34375 37.796875 -27.5625 C 39.484375 -24.789062 40.328125 -21.503906 40.328125 -17.703125 Z M 21.375 -27.28125 C 19.445312 -27.28125 17.835938 -26.734375 16.546875 -25.640625 C 15.265625 -24.546875 14.445312 -23.054688 14.09375 -21.171875 L 28.65625 -21.171875 C 28.300781 -23.054688 27.476562 -24.546875 26.1875 -25.640625 C 24.90625 -26.734375 23.300781 -27.28125 21.375 -27.28125 Z M 21.375 -27.28125 "/></g></g></g><g clip-path="url(#bc18fd0f2e)"><path fill="#2d2c38" d="M 218.804688 205.316406 L 218.804688 110.328125 C 218.804688 109.960938 218.839844 109.597656 218.910156 109.238281 C 218.980469 108.878906 219.089844 108.527344 219.230469 108.1875 C 219.371094 107.851562 219.542969 107.527344 219.746094 107.222656 C 219.949219 106.917969 220.179688 106.636719 220.441406 106.375 C 220.699219 106.117188 220.980469 105.886719 221.285156 105.679688 C 221.589844 105.476562 221.914062 105.304688 222.253906 105.164062 C 222.589844 105.023438 222.941406 104.917969 223.300781 104.847656 C 223.660156 104.773438 224.023438 104.738281 224.390625 104.738281 L 274.679688 104.738281 C 275.046875 104.738281 275.410156 104.773438 275.769531 104.847656 C 276.128906 104.917969 276.476562 105.023438 276.816406 105.164062 C 277.15625 105.304688 277.476562 105.476562 277.78125 105.679688 C 278.085938 105.886719 278.371094 106.117188 278.628906 106.375 C 278.890625 106.636719 279.121094 106.917969 279.324219 107.222656 C 279.527344 107.527344 279.699219 107.851562 279.839844 108.1875 C 279.980469 108.527344 280.085938 108.878906 280.160156 109.238281 C 280.230469 109.597656 280.265625 109.960938 280.265625 110.328125 C 280.265625 110.695312 280.230469 111.058594 280.160156 111.417969 C 280.085938 111.777344 279.980469 112.125 279.839844 112.464844 C 279.699219 112.804688 279.527344 113.125 279.324219 113.429688 C 279.121094 113.738281 278.890625 114.019531 278.628906 114.277344 C 278.371094 114.539062 278.085938 114.769531 277.78125 114.972656 C 277.476562 115.175781 277.15625 115.347656 276.816406 115.488281 C 276.476562 115.628906 276.128906 115.734375 275.769531 115.808594 C 275.410156 115.878906 275.046875 115.914062 274.679688 115.914062 L 229.976562 115.914062 L 229.976562 199.726562 L 313.789062 199.726562 L 313.789062 155.027344 C 313.789062 154.660156 313.828125 154.296875 313.898438 153.9375 C 313.96875 153.578125 314.074219 153.226562 314.214844 152.890625 C 314.355469 152.550781 314.527344 152.226562 314.734375 151.921875 C 314.9375 151.617188 315.167969 151.335938 315.425781 151.074219 C 315.6875 150.816406 315.96875 150.585938 316.273438 150.382812 C 316.578125 150.175781 316.902344 150.003906 317.238281 149.863281 C 317.578125 149.722656 317.929688 149.617188 318.289062 149.546875 C 318.648438 149.476562 319.011719 149.441406 319.378906 149.441406 C 319.746094 149.441406 320.109375 149.476562 320.46875 149.546875 C 320.828125 149.617188 321.179688 149.722656 321.515625 149.863281 C 321.855469 150.003906 322.175781 150.175781 322.484375 150.382812 C 322.789062 150.585938 323.070312 150.816406 323.328125 151.074219 C 323.589844 151.335938 323.820312 151.617188 324.023438 151.921875 C 324.226562 152.226562 324.398438 152.550781 324.539062 152.890625 C 324.679688 153.226562 324.785156 153.578125 324.859375 153.9375 C 324.929688 154.296875 324.964844 154.660156 324.964844 155.027344 L 324.964844 205.316406 C 324.964844 205.679688 324.929688 206.042969 324.859375 206.40625 C 324.785156 206.765625 324.679688 207.113281 324.539062 207.453125 C 324.398438 207.792969 324.226562 208.113281 324.023438 208.417969 C 323.820312 208.722656 323.589844 209.007812 323.328125 209.265625 C 323.070312 209.523438 322.789062 209.757812 322.484375 209.960938 C 322.175781 210.164062 321.855469 210.335938 321.515625 210.476562 C 321.179688 210.617188 320.828125 210.722656 320.46875 210.792969 C 320.109375 210.867188 319.746094 210.902344 319.378906 210.902344 L 224.390625 210.902344 C 224.023438 210.902344 223.660156 210.867188 223.300781 210.792969 C 222.941406 210.722656 222.589844 210.617188 222.253906 210.476562 C 221.914062 210.335938 221.589844 210.164062 221.285156 209.960938 C 220.980469 209.757812 220.699219 209.523438 220.441406 209.265625 C 220.179688 209.007812 219.949219 208.722656 219.746094 208.417969 C 219.542969 208.113281 219.371094 207.792969 219.230469 207.453125 C 219.089844 207.113281 218.980469 206.765625 218.910156 206.40625 C 218.839844 206.042969 218.804688 205.679688 218.804688 205.316406 Z M 321.921875 100.789062 C 321.660156 100.53125 321.378906 100.296875 321.074219 100.09375 C 320.769531 99.890625 320.445312 99.71875 320.105469 99.578125 C 319.769531 99.4375 319.417969 99.328125 319.058594 99.257812 C 318.699219 99.1875 318.335938 99.152344 317.96875 99.152344 C 317.601562 99.152344 317.238281 99.1875 316.875 99.257812 C 316.515625 99.328125 316.167969 99.4375 315.828125 99.578125 C 315.488281 99.71875 315.167969 99.890625 314.863281 100.09375 C 314.554688 100.296875 314.273438 100.53125 314.015625 100.789062 L 276.992188 137.8125 L 276.992188 152.714844 L 291.894531 152.714844 L 328.917969 115.691406 C 329.175781 115.429688 329.40625 115.148438 329.613281 114.84375 C 329.816406 114.539062 329.988281 114.214844 330.128906 113.878906 C 330.269531 113.539062 330.375 113.1875 330.449219 112.828125 C 330.519531 112.46875 330.554688 112.105469 330.554688 111.738281 C 330.554688 111.371094 330.519531 111.007812 330.449219 110.648438 C 330.375 110.285156 330.269531 109.9375 330.128906 109.597656 C 329.988281 109.257812 329.816406 108.9375 329.613281 108.632812 C 329.40625 108.328125 329.175781 108.042969 328.917969 107.785156 Z M 321.921875 100.789062 " fill-opacity="1" fill-rule="nonzero"/></g><g clip-path="url(#8892896e75)"><path fill="#ede8f5" d="M 248.148438 186.308594 L 248.148438 152.359375 C 248.148438 149.515625 251.230469 147.734375 253.695312 149.160156 L 283.09375 166.132812 C 285.558594 167.554688 285.558594 171.113281 283.09375 172.535156 L 253.695312 189.511719 C 251.230469 190.933594 248.148438 189.15625 248.148438 186.308594 " fill-opacity="1" fill-rule="nonzero"/></g><g clip-path="url(#4fb69c9bdd)"><path fill="#2d2c38" d="M 247.90625 142.429688 C 247.4375 142.429688 246.96875 142.554688 246.542969 142.800781 C 245.6875 143.292969 245.179688 144.175781 245.179688 145.160156 L 245.179688 179.109375 C 245.179688 180.097656 245.6875 180.976562 246.542969 181.472656 C 247.394531 181.964844 248.414062 181.964844 249.269531 181.472656 L 278.671875 164.496094 C 279.523438 164.003906 280.03125 163.121094 280.03125 162.136719 C 280.03125 161.152344 279.523438 160.269531 278.671875 159.773438 L 249.269531 142.800781 C 248.839844 142.554688 248.375 142.429688 247.90625 142.429688 Z M 247.90625 183.789062 C 247.105469 183.789062 246.300781 183.578125 245.570312 183.15625 C 244.109375 182.308594 243.234375 180.800781 243.234375 179.109375 L 243.234375 145.160156 C 243.234375 143.472656 244.109375 141.960938 245.570312 141.117188 C 247.03125 140.273438 248.777344 140.273438 250.242188 141.117188 L 279.640625 158.09375 C 281.101562 158.933594 281.976562 160.449219 281.976562 162.136719 C 281.976562 163.824219 281.101562 165.335938 279.640625 166.179688 L 250.242188 183.15625 C 249.507812 183.578125 248.707031 183.789062 247.90625 183.789062 " fill-opacity="1" fill-rule="nonzero"/></g></svg>