<svg xmlns="http://www.w3.org/2000/svg" xmlns:xlink="http://www.w3.org/1999/xlink" width="500" zoomAndPan="magnify" viewBox="0 0 375 374.999991" height="500" preserveAspectRatio="xMidYMid meet" version="1.0"><defs><filter x="0%" y="0%" width="100%" height="100%" id="5cdde0c7ef"><feColorMatrix values="0 0 0 0 1 0 0 0 0 1 0 0 0 0 1 0 0 0 1 0" color-interpolation-filters="sRGB"/></filter><clipPath id="c4e744da44"><path d="M 12.324219 25.550781 L 374.574219 25.550781 L 374.574219 337.550781 L 12.324219 337.550781 Z M 12.324219 25.550781 " clip-rule="nonzero"/></clipPath><clipPath id="d13a13d881"><path d="M 118.425781 197.21875 L 268.425781 197.21875 L 268.425781 347.21875 L 118.425781 347.21875 Z M 118.425781 197.21875 " clip-rule="nonzero"/></clipPath><clipPath id="2d73d66889"><path d="M 151 197.21875 L 268.425781 197.21875 L 268.425781 347.21875 L 151 347.21875 Z M 151 197.21875 " clip-rule="nonzero"/></clipPath><mask id="2acbf2954e"><g filter="url(#5cdde0c7ef)"><rect x="-37.5" width="450" fill="#000000" y="-37.499999" height="449.999989" fill-opacity="0.1"/></g></mask><clipPath id="e4ae993fa3"><path d="M 1 0.21875 L 117.425781 0.21875 L 117.425781 150.21875 L 1 150.21875 Z M 1 0.21875 " clip-rule="nonzero"/></clipPath><clipPath id="3e70ee209a"><rect x="0" width="118" y="0" height="151"/></clipPath><clipPath id="274e108dd8"><path d="M 61.003906 111.625 L 136.753906 111.625 L 136.753906 187.375 L 61.003906 187.375 Z M 61.003906 111.625 " clip-rule="nonzero"/></clipPath><clipPath id="16986aa0e2"><path d="M 12.796875 197.265625 L 87.796875 197.265625 L 87.796875 272.265625 L 12.796875 272.265625 Z M 12.796875 197.265625 " clip-rule="nonzero"/></clipPath><clipPath id="5e23b73142"><path d="M 249.855469 112.5 L 324.855469 112.5 L 324.855469 187.5 L 249.855469 187.5 Z M 249.855469 112.5 " clip-rule="nonzero"/></clipPath><clipPath id="3e995ce854"><path d="M 287.25 197.21875 L 362.25 197.21875 L 362.25 272.21875 L 287.25 272.21875 Z M 287.25 197.21875 " clip-rule="nonzero"/></clipPath><clipPath id="778f2c4b92"><path d="M 154.992188 87.089844 L 231.492188 87.089844 L 231.492188 163.589844 L 154.992188 163.589844 Z M 154.992188 87.089844 " clip-rule="nonzero"/></clipPath><clipPath id="ad75912147"><path d="M 17.746094 111.625 L 57.496094 111.625 L 57.496094 158.125 L 17.746094 158.125 Z M 17.746094 111.625 " clip-rule="nonzero"/></clipPath><clipPath id="fcbf54d9d0"><path d="M 239.425781 92.617188 L 258.175781 92.617188 L 258.175781 114.367188 L 239.425781 114.367188 Z M 239.425781 92.617188 " clip-rule="nonzero"/></clipPath><clipPath id="8a87cd34cd"><path d="M 222.519531 25.550781 L 248.769531 25.550781 L 248.769531 56.300781 L 222.519531 56.300781 Z M 222.519531 25.550781 " clip-rule="nonzero"/></clipPath><clipPath id="2367e4123a"><path d="M 105.304688 56.289062 L 131.554688 56.289062 L 131.554688 87.039062 L 105.304688 87.039062 Z M 105.304688 56.289062 " clip-rule="nonzero"/></clipPath><clipPath id="0e066a266c"><path d="M 328.605469 94.785156 L 362.355469 94.785156 L 362.355469 134.535156 L 328.605469 134.535156 Z M 328.605469 94.785156 " clip-rule="nonzero"/></clipPath></defs><rect x="-37.5" width="450" fill="#ffffff" y="-37.499999" height="449.999989" fill-opacity="1"/><rect x="-37.5" width="450" fill="#f6f5f4" y="-37.499999" height="449.999989" fill-opacity="1"/><g clip-path="url(#c4e744da44)"><path fill="#ede8f5" d="M 254.398438 154.070312 C 257.535156 153.835938 265.152344 151.441406 264.449219 156.8125 C 264.035156 158.289062 262.660156 159.261719 261.46875 160.078125 C 253.839844 165.257812 246.183594 170.375 238.296875 175.152344 C 242.742188 181.125 247.273438 187.039062 251.5625 193.132812 C 252.429688 194.671875 254.476562 196.3125 253.503906 198.234375 C 252.921875 199.269531 251.664062 199.582031 250.589844 199.191406 C 242.910156 194.984375 234.453125 192.753906 226.539062 189.039062 C 225.5 195.488281 222.578125 201.820312 220.429688 207.84375 C 219.105469 210.640625 218.78125 218.007812 214.742188 217.558594 C 213.71875 217.324219 213.152344 216.328125 212.902344 215.417969 C 210.542969 207.636719 208.875 199.550781 208.199219 191.457031 C 202.242188 194.953125 195.46875 196.648438 188.917969 198.660156 C 186.832031 199.28125 183.128906 200.449219 182.46875 197.441406 C 182.308594 196.328125 182.96875 195.449219 183.476562 194.851562 C 188.488281 189.53125 193.34375 184.035156 198.605469 178.945312 C 193.488281 176.214844 188.699219 172.976562 183.75 169.933594 C 181.976562 168.300781 178.660156 167.394531 178.390625 164.699219 C 178.363281 162.371094 181.082031 161.59375 182.910156 161.179688 C 189.578125 159.558594 196.570312 160.671875 203.230469 158.988281 C 201.390625 153.390625 200.316406 147.601562 198.738281 141.929688 C 198.023438 139.820312 197.765625 135.546875 201.183594 136.566406 C 206.351562 140.671875 210.871094 145.945312 215.511719 150.734375 C 220.949219 143.777344 227.28125 137.539062 233.203125 131.019531 C 242.15625 127.847656 232.84375 153.492188 232.089844 157.367188 C 239.433594 155.667969 246.957031 155.191406 254.40625 154.066406 Z M 223.417969 29.570312 C 223.902344 29.535156 225.074219 29.164062 224.964844 29.992188 C 224.902344 30.214844 224.691406 30.367188 224.507812 30.492188 C 223.332031 31.292969 222.152344 32.078125 220.9375 32.816406 C 221.625 33.734375 222.320312 34.644531 222.980469 35.582031 C 223.113281 35.820312 223.429688 36.074219 223.277344 36.367188 C 223.1875 36.523438 222.996094 36.574219 222.832031 36.515625 C 221.648438 35.867188 220.347656 35.527344 219.128906 34.953125 C 218.96875 35.945312 218.515625 36.921875 218.183594 37.847656 C 217.980469 38.28125 217.933594 39.414062 217.3125 39.34375 C 217.15625 39.308594 217.066406 39.152344 217.027344 39.015625 C 216.664062 37.816406 216.40625 36.574219 216.308594 35.324219 C 215.390625 35.863281 214.34375 36.125 213.335938 36.433594 C 213.015625 36.535156 212.445312 36.707031 212.339844 36.246094 C 212.320312 36.078125 212.417969 35.945312 212.5 35.851562 C 213.269531 35.03125 214.019531 34.1875 214.828125 33.402344 C 214.039062 32.984375 213.304688 32.484375 212.539062 32.015625 C 212.265625 31.761719 211.757812 31.628906 211.714844 31.210938 C 211.714844 30.847656 212.132812 30.730469 212.414062 30.667969 C 213.441406 30.417969 214.515625 30.585938 215.539062 30.328125 C 215.257812 29.46875 215.09375 28.578125 214.851562 27.703125 C 214.742188 27.382812 214.699219 26.722656 215.226562 26.878906 C 216.023438 27.511719 216.71875 28.324219 217.433594 29.058594 C 218.269531 27.992188 219.246094 27.027344 220.15625 26.027344 C 221.53125 25.535156 220.101562 29.484375 219.984375 30.082031 C 221.113281 29.820312 222.273438 29.746094 223.421875 29.574219 Z M 371.492188 96.238281 C 371.976562 96.203125 373.148438 95.832031 373.039062 96.660156 C 372.980469 96.886719 372.765625 97.035156 372.582031 97.164062 C 371.40625 97.960938 370.226562 98.746094 369.011719 99.484375 C 369.699219 100.402344 370.394531 101.316406 371.054688 102.253906 C 371.191406 102.492188 371.507812 102.746094 371.355469 103.039062 C 371.265625 103.195312 371.070312 103.246094 370.90625 103.1875 C 369.726562 102.539062 368.421875 102.199219 367.207031 101.625 C 367.042969 102.617188 366.59375 103.59375 366.261719 104.519531 C 366.058594 104.949219 366.011719 106.085938 365.386719 106.015625 C 365.230469 105.980469 365.144531 105.828125 365.105469 105.6875 C 364.742188 104.492188 364.484375 103.246094 364.382812 101.996094 C 363.464844 102.535156 362.421875 102.796875 361.414062 103.105469 C 361.089844 103.203125 360.519531 103.378906 360.417969 102.917969 C 360.394531 102.75 360.496094 102.613281 360.574219 102.523438 C 361.34375 101.703125 362.097656 100.859375 362.90625 100.070312 C 362.117188 99.648438 361.378906 99.152344 360.617188 98.683594 C 360.34375 98.433594 359.835938 98.292969 359.792969 97.882812 C 359.789062 97.515625 360.207031 97.398438 360.488281 97.335938 C 361.515625 97.085938 362.59375 97.257812 363.617188 97 C 363.332031 96.136719 363.167969 95.246094 362.925781 94.371094 C 362.816406 94.046875 362.777344 93.390625 363.304688 93.546875 C 364.101562 94.179688 364.796875 94.988281 365.511719 95.730469 C 366.34375 94.65625 367.320312 93.691406 368.234375 92.695312 C 369.609375 92.203125 368.179688 96.152344 368.058594 96.746094 C 369.191406 96.484375 370.351562 96.410156 371.496094 96.242188 Z M 28.871094 117.070312 C 29.351562 117.035156 30.523438 116.667969 30.414062 117.496094 C 30.355469 117.722656 30.140625 117.875 29.957031 117.996094 C 28.78125 118.796875 27.601562 119.582031 26.390625 120.320312 C 27.074219 121.238281 27.769531 122.152344 28.429688 123.085938 C 28.5625 123.324219 28.882812 123.578125 28.730469 123.871094 C 28.640625 124.03125 28.445312 124.078125 28.28125 124.019531 C 27.101562 123.375 25.800781 123.03125 24.582031 122.457031 C 24.421875 123.449219 23.96875 124.425781 23.636719 125.355469 C 23.433594 125.78125 23.386719 126.917969 22.765625 126.847656 C 22.605469 126.8125 22.519531 126.65625 22.480469 126.519531 C 22.117188 125.324219 21.859375 124.078125 21.757812 122.828125 C 20.839844 123.367188 19.796875 123.628906 18.789062 123.9375 C 18.464844 124.035156 17.894531 124.210938 17.792969 123.75 C 17.769531 123.582031 17.871094 123.445312 17.949219 123.355469 C 18.722656 122.535156 19.472656 121.6875 20.28125 120.90625 C 19.492188 120.484375 18.757812 119.988281 17.992188 119.515625 C 17.71875 119.265625 17.210938 119.128906 17.167969 118.710938 C 17.164062 118.351562 17.582031 118.230469 17.863281 118.171875 C 18.890625 117.917969 19.96875 118.089844 20.992188 117.835938 C 20.707031 116.972656 20.542969 116.078125 20.304688 115.207031 C 20.191406 114.882812 20.152344 114.222656 20.679688 114.382812 C 21.476562 115.015625 22.171875 115.824219 22.886719 116.5625 C 23.722656 115.492188 24.699219 114.53125 25.609375 113.527344 C 26.984375 113.039062 25.554688 116.988281 25.433594 117.585938 C 26.566406 117.320312 27.726562 117.25 28.871094 117.074219 Z M 107.394531 321.875 C 107.875 321.839844 109.050781 321.46875 108.941406 322.296875 C 108.878906 322.523438 108.667969 322.675781 108.480469 322.800781 C 107.304688 323.59375 106.128906 324.382812 104.914062 325.121094 C 105.597656 326.039062 106.296875 326.949219 106.957031 327.886719 C 107.089844 328.125 107.40625 328.378906 107.253906 328.675781 C 107.164062 328.832031 106.972656 328.882812 106.808594 328.820312 C 105.625 328.171875 104.324219 327.832031 103.105469 327.257812 C 102.945312 328.253906 102.492188 329.226562 102.160156 330.15625 C 101.957031 330.582031 101.910156 331.71875 101.289062 331.648438 C 101.128906 331.613281 101.042969 331.460938 101.003906 331.320312 C 100.640625 330.121094 100.382812 328.882812 100.28125 327.632812 C 99.363281 328.171875 98.320312 328.429688 97.3125 328.742188 C 96.988281 328.835938 96.421875 329.015625 96.316406 328.554688 C 96.292969 328.382812 96.394531 328.246094 96.476562 328.15625 C 97.246094 327.339844 97.996094 326.492188 98.804688 325.710938 C 98.015625 325.289062 97.28125 324.792969 96.515625 324.320312 C 96.242188 324.070312 95.734375 323.933594 95.691406 323.515625 C 95.6875 323.15625 96.109375 323.035156 96.386719 322.972656 C 97.417969 322.722656 98.492188 322.894531 99.515625 322.636719 C 99.234375 321.777344 99.070312 320.882812 98.828125 320.011719 C 98.71875 319.683594 98.675781 319.03125 99.203125 319.1875 C 100 319.816406 100.695312 320.628906 101.410156 321.367188 C 102.246094 320.292969 103.222656 319.332031 104.132812 318.332031 C 105.507812 317.84375 104.078125 321.792969 103.960938 322.386719 C 105.089844 322.125 106.25 322.050781 107.398438 321.878906 Z M 230.46875 327.644531 C 230.953125 327.609375 232.125 327.238281 232.015625 328.066406 C 231.953125 328.292969 231.742188 328.445312 231.558594 328.570312 C 230.382812 329.367188 229.203125 330.15625 227.988281 330.890625 C 228.675781 331.808594 229.371094 332.71875 230.03125 333.65625 C 230.167969 333.894531 230.484375 334.148438 230.332031 334.445312 C 230.242188 334.601562 230.046875 334.652344 229.882812 334.589844 C 228.699219 333.941406 227.398438 333.601562 226.179688 333.027344 C 226.019531 334.019531 225.570312 334.996094 225.238281 335.925781 C 225.035156 336.351562 224.984375 337.488281 224.363281 337.417969 C 224.207031 337.382812 224.121094 337.230469 224.082031 337.089844 C 223.71875 335.890625 223.457031 334.652344 223.359375 333.402344 C 222.441406 333.945312 221.398438 334.199219 220.386719 334.511719 C 220.066406 334.609375 219.496094 334.785156 219.394531 334.324219 C 219.371094 334.152344 219.46875 334.019531 219.550781 333.925781 C 220.320312 333.109375 221.070312 332.261719 221.878906 331.480469 C 221.089844 331.058594 220.355469 330.5625 219.59375 330.089844 C 219.320312 329.839844 218.808594 329.699219 218.769531 329.285156 C 218.765625 328.925781 219.183594 328.804688 219.464844 328.742188 C 220.492188 328.492188 221.566406 328.664062 222.59375 328.40625 C 222.308594 327.546875 222.144531 326.652344 221.902344 325.78125 C 221.792969 325.453125 221.75 324.800781 222.28125 324.957031 C 223.074219 325.585938 223.773438 326.398438 224.488281 327.136719 C 225.320312 326.0625 226.296875 325.105469 227.210938 324.101562 C 228.585938 323.613281 227.15625 327.5625 227.035156 328.15625 C 228.167969 327.898438 229.324219 327.824219 230.472656 327.648438 Z M 372.320312 210.097656 C 372.945312 210.050781 374.453125 209.574219 374.316406 210.640625 C 374.234375 210.933594 373.960938 211.132812 373.726562 211.289062 C 372.210938 212.316406 370.691406 213.335938 369.125 214.28125 C 370.007812 215.46875 370.90625 216.644531 371.761719 217.851562 C 371.933594 218.15625 372.339844 218.484375 372.148438 218.867188 C 372.03125 219.074219 371.785156 219.132812 371.570312 219.058594 C 370.046875 218.222656 368.367188 217.78125 366.796875 217.042969 C 366.589844 218.324219 366.007812 219.582031 365.582031 220.78125 C 365.320312 221.332031 365.257812 222.796875 364.453125 222.710938 C 364.253906 222.660156 364.140625 222.464844 364.085938 222.285156 C 363.621094 220.742188 363.289062 219.132812 363.15625 217.527344 C 361.96875 218.222656 360.628906 218.558594 359.324219 218.957031 C 358.910156 219.082031 358.175781 219.3125 358.042969 218.714844 C 358.011719 218.492188 358.144531 218.320312 358.246094 218.203125 C 359.242188 217.144531 360.207031 216.054688 361.25 215.042969 C 360.234375 214.5 359.28125 213.855469 358.296875 213.253906 C 357.945312 212.933594 357.289062 212.753906 357.234375 212.21875 C 357.230469 211.753906 357.769531 211.597656 358.132812 211.519531 C 359.460938 211.195312 360.847656 211.417969 362.171875 211.082031 C 361.808594 209.972656 361.59375 208.820312 361.277344 207.695312 C 361.136719 207.277344 361.085938 206.425781 361.765625 206.628906 C 362.789062 207.445312 363.6875 208.492188 364.609375 209.445312 C 365.6875 208.066406 366.949219 206.824219 368.125 205.53125 C 369.898438 204.902344 368.050781 209.996094 367.902344 210.765625 C 369.359375 210.425781 370.855469 210.332031 372.335938 210.109375 Z M 276.167969 79.332031 C 276.789062 79.285156 278.300781 78.804688 278.164062 79.875 C 278.082031 80.164062 277.808594 80.359375 277.570312 80.519531 C 276.054688 81.546875 274.535156 82.566406 272.96875 83.515625 C 273.851562 84.703125 274.75 85.878906 275.605469 87.085938 C 275.777344 87.390625 276.183594 87.71875 275.992188 88.101562 C 275.875 88.304688 275.628906 88.367188 275.414062 88.289062 C 273.890625 87.457031 272.210938 87.015625 270.640625 86.273438 C 270.433594 87.554688 269.851562 88.8125 269.425781 90.007812 C 269.164062 90.5625 269.101562 92.027344 268.300781 91.9375 C 268.09375 91.886719 267.984375 91.691406 267.929688 91.511719 C 267.464844 89.96875 267.132812 88.359375 267 86.757812 C 265.816406 87.449219 264.472656 87.785156 263.171875 88.1875 C 262.753906 88.308594 262.019531 88.539062 261.886719 87.941406 C 261.855469 87.71875 261.988281 87.546875 262.089844 87.429688 C 263.085938 86.375 264.050781 85.28125 265.09375 84.269531 C 264.078125 83.726562 263.125 83.085938 262.144531 82.480469 C 261.792969 82.160156 261.132812 81.980469 261.078125 81.445312 C 261.074219 80.980469 261.613281 80.828125 261.976562 80.746094 C 263.304688 80.421875 264.691406 80.640625 266.015625 80.308594 C 265.652344 79.203125 265.4375 78.046875 265.121094 76.921875 C 264.980469 76.503906 264.929688 75.65625 265.609375 75.859375 C 266.632812 76.671875 267.53125 77.71875 268.453125 78.675781 C 269.53125 77.292969 270.792969 76.050781 271.96875 74.757812 C 273.742188 74.128906 271.894531 79.222656 271.746094 79.992188 C 273.207031 79.652344 274.699219 79.558594 276.179688 79.335938 Z M 307.941406 278.738281 C 309 278.65625 311.578125 277.84375 311.339844 279.664062 C 311.199219 280.164062 310.734375 280.496094 310.335938 280.769531 C 307.75 282.523438 305.164062 284.253906 302.492188 285.871094 C 303.996094 287.886719 305.53125 289.890625 306.980469 291.949219 C 307.273438 292.46875 307.96875 293.027344 307.636719 293.675781 C 307.441406 294.027344 307.015625 294.128906 306.65625 294 C 304.054688 292.574219 301.195312 291.824219 298.515625 290.5625 C 298.167969 292.746094 297.171875 294.886719 296.445312 296.929688 C 296 297.871094 295.890625 300.363281 294.523438 300.210938 C 294.175781 300.132812 293.988281 299.796875 293.898438 299.492188 C 293.105469 296.859375 292.539062 294.125 292.3125 291.382812 C 290.296875 292.566406 288.003906 293.140625 285.789062 293.820312 C 285.082031 294.03125 283.828125 294.421875 283.605469 293.40625 C 283.554688 293.027344 283.78125 292.730469 283.949219 292.527344 C 285.644531 290.730469 287.289062 288.871094 289.0625 287.144531 C 287.335938 286.21875 285.714844 285.128906 284.039062 284.097656 C 283.441406 283.546875 282.316406 283.238281 282.226562 282.328125 C 282.214844 281.539062 283.136719 281.273438 283.753906 281.136719 C 286.011719 280.589844 288.378906 280.964844 290.628906 280.394531 C 290.007812 278.503906 289.644531 276.546875 289.109375 274.628906 C 288.867188 273.917969 288.78125 272.46875 289.9375 272.816406 C 291.6875 274.203125 293.214844 275.984375 294.78125 277.609375 C 296.617188 275.257812 298.765625 273.144531 300.769531 270.941406 C 303.792969 269.867188 300.644531 278.535156 300.386719 279.851562 C 302.875 279.273438 305.421875 279.113281 307.941406 278.734375 Z M 38.074219 236.433594 C 39.132812 236.351562 41.710938 235.542969 41.472656 237.359375 C 41.332031 237.859375 40.867188 238.191406 40.46875 238.464844 C 37.882812 240.21875 35.296875 241.949219 32.625 243.566406 C 34.128906 245.582031 35.664062 247.585938 37.113281 249.644531 C 37.40625 250.167969 38.101562 250.722656 37.769531 251.371094 C 37.574219 251.722656 37.148438 251.828125 36.789062 251.695312 C 34.1875 250.269531 31.328125 249.515625 28.648438 248.261719 C 28.300781 250.445312 27.308594 252.585938 26.578125 254.621094 C 26.132812 255.566406 26.023438 258.0625 24.660156 257.910156 C 24.3125 257.828125 24.121094 257.492188 24.035156 257.1875 C 23.238281 254.558594 22.671875 251.820312 22.445312 249.078125 C 20.429688 250.265625 18.136719 250.835938 15.921875 251.515625 C 15.214844 251.730469 13.960938 252.121094 13.738281 251.105469 C 13.6875 250.726562 13.914062 250.433594 14.082031 250.230469 C 15.777344 248.429688 17.421875 246.574219 19.195312 244.84375 C 17.46875 243.921875 15.847656 242.828125 14.171875 241.800781 C 13.574219 241.25 12.453125 240.941406 12.359375 240.027344 C 12.351562 239.238281 13.273438 238.976562 13.890625 238.835938 C 16.148438 238.289062 18.515625 238.664062 20.765625 238.097656 C 20.144531 236.203125 19.78125 234.242188 19.246094 232.324219 C 19.003906 231.613281 18.917969 230.164062 20.074219 230.511719 C 21.824219 231.902344 23.351562 233.683594 24.917969 235.304688 C 26.753906 232.949219 28.902344 230.835938 30.90625 228.636719 C 33.929688 227.566406 30.777344 236.238281 30.523438 237.546875 C 33.011719 236.972656 35.554688 236.8125 38.074219 236.429688 Z M 87.710938 265.226562 C 88.332031 265.179688 89.84375 264.703125 89.703125 265.769531 C 89.625 266.0625 89.351562 266.257812 89.109375 266.421875 C 87.597656 267.449219 86.078125 268.464844 84.511719 269.414062 C 85.394531 270.597656 86.292969 271.773438 87.144531 272.980469 C 87.320312 273.285156 87.726562 273.613281 87.53125 273.996094 C 87.417969 274.203125 87.167969 274.261719 86.957031 274.183594 C 85.433594 273.351562 83.75 272.910156 82.183594 272.167969 C 81.976562 273.449219 81.390625 274.707031 80.96875 275.902344 C 80.707031 276.457031 80.640625 277.917969 79.839844 277.828125 C 79.636719 277.785156 79.523438 277.582031 79.472656 277.402344 C 79.003906 275.859375 78.671875 274.253906 78.539062 272.648438 C 77.355469 273.34375 76.011719 273.679688 74.710938 274.082031 C 74.296875 274.203125 73.558594 274.433594 73.429688 273.835938 C 73.394531 273.613281 73.527344 273.441406 73.632812 273.324219 C 74.625 272.269531 75.589844 271.175781 76.632812 270.167969 C 75.617188 269.625 74.664062 268.980469 73.683594 268.375 C 73.332031 268.054688 72.675781 267.875 72.621094 267.339844 C 72.613281 266.875 73.15625 266.71875 73.519531 266.636719 C 74.847656 266.316406 76.230469 266.535156 77.554688 266.203125 C 77.191406 265.09375 76.980469 263.941406 76.664062 262.816406 C 76.519531 262.398438 76.46875 261.550781 77.148438 261.753906 C 78.175781 262.566406 79.074219 263.613281 79.996094 264.570312 C 81.074219 263.1875 82.332031 261.945312 83.507812 260.65625 C 85.285156 260.023438 83.433594 265.117188 83.285156 265.886719 C 84.746094 265.550781 86.242188 265.453125 87.71875 265.234375 Z M 325.8125 153.179688 C 327.140625 153.082031 330.371094 152.0625 330.078125 154.347656 C 329.898438 154.972656 329.320312 155.382812 328.8125 155.730469 C 325.574219 157.933594 322.328125 160.101562 318.980469 162.132812 C 320.867188 164.664062 322.789062 167.175781 324.609375 169.757812 C 324.976562 170.414062 325.847656 171.109375 325.433594 171.925781 C 325.1875 172.363281 324.652344 172.496094 324.195312 172.332031 C 320.941406 170.546875 317.351562 169.601562 313.992188 168.023438 C 313.550781 170.761719 312.308594 173.449219 311.398438 176.003906 C 310.835938 177.1875 310.699219 180.316406 308.984375 180.121094 C 308.550781 180.023438 308.3125 179.605469 308.203125 179.21875 C 307.207031 175.914062 306.496094 172.484375 306.210938 169.050781 C 303.683594 170.535156 300.808594 171.257812 298.03125 172.105469 C 297.144531 172.371094 295.574219 172.867188 295.292969 171.589844 C 295.222656 171.113281 295.503906 170.746094 295.71875 170.488281 C 297.847656 168.234375 299.910156 165.902344 302.136719 163.742188 C 299.964844 162.582031 297.933594 161.207031 295.835938 159.917969 C 295.085938 159.222656 293.679688 158.839844 293.5625 157.699219 C 293.550781 156.707031 294.707031 156.378906 295.480469 156.203125 C 298.3125 155.515625 301.277344 155.988281 304.105469 155.273438 C 303.328125 152.902344 302.871094 150.445312 302.199219 148.039062 C 301.894531 147.144531 301.785156 145.332031 303.238281 145.765625 C 305.425781 147.507812 307.34375 149.742188 309.316406 151.777344 C 311.621094 148.824219 314.308594 146.175781 316.820312 143.414062 C 320.617188 142.066406 316.664062 152.949219 316.347656 154.59375 C 319.464844 153.871094 322.65625 153.667969 325.816406 153.191406 Z M 57.578125 174.84375 C 58.199219 174.796875 59.710938 174.320312 59.570312 175.386719 C 59.492188 175.679688 59.21875 175.875 58.980469 176.035156 C 57.46875 177.0625 55.949219 178.082031 54.382812 179.027344 C 55.265625 180.214844 56.164062 181.390625 57.015625 182.597656 C 57.191406 182.902344 57.597656 183.230469 57.402344 183.613281 C 57.289062 183.820312 57.039062 183.878906 56.828125 183.804688 C 55.304688 182.96875 53.621094 182.527344 52.054688 181.789062 C 51.847656 183.070312 51.261719 184.328125 50.839844 185.523438 C 50.578125 186.078125 50.511719 187.539062 49.710938 187.453125 C 49.507812 187.40625 49.394531 187.207031 49.34375 187.027344 C 48.875 185.484375 48.542969 183.875 48.410156 182.269531 C 47.226562 182.964844 45.882812 183.300781 44.582031 183.699219 C 44.167969 183.824219 43.429688 184.054688 43.300781 183.457031 C 43.265625 183.234375 43.398438 183.0625 43.503906 182.945312 C 44.496094 181.886719 45.460938 180.796875 46.503906 179.785156 C 45.488281 179.242188 44.535156 178.597656 43.554688 177.996094 C 43.203125 177.671875 42.546875 177.492188 42.492188 176.957031 C 42.484375 176.492188 43.027344 176.335938 43.390625 176.257812 C 44.71875 175.933594 46.101562 176.15625 47.425781 175.820312 C 47.0625 174.710938 46.851562 173.5625 46.535156 172.433594 C 46.390625 172.015625 46.339844 171.167969 47.019531 171.371094 C 48.046875 172.183594 48.945312 173.230469 49.867188 174.1875 C 50.945312 172.808594 52.203125 171.5625 53.378906 170.273438 C 55.15625 169.640625 53.304688 174.734375 53.15625 175.503906 C 54.617188 175.164062 56.113281 175.070312 57.589844 174.851562 Z M 120.042969 66.003906 C 121.371094 65.902344 124.605469 64.882812 124.308594 67.167969 C 124.128906 67.792969 123.550781 68.207031 123.042969 68.550781 C 119.808594 70.75 116.558594 72.917969 113.210938 74.949219 C 115.097656 77.480469 117.019531 79.992188 118.839844 82.578125 C 119.207031 83.230469 120.078125 83.925781 119.664062 84.738281 C 119.421875 85.179688 118.886719 85.308594 118.429688 85.144531 C 115.171875 83.359375 111.578125 82.414062 108.222656 80.839844 C 107.78125 83.574219 106.539062 86.261719 105.628906 88.816406 C 105.066406 90.003906 104.929688 93.132812 103.214844 92.941406 C 102.78125 92.84375 102.542969 92.421875 102.4375 92.035156 C 101.4375 88.730469 100.726562 85.300781 100.441406 81.867188 C 97.914062 83.351562 95.039062 84.070312 92.261719 84.921875 C 91.375 85.1875 89.804688 85.679688 89.523438 84.40625 C 89.457031 83.933594 89.734375 83.5625 89.953125 83.304688 C 92.078125 81.046875 94.136719 78.71875 96.367188 76.558594 C 94.199219 75.398438 92.164062 74.027344 90.066406 72.734375 C 89.316406 72.039062 87.910156 71.652344 87.792969 70.511719 C 87.78125 69.523438 88.9375 69.191406 89.714844 69.019531 C 92.542969 68.332031 95.507812 68.804688 98.335938 68.089844 C 97.558594 65.71875 97.101562 63.261719 96.429688 60.855469 C 96.128906 59.960938 96.019531 58.148438 97.46875 58.582031 C 99.660156 60.324219 101.574219 62.558594 103.546875 64.597656 C 105.855469 61.644531 108.539062 58.992188 111.050781 56.234375 C 114.847656 54.882812 110.894531 65.765625 110.578125 67.410156 C 113.695312 66.6875 116.886719 66.484375 120.046875 66.007812 Z M 181.9375 87.023438 C 182.558594 86.976562 184.070312 86.503906 183.929688 87.566406 C 183.851562 87.859375 183.574219 88.050781 183.339844 88.210938 C 181.828125 89.242188 180.304688 90.257812 178.742188 91.207031 C 179.625 92.390625 180.523438 93.566406 181.375 94.773438 C 181.550781 95.082031 181.957031 95.410156 181.761719 95.789062 C 181.648438 95.996094 181.398438 96.058594 181.1875 95.980469 C 179.660156 95.144531 177.980469 94.703125 176.410156 93.964844 C 176.203125 95.246094 175.621094 96.5 175.195312 97.695312 C 174.9375 98.25 174.871094 99.71875 174.070312 99.628906 C 173.867188 99.582031 173.753906 99.382812 173.703125 99.203125 C 173.234375 97.660156 172.902344 96.050781 172.769531 94.445312 C 171.585938 95.140625 170.242188 95.472656 168.941406 95.875 C 168.523438 96 167.789062 96.226562 167.65625 95.632812 C 167.625 95.410156 167.757812 95.234375 167.859375 95.121094 C 168.855469 94.0625 169.820312 92.972656 170.863281 91.960938 C 169.847656 91.417969 168.894531 90.773438 167.914062 90.171875 C 167.5625 89.851562 166.90625 89.667969 166.851562 89.132812 C 166.84375 88.671875 167.382812 88.515625 167.75 88.433594 C 169.074219 88.117188 170.460938 88.335938 171.785156 88 C 171.421875 86.890625 171.207031 85.738281 170.894531 84.609375 C 170.75 84.191406 170.699219 83.34375 171.378906 83.546875 C 172.402344 84.363281 173.300781 85.410156 174.222656 86.363281 C 175.304688 84.984375 176.5625 83.742188 177.738281 82.449219 C 179.511719 81.816406 177.664062 86.914062 177.515625 87.683594 C 178.976562 87.34375 180.46875 87.25 181.949219 87.027344 Z M 281.9375 233.816406 C 282.558594 233.773438 284.070312 233.296875 283.929688 234.363281 C 283.847656 234.65625 283.574219 234.851562 283.339844 235.011719 C 281.828125 236.039062 280.304688 237.054688 278.738281 238.007812 C 279.621094 239.191406 280.523438 240.367188 281.375 241.574219 C 281.550781 241.882812 281.957031 242.210938 281.761719 242.589844 C 281.644531 242.796875 281.398438 242.859375 281.1875 242.78125 C 279.660156 241.945312 277.980469 241.503906 276.410156 240.765625 C 276.203125 242.046875 275.621094 243.300781 275.195312 244.496094 C 274.9375 245.050781 274.871094 246.515625 274.070312 246.425781 C 273.867188 246.382812 273.753906 246.183594 273.703125 246.003906 C 273.234375 244.460938 272.902344 242.851562 272.769531 241.242188 C 271.585938 241.941406 270.242188 242.273438 268.941406 242.675781 C 268.523438 242.800781 267.789062 243.027344 267.65625 242.433594 C 267.625 242.210938 267.757812 242.035156 267.859375 241.921875 C 268.855469 240.863281 269.820312 239.773438 270.863281 238.761719 C 269.847656 238.21875 268.894531 237.574219 267.914062 236.972656 C 267.5625 236.648438 266.902344 236.46875 266.847656 235.933594 C 266.84375 235.46875 267.382812 235.316406 267.746094 235.234375 C 269.074219 234.914062 270.460938 235.136719 271.785156 234.800781 C 271.421875 233.6875 271.207031 232.539062 270.890625 231.410156 C 270.75 230.996094 270.699219 230.144531 271.378906 230.347656 C 272.402344 231.164062 273.300781 232.210938 274.222656 233.164062 C 275.300781 231.777344 276.5625 230.539062 277.738281 229.246094 C 279.511719 228.617188 277.664062 233.707031 277.515625 234.480469 C 278.976562 234.140625 280.46875 234.042969 281.949219 233.820312 Z M 141.632812 162.917969 C 144.648438 164.394531 167.882812 170.863281 157.628906 174.917969 C 151.609375 175.636719 145.789062 175.214844 139.933594 176.585938 C 142.742188 183.140625 144.925781 189.941406 147.675781 196.515625 C 148.152344 197.488281 148.292969 198.8125 147.324219 199.539062 C 143.246094 201.691406 133.550781 189.308594 129.644531 187.019531 C 127.125 194.539062 122.714844 201.136719 118.269531 207.617188 C 117.683594 208.414062 116.921875 209.253906 115.855469 209.230469 C 114.476562 209.261719 113.671875 207.949219 113.863281 206.675781 C 113.5 199.640625 113.148438 192.601562 113.617188 185.558594 C 107.34375 186.785156 101.222656 186.988281 94.929688 186.894531 C 93.242188 187.074219 91.765625 185.265625 92.652344 183.707031 C 97.710938 179.238281 104.464844 176.789062 110.089844 173.011719 C 105.761719 168.746094 101.257812 164.695312 96.832031 160.566406 C 93.644531 155.832031 99.570312 155.734375 102.804688 155.90625 C 108.078125 155.980469 113.378906 155.90625 118.566406 155.433594 C 119.894531 149.019531 121.539062 142.636719 123.375 136.359375 C 123.632812 135.667969 124.257812 135.269531 124.980469 135.25 C 125.921875 135.203125 126.5 136.03125 126.871094 136.765625 C 129.035156 142.617188 130.230469 148.804688 132.082031 154.765625 C 137.472656 151.394531 142.902344 147.984375 148.65625 145.289062 C 156.214844 144.542969 143.058594 160.5625 141.628906 162.921875 Z M 186.09375 254.898438 C 188.511719 255.226562 207.207031 251.355469 204.109375 256.402344 C 203.238281 257.507812 201.789062 257.816406 200.554688 258.339844 C 196.140625 260.027344 191.945312 262.179688 187.726562 264.289062 C 190.480469 268.136719 193.632812 271.664062 196.351562 275.539062 C 197.085938 276.355469 197.195312 277.75 195.875 277.972656 C 194.621094 278.003906 193.585938 277.050781 192.515625 276.484375 C 189.027344 274.53125 185.285156 273.359375 181.6875 271.691406 C 181.582031 276.375 180.171875 280.832031 179.238281 285.390625 C 178.808594 286.585938 178.886719 289.035156 177.066406 288.738281 C 176.253906 288.523438 176.027344 287.648438 175.859375 286.933594 C 174.789062 282.25 172.730469 277.808594 172.222656 272.992188 C 169.644531 274.035156 158.355469 278.925781 156.683594 276.335938 C 156.304688 275.554688 156.929688 274.863281 157.4375 274.359375 C 160.488281 271.339844 163.367188 268.148438 166.628906 265.359375 C 163.058594 263.351562 159.347656 261.632812 155.542969 260.136719 C 155.089844 259.917969 154.574219 259.605469 154.320312 259.160156 C 153.1875 255.859375 158.445312 256.320312 160.453125 256.117188 C 163.375 255.988281 166.265625 255.71875 169.164062 255.539062 C 168.464844 251.292969 167.957031 246.996094 167.632812 242.699219 C 167.503906 241.792969 167.511719 240.457031 168.65625 240.25 C 169.683594 240.109375 170.230469 241.144531 170.707031 241.867188 C 172.910156 244.992188 174.578125 248.425781 176.5625 251.683594 C 180.082031 247.714844 183.914062 243.941406 187.746094 240.339844 C 192.753906 239.179688 186.515625 252.644531 186.09375 254.898438 Z M 186.09375 254.898438 " fill-opacity="1" fill-rule="nonzero"/></g><g clip-path="url(#d13a13d881)"><path fill="#f5c2c2" d="M 262.382812 237.230469 L 237.46875 237.230469 L 242.664062 203.070312 C 242.734375 202.714844 242.761719 202.355469 242.75 201.992188 C 242.738281 201.628906 242.683594 201.273438 242.589844 200.921875 C 242.496094 200.574219 242.367188 200.238281 242.195312 199.917969 C 242.027344 199.597656 241.824219 199.300781 241.585938 199.027344 C 241.347656 198.75 241.085938 198.507812 240.792969 198.292969 C 240.5 198.082031 240.1875 197.902344 239.851562 197.757812 C 239.519531 197.617188 239.175781 197.511719 238.816406 197.449219 C 238.460938 197.386719 238.101562 197.363281 237.738281 197.378906 L 225.925781 197.378906 C 225.128906 197.402344 224.355469 197.554688 223.609375 197.84375 C 222.863281 198.132812 222.1875 198.535156 221.578125 199.058594 C 220.972656 199.578125 220.472656 200.1875 220.074219 200.878906 C 219.675781 201.574219 219.40625 202.316406 219.265625 203.101562 L 214.066406 237.230469 L 184.304688 237.230469 L 189.503906 203.070312 C 189.574219 202.714844 189.601562 202.355469 189.589844 201.992188 C 189.574219 201.628906 189.523438 201.273438 189.429688 200.921875 C 189.335938 200.574219 189.203125 200.238281 189.035156 199.917969 C 188.867188 199.597656 188.664062 199.300781 188.425781 199.027344 C 188.1875 198.75 187.921875 198.507812 187.628906 198.292969 C 187.335938 198.082031 187.023438 197.902344 186.691406 197.757812 C 186.359375 197.617188 186.011719 197.511719 185.65625 197.449219 C 185.300781 197.386719 184.941406 197.363281 184.578125 197.378906 L 172.75 197.378906 C 171.949219 197.402344 171.179688 197.558594 170.433594 197.847656 C 169.6875 198.136719 169.011719 198.539062 168.40625 199.0625 C 167.800781 199.582031 167.296875 200.1875 166.898438 200.882812 C 166.5 201.574219 166.230469 202.316406 166.085938 203.101562 L 160.90625 237.230469 L 132.324219 237.230469 C 131.945312 237.230469 131.570312 237.269531 131.195312 237.34375 C 130.824219 237.417969 130.464844 237.53125 130.113281 237.675781 C 129.761719 237.820312 129.429688 238 129.113281 238.210938 C 128.796875 238.421875 128.507812 238.660156 128.238281 238.929688 C 127.96875 239.199219 127.730469 239.492188 127.519531 239.804688 C 127.308594 240.121094 127.128906 240.453125 126.984375 240.804688 C 126.835938 241.15625 126.726562 241.515625 126.652344 241.890625 C 126.578125 242.261719 126.539062 242.636719 126.539062 243.015625 L 126.539062 254.84375 C 126.539062 255.222656 126.578125 255.601562 126.652344 255.972656 C 126.726562 256.34375 126.835938 256.707031 126.984375 257.054688 C 127.128906 257.40625 127.308594 257.738281 127.519531 258.054688 C 127.730469 258.371094 127.96875 258.664062 128.238281 258.929688 C 128.507812 259.199219 128.796875 259.441406 129.113281 259.652344 C 129.429688 259.863281 129.761719 260.039062 130.113281 260.1875 C 130.464844 260.332031 130.824219 260.441406 131.195312 260.515625 C 131.570312 260.59375 131.945312 260.628906 132.324219 260.632812 L 157.351562 260.632812 L 153.90625 283.347656 L 124.304688 283.347656 C 123.925781 283.347656 123.550781 283.386719 123.175781 283.460938 C 122.804688 283.535156 122.441406 283.644531 122.089844 283.792969 C 121.738281 283.9375 121.40625 284.117188 121.089844 284.328125 C 120.773438 284.542969 120.484375 284.78125 120.214844 285.050781 C 119.945312 285.320312 119.707031 285.613281 119.496094 285.929688 C 119.285156 286.246094 119.105469 286.582031 118.960938 286.933594 C 118.816406 287.285156 118.707031 287.644531 118.632812 288.019531 C 118.558594 288.390625 118.519531 288.769531 118.519531 289.148438 L 118.519531 300.992188 C 118.519531 301.371094 118.558594 301.75 118.632812 302.121094 C 118.707031 302.496094 118.816406 302.859375 118.960938 303.210938 C 119.105469 303.5625 119.285156 303.894531 119.496094 304.210938 C 119.707031 304.527344 119.945312 304.820312 120.214844 305.089844 C 120.484375 305.359375 120.773438 305.597656 121.089844 305.8125 C 121.40625 306.023438 121.738281 306.203125 122.089844 306.347656 C 122.441406 306.496094 122.804688 306.605469 123.175781 306.679688 C 123.550781 306.753906 123.925781 306.792969 124.304688 306.792969 L 150.304688 306.792969 L 145.078125 341.496094 C 145.003906 341.855469 144.972656 342.214844 144.984375 342.578125 C 144.996094 342.941406 145.046875 343.300781 145.136719 343.652344 C 145.230469 344.003906 145.359375 344.34375 145.53125 344.664062 C 145.699219 344.988281 145.902344 345.289062 146.140625 345.5625 C 146.378906 345.839844 146.644531 346.085938 146.9375 346.300781 C 147.230469 346.515625 147.542969 346.695312 147.878906 346.839844 C 148.214844 346.980469 148.5625 347.085938 148.917969 347.148438 C 149.277344 347.214844 149.640625 347.238281 150.003906 347.21875 L 161.8125 347.21875 C 162.613281 347.195312 163.386719 347.039062 164.132812 346.75 C 164.875 346.464844 165.550781 346.058594 166.160156 345.539062 C 166.765625 345.015625 167.265625 344.410156 167.664062 343.714844 C 168.0625 343.023438 168.332031 342.285156 168.476562 341.496094 L 173.753906 306.761719 L 203.515625 306.761719 L 198.238281 341.496094 C 198.167969 341.855469 198.136719 342.214844 198.144531 342.578125 C 198.15625 342.941406 198.207031 343.300781 198.300781 343.652344 C 198.390625 344.003906 198.523438 344.34375 198.691406 344.664062 C 198.859375 344.988281 199.0625 345.289062 199.300781 345.5625 C 199.539062 345.839844 199.804688 346.085938 200.097656 346.300781 C 200.390625 346.515625 200.707031 346.695312 201.042969 346.839844 C 201.375 346.980469 201.722656 347.085938 202.082031 347.148438 C 202.4375 347.214844 202.800781 347.238281 203.164062 347.21875 L 214.976562 347.21875 C 215.773438 347.199219 216.546875 347.042969 217.292969 346.753906 C 218.039062 346.464844 218.714844 346.0625 219.324219 345.539062 C 219.929688 345.019531 220.433594 344.414062 220.828125 343.71875 C 221.226562 343.023438 221.496094 342.285156 221.640625 341.496094 L 226.914062 306.761719 L 254.363281 306.761719 C 254.742188 306.761719 255.117188 306.722656 255.488281 306.648438 C 255.859375 306.570312 256.222656 306.460938 256.570312 306.316406 C 256.921875 306.167969 257.253906 305.992188 257.566406 305.78125 C 257.882812 305.570312 258.171875 305.332031 258.441406 305.0625 C 258.710938 304.796875 258.949219 304.507812 259.160156 304.191406 C 259.371094 303.878906 259.550781 303.546875 259.699219 303.195312 C 259.84375 302.847656 259.957031 302.488281 260.03125 302.117188 C 260.109375 301.746094 260.148438 301.371094 260.152344 300.992188 L 260.152344 289.148438 C 260.148438 288.769531 260.113281 288.390625 260.039062 288.019531 C 259.960938 287.648438 259.851562 287.285156 259.707031 286.933594 C 259.5625 286.582031 259.382812 286.25 259.171875 285.933594 C 258.960938 285.617188 258.722656 285.324219 258.453125 285.054688 C 258.183594 284.785156 257.894531 284.546875 257.578125 284.335938 C 257.261719 284.121094 256.929688 283.941406 256.578125 283.796875 C 256.226562 283.648438 255.867188 283.539062 255.492188 283.464844 C 255.121094 283.386719 254.746094 283.347656 254.363281 283.347656 L 230.453125 283.347656 L 233.914062 260.664062 L 262.382812 260.664062 C 262.761719 260.660156 263.136719 260.625 263.511719 260.550781 C 263.882812 260.472656 264.246094 260.363281 264.59375 260.21875 C 264.945312 260.074219 265.277344 259.894531 265.59375 259.683594 C 265.910156 259.472656 266.203125 259.230469 266.46875 258.964844 C 266.738281 258.695312 266.976562 258.402344 267.1875 258.085938 C 267.402344 257.773438 267.578125 257.4375 267.726562 257.089844 C 267.871094 256.738281 267.980469 256.375 268.054688 256.003906 C 268.128906 255.632812 268.167969 255.257812 268.167969 254.875 L 268.167969 243.046875 C 268.171875 242.667969 268.132812 242.289062 268.0625 241.917969 C 267.988281 241.542969 267.878906 241.179688 267.734375 240.828125 C 267.589844 240.472656 267.410156 240.140625 267.199219 239.824219 C 266.988281 239.503906 266.75 239.210938 266.480469 238.941406 C 266.210938 238.671875 265.921875 238.429688 265.605469 238.21875 C 265.289062 238.003906 264.953125 237.824219 264.601562 237.679688 C 264.25 237.53125 263.886719 237.421875 263.515625 237.34375 C 263.140625 237.269531 262.765625 237.230469 262.382812 237.230469 Z M 207.070312 283.347656 L 177.308594 283.347656 L 180.75 260.664062 L 210.511719 260.664062 Z M 207.070312 283.347656 " fill-opacity="1" fill-rule="nonzero"/></g><g clip-path="url(#2d73d66889)"><g mask="url(#2acbf2954e)"><g transform="matrix(1, 0, 0, 1, 151, 197)"><g clip-path="url(#3e70ee209a)"><g clip-path="url(#e4ae993fa3)"><path fill="#000000" d="M 111.367188 40.230469 L 101.804688 40.230469 C 102.1875 40.222656 102.570312 40.253906 102.949219 40.324219 C 103.328125 40.394531 103.699219 40.503906 104.054688 40.644531 C 104.414062 40.789062 104.753906 40.964844 105.078125 41.179688 C 105.398438 41.390625 105.699219 41.628906 105.972656 41.902344 C 106.246094 42.171875 106.492188 42.46875 106.707031 42.789062 C 106.925781 43.105469 107.105469 43.445312 107.253906 43.800781 C 107.402344 44.15625 107.515625 44.523438 107.589844 44.902344 C 107.664062 45.28125 107.703125 45.664062 107.699219 46.046875 L 107.699219 57.875 C 107.699219 58.257812 107.660156 58.632812 107.585938 59.007812 C 107.511719 59.378906 107.402344 59.742188 107.253906 60.09375 C 107.109375 60.441406 106.929688 60.777344 106.71875 61.09375 C 106.503906 61.410156 106.265625 61.699219 105.996094 61.96875 C 105.726562 62.238281 105.433594 62.476562 105.117188 62.6875 C 104.800781 62.898438 104.464844 63.078125 104.113281 63.222656 C 103.765625 63.367188 103.402344 63.476562 103.027344 63.550781 C 102.65625 63.625 102.277344 63.664062 101.898438 63.664062 L 111.460938 63.664062 C 111.84375 63.664062 112.21875 63.625 112.59375 63.550781 C 112.964844 63.476562 113.328125 63.367188 113.679688 63.222656 C 114.03125 63.078125 114.363281 62.898438 114.679688 62.6875 C 114.996094 62.476562 115.289062 62.238281 115.558594 61.96875 C 115.828125 61.699219 116.070312 61.410156 116.28125 61.09375 C 116.492188 60.777344 116.671875 60.441406 116.820312 60.09375 C 116.964844 59.742188 117.074219 59.378906 117.152344 59.007812 C 117.226562 58.632812 117.265625 58.257812 117.265625 57.875 L 117.265625 46.046875 C 117.265625 45.664062 117.230469 45.28125 117.152344 44.902344 C 117.078125 44.523438 116.96875 44.15625 116.820312 43.800781 C 116.671875 43.445312 116.488281 43.105469 116.273438 42.789062 C 116.058594 42.46875 115.8125 42.171875 115.539062 41.902344 C 115.261719 41.628906 114.964844 41.390625 114.640625 41.179688 C 114.320312 40.964844 113.980469 40.789062 113.621094 40.644531 C 113.261719 40.503906 112.894531 40.394531 112.515625 40.324219 C 112.136719 40.253906 111.753906 40.222656 111.367188 40.230469 Z M 103.398438 86.3125 L 93.832031 86.3125 C 94.21875 86.308594 94.601562 86.34375 94.980469 86.414062 C 95.359375 86.484375 95.730469 86.589844 96.085938 86.734375 C 96.445312 86.878906 96.785156 87.058594 97.109375 87.269531 C 97.429688 87.480469 97.730469 87.722656 98.003906 87.996094 C 98.277344 88.265625 98.523438 88.5625 98.738281 88.882812 C 98.953125 89.203125 99.136719 89.542969 99.285156 89.898438 C 99.433594 90.253906 99.542969 90.621094 99.621094 91 C 99.695312 91.378906 99.730469 91.761719 99.730469 92.148438 L 99.730469 103.992188 C 99.730469 104.371094 99.691406 104.75 99.617188 105.125 C 99.542969 105.496094 99.429688 105.859375 99.285156 106.210938 C 99.136719 106.5625 98.960938 106.894531 98.746094 107.210938 C 98.535156 107.527344 98.296875 107.820312 98.027344 108.089844 C 97.757812 108.359375 97.464844 108.601562 97.148438 108.8125 C 96.832031 109.023438 96.496094 109.203125 96.144531 109.347656 C 95.792969 109.496094 95.433594 109.605469 95.058594 109.679688 C 94.6875 109.753906 94.308594 109.792969 93.929688 109.792969 L 103.492188 109.792969 C 103.867188 109.785156 104.238281 109.738281 104.601562 109.65625 C 104.96875 109.574219 105.324219 109.457031 105.667969 109.308594 C 106.007812 109.15625 106.335938 108.976562 106.644531 108.761719 C 106.953125 108.550781 107.238281 108.308594 107.5 108.039062 C 107.761719 107.773438 107.992188 107.480469 108.199219 107.167969 C 108.40625 106.855469 108.578125 106.523438 108.71875 106.179688 C 108.863281 105.832031 108.96875 105.472656 109.042969 105.105469 C 109.113281 104.738281 109.152344 104.367188 109.152344 103.992188 L 109.152344 92.148438 C 109.148438 91.769531 109.113281 91.390625 109.039062 91.019531 C 108.960938 90.644531 108.851562 90.28125 108.707031 89.929688 C 108.558594 89.578125 108.378906 89.246094 108.167969 88.929688 C 107.957031 88.613281 107.714844 88.320312 107.445312 88.050781 C 107.179688 87.78125 106.886719 87.539062 106.570312 87.328125 C 106.253906 87.117188 105.917969 86.9375 105.566406 86.792969 C 105.214844 86.644531 104.851562 86.535156 104.480469 86.460938 C 104.105469 86.386719 103.730469 86.347656 103.347656 86.347656 Z M 86.738281 0.378906 L 77.253906 0.378906 C 77.617188 0.359375 77.980469 0.382812 78.339844 0.445312 C 78.699219 0.507812 79.046875 0.613281 79.382812 0.753906 C 79.71875 0.898438 80.035156 1.078125 80.328125 1.292969 C 80.621094 1.507812 80.890625 1.753906 81.128906 2.027344 C 81.367188 2.304688 81.570312 2.605469 81.742188 2.929688 C 81.910156 3.25 82.042969 3.589844 82.132812 3.941406 C 82.226562 4.292969 82.277344 4.652344 82.289062 5.019531 C 82.300781 5.382812 82.269531 5.742188 82.195312 6.101562 L 76.984375 40.230469 L 86.546875 40.230469 L 91.746094 6.070312 C 91.816406 5.710938 91.84375 5.347656 91.832031 4.980469 C 91.816406 4.617188 91.761719 4.257812 91.667969 3.902344 C 91.570312 3.550781 91.4375 3.210938 91.265625 2.890625 C 91.089844 2.566406 90.882812 2.269531 90.640625 1.992188 C 90.398438 1.71875 90.128906 1.472656 89.832031 1.261719 C 89.535156 1.046875 89.214844 0.871094 88.878906 0.730469 C 88.539062 0.59375 88.191406 0.492188 87.828125 0.433594 C 87.46875 0.375 87.105469 0.355469 86.738281 0.378906 Z M 73.429688 63.664062 L 69.984375 86.347656 L 79.550781 86.347656 L 82.914062 63.664062 Z M 66.429688 109.761719 L 61.15625 144.496094 C 61.011719 145.285156 60.738281 146.023438 60.34375 146.714844 C 59.945312 147.410156 59.441406 148.015625 58.835938 148.539062 C 58.230469 149.058594 57.554688 149.464844 56.808594 149.75 C 56.0625 150.039062 55.289062 150.195312 54.492188 150.21875 L 63.976562 150.21875 C 64.773438 150.195312 65.546875 150.039062 66.292969 149.75 C 67.039062 149.464844 67.714844 149.058594 68.320312 148.539062 C 68.925781 148.015625 69.429688 147.410156 69.828125 146.714844 C 70.222656 146.023438 70.496094 145.285156 70.640625 144.496094 L 75.914062 109.761719 Z M 33.5625 0.378906 L 23.996094 0.378906 C 24.359375 0.359375 24.722656 0.382812 25.082031 0.449219 C 25.4375 0.511719 25.785156 0.617188 26.121094 0.761719 C 26.453125 0.902344 26.769531 1.082031 27.0625 1.296875 C 27.355469 1.515625 27.621094 1.757812 27.859375 2.035156 C 28.097656 2.3125 28.300781 2.609375 28.46875 2.933594 C 28.640625 3.257812 28.769531 3.59375 28.863281 3.945312 C 28.953125 4.296875 29.003906 4.65625 29.015625 5.019531 C 29.027344 5.382812 28.996094 5.746094 28.921875 6.101562 L 23.820312 40.230469 L 33.304688 40.230469 L 38.488281 6.070312 C 38.554688 5.714844 38.585938 5.355469 38.574219 4.992188 C 38.558594 4.628906 38.507812 4.273438 38.414062 3.921875 C 38.320312 3.574219 38.1875 3.238281 38.019531 2.917969 C 37.851562 2.597656 37.644531 2.300781 37.410156 2.027344 C 37.171875 1.75 36.90625 1.507812 36.613281 1.292969 C 36.320312 1.082031 36.007812 0.902344 35.675781 0.757812 C 35.339844 0.617188 34.996094 0.511719 34.640625 0.449219 C 34.28125 0.386719 33.921875 0.363281 33.5625 0.378906 Z M 20.265625 63.664062 L 16.839844 86.347656 L 26.324219 86.347656 L 29.75 63.664062 Z M 13.269531 109.761719 L 7.992188 144.496094 C 7.847656 145.285156 7.578125 146.023438 7.179688 146.714844 C 6.78125 147.410156 6.28125 148.015625 5.675781 148.539062 C 5.066406 149.058594 4.390625 149.464844 3.644531 149.75 C 2.902344 150.039062 2.128906 150.195312 1.328125 150.21875 L 10.8125 150.21875 C 11.613281 150.195312 12.386719 150.039062 13.132812 149.75 C 13.875 149.464844 14.550781 149.058594 15.160156 148.539062 C 15.765625 148.015625 16.265625 147.410156 16.664062 146.714844 C 17.0625 146.023438 17.332031 145.285156 17.476562 144.496094 L 22.753906 109.761719 Z M 13.269531 109.761719 " fill-opacity="1" fill-rule="nonzero"/></g></g></g></g></g><g clip-path="url(#274e108dd8)"><path fill="#b2a6d9" d="M 136.871094 149.558594 C 136.871094 150.800781 136.808594 152.039062 136.6875 153.277344 C 136.566406 154.511719 136.382812 155.742188 136.140625 156.960938 C 135.898438 158.175781 135.597656 159.382812 135.234375 160.570312 C 134.875 161.757812 134.457031 162.925781 133.980469 164.074219 C 133.507812 165.222656 132.976562 166.34375 132.390625 167.441406 C 131.804688 168.535156 131.167969 169.601562 130.476562 170.632812 C 129.785156 171.667969 129.046875 172.664062 128.257812 173.625 C 127.472656 174.582031 126.636719 175.503906 125.757812 176.382812 C 124.878906 177.261719 123.960938 178.09375 123 178.882812 C 122.039062 179.667969 121.042969 180.410156 120.011719 181.097656 C 118.976562 181.789062 117.914062 182.425781 116.816406 183.011719 C 115.722656 183.597656 114.601562 184.128906 113.453125 184.605469 C 112.304688 185.082031 111.136719 185.5 109.949219 185.859375 C 108.757812 186.21875 107.554688 186.519531 106.335938 186.761719 C 105.117188 187.003906 103.890625 187.1875 102.652344 187.308594 C 101.417969 187.429688 100.179688 187.492188 98.9375 187.492188 C 97.695312 187.492188 96.453125 187.429688 95.21875 187.308594 C 93.980469 187.1875 92.753906 187.003906 91.535156 186.761719 C 90.316406 186.519531 89.113281 186.21875 87.925781 185.859375 C 86.734375 185.5 85.566406 185.082031 84.417969 184.605469 C 83.273438 184.128906 82.148438 183.597656 81.054688 183.011719 C 79.957031 182.425781 78.894531 181.789062 77.859375 181.097656 C 76.828125 180.410156 75.832031 179.667969 74.871094 178.882812 C 73.910156 178.09375 72.992188 177.261719 72.113281 176.382812 C 71.234375 175.503906 70.402344 174.582031 69.613281 173.625 C 68.824219 172.664062 68.085938 171.667969 67.394531 170.632812 C 66.703125 169.601562 66.066406 168.535156 65.480469 167.441406 C 64.894531 166.34375 64.363281 165.222656 63.890625 164.074219 C 63.414062 162.925781 62.996094 161.757812 62.636719 160.570312 C 62.273438 159.382812 61.972656 158.175781 61.730469 156.960938 C 61.488281 155.742188 61.308594 154.511719 61.183594 153.277344 C 61.0625 152.039062 61.003906 150.800781 61.003906 149.558594 C 61.003906 148.316406 61.0625 147.078125 61.183594 145.839844 C 61.308594 144.605469 61.488281 143.375 61.730469 142.15625 C 61.972656 140.941406 62.273438 139.734375 62.636719 138.546875 C 62.996094 137.359375 63.414062 136.191406 63.890625 135.042969 C 64.363281 133.894531 64.894531 132.773438 65.480469 131.675781 C 66.066406 130.582031 66.703125 129.515625 67.394531 128.484375 C 68.085938 127.449219 68.824219 126.453125 69.613281 125.492188 C 70.402344 124.535156 71.234375 123.613281 72.113281 122.734375 C 72.992188 121.855469 73.910156 121.023438 74.871094 120.234375 C 75.832031 119.449219 76.828125 118.707031 77.859375 118.019531 C 78.894531 117.328125 79.957031 116.691406 81.054688 116.105469 C 82.148438 115.519531 83.273438 114.988281 84.417969 114.511719 C 85.566406 114.039062 86.734375 113.617188 87.925781 113.257812 C 89.113281 112.898438 90.316406 112.597656 91.535156 112.355469 C 92.753906 112.113281 93.980469 111.929688 95.21875 111.808594 C 96.453125 111.6875 97.695312 111.625 98.9375 111.625 C 100.179688 111.625 101.417969 111.6875 102.652344 111.808594 C 103.890625 111.929688 105.117188 112.113281 106.335938 112.355469 C 107.554688 112.597656 108.757812 112.898438 109.949219 113.257812 C 111.136719 113.617188 112.304688 114.039062 113.453125 114.511719 C 114.601562 114.988281 115.722656 115.519531 116.816406 116.105469 C 117.914062 116.691406 118.976562 117.328125 120.011719 118.019531 C 121.042969 118.707031 122.039062 119.449219 123 120.234375 C 123.960938 121.023438 124.878906 121.855469 125.757812 122.734375 C 126.636719 123.613281 127.472656 124.535156 128.257812 125.492188 C 129.046875 126.453125 129.785156 127.449219 130.476562 128.484375 C 131.167969 129.515625 131.804688 130.582031 132.390625 131.675781 C 132.976562 132.773438 133.507812 133.894531 133.980469 135.042969 C 134.457031 136.191406 134.875 137.359375 135.234375 138.546875 C 135.597656 139.734375 135.898438 140.941406 136.140625 142.15625 C 136.382812 143.375 136.566406 144.605469 136.6875 145.839844 C 136.808594 147.078125 136.871094 148.316406 136.871094 149.558594 Z M 136.871094 149.558594 " fill-opacity="1" fill-rule="nonzero"/></g><path fill="#ffffff" d="M 111.898438 153.984375 L 100.675781 153.984375 L 100.675781 154.855469 C 100.675781 155.722656 99.964844 156.433594 99.09375 156.433594 C 98.222656 156.433594 97.511719 155.722656 97.511719 154.855469 L 97.511719 153.984375 L 86.527344 153.984375 C 86.132812 153.984375 85.816406 153.828125 85.5 153.589844 L 79.96875 148.925781 L 79.96875 164.496094 C 79.96875 165.363281 80.679688 166.074219 81.550781 166.074219 L 116.320312 166.074219 C 117.191406 166.074219 117.902344 165.363281 117.902344 164.496094 L 117.902344 148.925781 L 113.003906 153.589844 C 112.6875 153.828125 112.292969 153.984375 111.898438 153.984375 Z M 111.898438 153.984375 " fill-opacity="1" fill-rule="nonzero"/><path fill="#ffffff" d="M 92.613281 133.121094 C 93.640625 132.015625 95.0625 131.382812 96.722656 131.382812 L 101.542969 131.382812 C 103.125 131.382812 104.625 132.09375 105.652344 133.121094 L 109.445312 133.121094 C 108.023438 130.195312 105.019531 128.222656 101.542969 128.222656 L 96.722656 128.222656 C 93.246094 128.222656 90.242188 130.195312 88.820312 133.121094 Z M 92.613281 133.121094 " fill-opacity="1" fill-rule="nonzero"/><path fill="#ffffff" d="M 116.320312 136.441406 L 81.550781 136.441406 C 80.679688 136.441406 79.96875 137.152344 79.96875 138.019531 L 79.96875 144.894531 C 80.046875 144.976562 80.207031 145.054688 80.285156 145.132812 L 87.082031 150.824219 L 97.433594 150.824219 L 97.433594 149.402344 C 97.433594 148.53125 98.144531 147.820312 99.015625 147.820312 C 99.882812 147.820312 100.59375 148.53125 100.59375 149.402344 L 100.59375 150.824219 L 111.183594 150.824219 L 117.113281 145.210938 C 117.347656 145.054688 117.585938 144.894531 117.824219 144.816406 L 117.824219 138.019531 C 117.902344 137.152344 117.191406 136.441406 116.320312 136.441406 Z M 116.320312 136.441406 " fill-opacity="1" fill-rule="nonzero"/><path fill="#b2a6d9" d="M 52.191406 222.59375 L 52.191406 249.789062 C 57.660156 246.429688 63.628906 245.269531 70.296875 246.25 L 70.296875 218.132812 C 64.726562 217.230469 58.78125 218.691406 52.191406 222.59375 Z M 67.476562 241.597656 C 63.9375 241.507812 60.074219 242.644531 55.925781 244.90625 C 55.628906 245.0625 55.320312 245.140625 54.996094 245.140625 C 54.3125 245.140625 53.640625 244.777344 53.292969 244.132812 C 52.773438 243.1875 53.125 242.011719 54.066406 241.496094 C 58.820312 238.910156 63.371094 237.632812 67.554688 237.722656 C 68.628906 237.75 69.480469 238.625 69.457031 239.699219 C 69.429688 240.773438 68.511719 241.625 67.476562 241.597656 Z M 67.515625 233.109375 C 67.515625 233.109375 67.492188 233.109375 67.476562 233.109375 C 63.9375 233.058594 60.074219 234.15625 55.925781 236.417969 C 55.628906 236.574219 55.320312 236.648438 54.996094 236.648438 C 54.3125 236.648438 53.640625 236.289062 53.292969 235.640625 C 52.773438 234.699219 53.125 233.523438 54.066406 233.019531 C 58.820312 230.433594 63.371094 229.15625 67.554688 229.246094 C 68.628906 229.273438 69.480469 230.152344 69.457031 231.222656 C 69.429688 232.28125 68.578125 233.121094 67.515625 233.121094 Z M 69.457031 222.722656 C 69.429688 223.78125 68.578125 224.621094 67.515625 224.621094 C 67.503906 224.621094 67.492188 224.621094 67.476562 224.621094 C 63.9375 224.554688 60.074219 225.667969 55.925781 227.929688 C 55.628906 228.082031 55.320312 228.160156 54.996094 228.160156 C 54.3125 228.160156 53.640625 227.800781 53.292969 227.152344 C 52.773438 226.210938 53.125 225.035156 54.066406 224.53125 C 58.820312 221.945312 63.371094 220.667969 67.554688 220.757812 C 68.628906 220.78125 69.480469 221.660156 69.457031 222.734375 Z M 69.457031 222.722656 " fill-opacity="1" fill-rule="nonzero"/><path fill="#b2a6d9" d="M 48.316406 222.59375 C 41.832031 218.742188 35.757812 217.253906 30.242188 218.132812 L 30.242188 246.25 C 31.765625 246.03125 33.265625 245.914062 34.710938 245.914062 C 39.609375 245.914062 44.117188 247.191406 48.316406 249.789062 Z M 32.980469 220.746094 C 37.152344 220.652344 41.714844 221.933594 46.46875 224.515625 C 47.414062 225.035156 47.761719 226.210938 47.246094 227.140625 C 46.894531 227.785156 46.222656 228.148438 45.539062 228.148438 C 45.230469 228.148438 44.90625 228.070312 44.609375 227.914062 C 40.460938 225.652344 36.585938 224.542969 33.058594 224.609375 C 33.058594 224.609375 33.03125 224.609375 33.019531 224.609375 C 31.972656 224.609375 31.105469 223.769531 31.082031 222.707031 C 31.054688 221.636719 31.90625 220.757812 32.980469 220.730469 Z M 47.246094 244.132812 C 46.894531 244.777344 46.222656 245.140625 45.539062 245.140625 C 45.230469 245.140625 44.90625 245.0625 44.609375 244.90625 C 40.460938 242.644531 36.597656 241.519531 33.058594 241.597656 L 33.019531 241.597656 C 31.972656 241.597656 31.105469 240.757812 31.082031 239.699219 C 31.054688 238.625 31.90625 237.75 32.980469 237.722656 C 37.152344 237.632812 41.714844 238.910156 46.46875 241.496094 C 47.414062 242.011719 47.761719 243.1875 47.246094 244.132812 Z M 47.246094 235.640625 C 46.894531 236.289062 46.222656 236.648438 45.539062 236.648438 C 45.230469 236.648438 44.90625 236.574219 44.609375 236.417969 C 40.460938 234.15625 36.53125 233.042969 33.058594 233.109375 C 33.058594 233.109375 33.03125 233.109375 33.019531 233.109375 C 31.972656 233.109375 31.105469 232.269531 31.082031 231.210938 C 31.054688 230.136719 31.90625 229.257812 32.980469 229.234375 C 37.164062 229.15625 41.714844 230.421875 46.46875 233.007812 C 47.414062 233.523438 47.761719 234.699219 47.246094 235.628906 Z M 47.246094 235.640625 " fill-opacity="1" fill-rule="nonzero"/><g clip-path="url(#16986aa0e2)"><path fill="#b2a6d9" d="M 50.269531 197.265625 C 29.570312 197.265625 12.796875 214.050781 12.796875 234.738281 C 12.796875 255.425781 29.570312 272.207031 50.269531 272.207031 C 70.96875 272.207031 87.738281 255.4375 87.738281 234.738281 C 87.738281 214.039062 70.96875 197.265625 50.269531 197.265625 Z M 74.171875 248.574219 C 74.171875 249.15625 73.898438 249.714844 73.449219 250.085938 C 72.996094 250.449219 72.386719 250.589844 71.820312 250.476562 C 63.964844 248.769531 57.492188 250.21875 51.46875 255.050781 C 51.429688 255.074219 51.378906 255.089844 51.339844 255.113281 C 51.261719 255.164062 51.183594 255.230469 51.09375 255.28125 C 51.054688 255.308594 51.003906 255.308594 50.953125 255.332031 C 50.914062 255.347656 50.863281 255.371094 50.824219 255.386719 C 50.640625 255.4375 50.449219 255.476562 50.253906 255.476562 C 50.0625 255.476562 49.878906 255.4375 49.6875 255.386719 C 49.632812 255.371094 49.597656 255.359375 49.558594 255.332031 C 49.503906 255.320312 49.464844 255.308594 49.414062 255.28125 C 49.324219 255.230469 49.246094 255.164062 49.15625 255.113281 C 49.117188 255.089844 49.078125 255.074219 49.039062 255.050781 C 43.03125 250.21875 36.570312 248.769531 28.714844 250.476562 C 28.148438 250.589844 27.539062 250.460938 27.085938 250.085938 C 26.636719 249.714844 26.363281 249.171875 26.363281 248.574219 L 26.363281 216.542969 C 26.363281 215.652344 26.972656 214.878906 27.851562 214.660156 C 34.761719 212.980469 42.296875 214.527344 50.269531 219.234375 C 58.238281 214.527344 65.785156 212.980469 72.699219 214.660156 C 73.5625 214.863281 74.183594 215.652344 74.183594 216.542969 L 74.183594 248.574219 Z M 74.171875 248.574219 " fill-opacity="1" fill-rule="nonzero"/></g><g clip-path="url(#5e23b73142)"><path fill="#b2a6d9" d="M 306.828125 154.757812 L 306.828125 164.308594 L 306.820312 164.308594 C 306.820312 164.371094 306.828125 164.429688 306.828125 164.496094 C 306.828125 167.933594 303.535156 170.722656 299.472656 170.722656 C 295.402344 170.722656 292.109375 167.933594 292.109375 164.496094 C 292.109375 161.054688 295.402344 158.265625 299.472656 158.265625 C 300.933594 158.265625 302.285156 158.628906 303.433594 159.25 L 303.433594 137.160156 L 279.085938 140.457031 L 279.085938 169.230469 L 279.082031 169.230469 C 278.992188 172.609375 275.738281 175.324219 271.726562 175.324219 C 267.660156 175.324219 264.367188 172.535156 264.367188 169.09375 C 264.367188 165.65625 267.660156 162.867188 271.726562 162.867188 C 273.1875 162.867188 274.546875 163.234375 275.691406 163.851562 L 275.691406 129.203125 L 306.828125 124.675781 Z M 287.355469 112.5 C 266.644531 112.5 249.855469 129.289062 249.855469 150 C 249.855469 170.710938 266.644531 187.5 287.355469 187.5 C 308.070312 187.5 324.855469 170.710938 324.855469 150 C 324.855469 129.289062 308.070312 112.5 287.355469 112.5 " fill-opacity="1" fill-rule="nonzero"/></g><g clip-path="url(#3e995ce854)"><path fill="#b2a6d9" d="M 324.71875 197.195312 C 304.011719 197.195312 287.226562 213.984375 287.226562 234.6875 C 287.226562 255.390625 304.011719 272.175781 324.71875 272.175781 C 345.421875 272.175781 362.207031 255.390625 362.207031 234.6875 C 362.207031 213.980469 345.421875 197.195312 324.71875 197.195312 Z M 342.957031 222.054688 L 334.851562 229.730469 L 339.988281 250.4375 L 336.921875 253.503906 L 327.109375 237.5 L 326.882812 237.273438 L 316.789062 246.832031 C 316.734375 246.890625 316.667969 246.933594 316.609375 246.988281 L 316.285156 254.355469 L 305.046875 243.117188 L 312.414062 242.796875 C 312.46875 242.734375 312.511719 242.671875 312.570312 242.613281 L 322.128906 232.519531 L 322.046875 232.4375 L 305.902344 222.484375 L 308.96875 219.414062 L 329.578125 224.652344 L 337.347656 216.445312 C 338.898438 214.894531 341.410156 214.898438 342.957031 216.445312 C 344.507812 217.996094 344.507812 220.507812 342.957031 222.054688 Z M 342.957031 222.054688 " fill-opacity="1" fill-rule="nonzero"/></g><g clip-path="url(#778f2c4b92)"><path fill="#b2a6d9" d="M 231.859375 125.523438 C 231.859375 126.785156 231.800781 128.039062 231.675781 129.292969 C 231.550781 130.546875 231.367188 131.789062 231.121094 133.023438 C 230.875 134.257812 230.570312 135.476562 230.207031 136.683594 C 229.839844 137.886719 229.417969 139.070312 228.933594 140.234375 C 228.453125 141.394531 227.914062 142.53125 227.324219 143.644531 C 226.730469 144.753906 226.082031 145.832031 225.382812 146.878906 C 224.683594 147.925781 223.933594 148.933594 223.136719 149.90625 C 222.339844 150.878906 221.492188 151.8125 220.601562 152.703125 C 219.714844 153.59375 218.78125 154.4375 217.808594 155.234375 C 216.835938 156.035156 215.824219 156.78125 214.78125 157.480469 C 213.734375 158.179688 212.65625 158.828125 211.542969 159.421875 C 210.433594 160.015625 209.296875 160.550781 208.132812 161.035156 C 206.972656 161.515625 205.789062 161.9375 204.582031 162.304688 C 203.378906 162.667969 202.160156 162.976562 200.925781 163.222656 C 199.691406 163.464844 198.445312 163.652344 197.195312 163.773438 C 195.941406 163.898438 194.683594 163.960938 193.425781 163.960938 C 192.167969 163.960938 190.910156 163.898438 189.660156 163.773438 C 188.40625 163.652344 187.164062 163.464844 185.929688 163.222656 C 184.695312 162.976562 183.472656 162.667969 182.269531 162.304688 C 181.066406 161.9375 179.882812 161.515625 178.71875 161.035156 C 177.554688 160.550781 176.417969 160.015625 175.308594 159.421875 C 174.199219 158.828125 173.121094 158.179688 172.074219 157.480469 C 171.027344 156.78125 170.015625 156.035156 169.042969 155.234375 C 168.070312 154.4375 167.140625 153.59375 166.25 152.703125 C 165.359375 151.8125 164.515625 150.878906 163.714844 149.90625 C 162.917969 148.933594 162.167969 147.925781 161.46875 146.878906 C 160.769531 145.832031 160.125 144.753906 159.53125 143.644531 C 158.9375 142.53125 158.398438 141.394531 157.917969 140.234375 C 157.4375 139.070312 157.011719 137.886719 156.648438 136.683594 C 156.28125 135.476562 155.976562 134.257812 155.730469 133.023438 C 155.484375 131.789062 155.300781 130.546875 155.175781 129.292969 C 155.054688 128.039062 154.992188 126.785156 154.992188 125.523438 C 154.992188 124.265625 155.054688 123.011719 155.175781 121.757812 C 155.300781 120.503906 155.484375 119.261719 155.730469 118.027344 C 155.976562 116.792969 156.28125 115.574219 156.648438 114.367188 C 157.011719 113.164062 157.4375 111.980469 157.917969 110.816406 C 158.398438 109.652344 158.9375 108.515625 159.53125 107.40625 C 160.125 106.296875 160.769531 105.21875 161.46875 104.171875 C 162.167969 103.125 162.917969 102.117188 163.714844 101.144531 C 164.515625 100.167969 165.359375 99.238281 166.25 98.347656 C 167.140625 97.457031 168.070312 96.613281 169.042969 95.816406 C 170.015625 95.015625 171.027344 94.265625 172.074219 93.566406 C 173.121094 92.867188 174.199219 92.222656 175.308594 91.628906 C 176.417969 91.035156 177.554688 90.5 178.71875 90.015625 C 179.882812 89.535156 181.066406 89.109375 182.269531 88.746094 C 183.472656 88.378906 184.695312 88.074219 185.929688 87.828125 C 187.164062 87.582031 188.40625 87.398438 189.660156 87.277344 C 190.910156 87.152344 192.167969 87.089844 193.425781 87.089844 C 194.683594 87.089844 195.941406 87.152344 197.195312 87.277344 C 198.445312 87.398438 199.691406 87.582031 200.925781 87.828125 C 202.160156 88.074219 203.378906 88.378906 204.582031 88.746094 C 205.789062 89.109375 206.972656 89.535156 208.132812 90.015625 C 209.296875 90.5 210.433594 91.035156 211.542969 91.628906 C 212.65625 92.222656 213.734375 92.867188 214.78125 93.566406 C 215.824219 94.265625 216.835938 95.015625 217.808594 95.816406 C 218.78125 96.613281 219.714844 97.457031 220.601562 98.347656 C 221.492188 99.238281 222.339844 100.167969 223.136719 101.144531 C 223.933594 102.117188 224.683594 103.125 225.382812 104.171875 C 226.082031 105.21875 226.730469 106.296875 227.324219 107.40625 C 227.914062 108.515625 228.453125 109.652344 228.933594 110.816406 C 229.417969 111.980469 229.839844 113.164062 230.207031 114.367188 C 230.570312 115.574219 230.875 116.792969 231.121094 118.027344 C 231.367188 119.261719 231.550781 120.503906 231.675781 121.757812 C 231.800781 123.011719 231.859375 124.265625 231.859375 125.523438 Z M 231.859375 125.523438 " fill-opacity="1" fill-rule="nonzero"/></g><path stroke-linecap="round" transform="matrix(0.433033, 0, 0, 0.433033, 154.992153, 87.090815)" fill="none" stroke-linejoin="round" d="M 61.71058 103.888975 L 39.862483 87.525454 L 61.71058 71.161933 " stroke="#ffffff" stroke-width="13.631" stroke-opacity="1" stroke-miterlimit="4"/><path stroke-linecap="round" transform="matrix(0.433033, 0, 0, 0.433033, 154.992153, 87.090815)" fill="none" stroke-linejoin="round" d="M 122.095039 103.888975 L 143.943135 87.525454 L 122.095039 71.161933 " stroke="#ffffff" stroke-width="13.631" stroke-opacity="1" stroke-miterlimit="4"/><path stroke-linecap="round" transform="matrix(0.433033, 0, 0, 0.433033, 154.992153, 87.090815)" fill="none" stroke-linejoin="round" d="M 80.545768 117.862014 L 104.847491 59.65154 " stroke="#ffffff" stroke-width="13.631" stroke-opacity="1" stroke-miterlimit="4"/><g clip-path="url(#ad75912147)"><path fill="#1d1d1b" d="M 36.171875 157.433594 C 36.171875 157.433594 36.175781 157.449219 36.175781 157.453125 C 36.210938 157.820312 36.511719 158.105469 36.882812 158.117188 C 36.890625 158.117188 36.898438 158.117188 36.90625 158.117188 C 37.269531 158.117188 37.578125 157.851562 37.628906 157.492188 C 38.152344 153.921875 38.953125 150.90625 40.078125 148.273438 C 42.421875 142.796875 46.785156 138.675781 52.695312 136.355469 C 53.984375 135.851562 55.367188 135.398438 56.921875 134.972656 C 57.269531 134.878906 57.496094 134.542969 57.453125 134.183594 C 57.414062 133.824219 57.117188 133.550781 56.753906 133.535156 C 55.421875 133.484375 54.222656 133.382812 53.082031 133.234375 C 47.277344 132.472656 43.097656 129.898438 40.660156 125.582031 C 38.324219 121.441406 37.40625 116.527344 36.816406 112.265625 C 36.765625 111.902344 36.453125 111.632812 36.089844 111.632812 C 36.085938 111.632812 36.085938 111.632812 36.085938 111.632812 C 35.71875 111.636719 35.40625 111.910156 35.363281 112.273438 C 34.421875 119.617188 32.519531 124.714844 29.199219 128.808594 C 26.332031 132.339844 22.921875 134.105469 18.464844 134.355469 C 18.105469 134.375 17.8125 134.660156 17.777344 135.019531 C 17.746094 135.378906 17.980469 135.710938 18.332031 135.796875 C 22.855469 136.910156 26.144531 138.5625 28.6875 141 C 32.53125 144.683594 34.976562 150.058594 36.171875 157.433594 Z M 30.335938 129.730469 C 33.617188 125.691406 35.222656 120.949219 36.089844 116.84375 C 36.734375 120.035156 37.710938 123.339844 39.386719 126.304688 C 42.0625 131.039062 46.605469 133.859375 52.890625 134.6875 C 52.914062 134.6875 52.933594 134.691406 52.953125 134.695312 C 52.6875 134.792969 52.421875 134.890625 52.160156 134.992188 C 45.875 137.457031 41.230469 141.851562 38.730469 147.699219 C 37.976562 149.457031 37.363281 151.378906 36.878906 153.5 C 35.464844 147.65625 33.101562 143.199219 29.703125 139.941406 C 27.617188 137.945312 25.085938 136.441406 21.878906 135.316406 C 25.199219 134.476562 27.984375 132.632812 30.335938 129.730469 Z M 30.335938 129.730469 " fill-opacity="1" fill-rule="nonzero"/></g><g clip-path="url(#fcbf54d9d0)"><path fill="#1d1d1b" d="M 248.117188 114.042969 C 248.117188 114.042969 248.121094 114.050781 248.121094 114.054688 C 248.136719 114.222656 248.277344 114.355469 248.453125 114.363281 C 248.457031 114.363281 248.460938 114.363281 248.464844 114.363281 C 248.636719 114.363281 248.78125 114.238281 248.804688 114.070312 C 249.050781 112.398438 249.429688 110.988281 249.960938 109.757812 C 251.066406 107.199219 253.125 105.269531 255.914062 104.1875 C 256.519531 103.949219 257.171875 103.738281 257.90625 103.539062 C 258.070312 103.496094 258.175781 103.339844 258.15625 103.171875 C 258.136719 103.003906 257.996094 102.875 257.828125 102.867188 C 257.199219 102.84375 256.632812 102.796875 256.09375 102.726562 C 253.355469 102.371094 251.386719 101.164062 250.234375 99.148438 C 249.132812 97.210938 248.699219 94.914062 248.421875 92.917969 C 248.398438 92.75 248.25 92.625 248.078125 92.625 C 247.902344 92.625 247.757812 92.753906 247.734375 92.921875 C 247.292969 96.359375 246.394531 98.742188 244.828125 100.65625 C 243.476562 102.308594 241.867188 103.132812 239.765625 103.25 C 239.59375 103.261719 239.457031 103.390625 239.441406 103.5625 C 239.425781 103.730469 239.539062 103.882812 239.703125 103.925781 C 241.835938 104.445312 243.390625 105.21875 244.585938 106.355469 C 246.398438 108.082031 247.554688 110.59375 248.117188 114.042969 Z M 245.367188 101.089844 C 246.914062 99.199219 247.667969 96.980469 248.078125 95.058594 C 248.382812 96.554688 248.84375 98.097656 249.632812 99.484375 C 250.894531 101.699219 253.039062 103.019531 256.003906 103.40625 C 256.015625 103.40625 256.023438 103.40625 256.035156 103.410156 C 255.90625 103.453125 255.78125 103.5 255.660156 103.550781 C 252.695312 104.703125 250.503906 106.757812 249.324219 109.488281 C 248.96875 110.3125 248.679688 111.210938 248.453125 112.203125 C 247.785156 109.472656 246.667969 107.386719 245.066406 105.863281 C 244.082031 104.929688 242.886719 104.226562 241.375 103.699219 C 242.941406 103.308594 244.253906 102.445312 245.367188 101.089844 Z M 245.367188 101.089844 " fill-opacity="1" fill-rule="nonzero"/></g><g clip-path="url(#8a87cd34cd)"><path fill="#1d1d1b" d="M 234.6875 55.84375 C 234.6875 55.84375 234.691406 55.855469 234.691406 55.859375 C 234.714844 56.101562 234.914062 56.289062 235.15625 56.296875 C 235.164062 56.296875 235.167969 56.296875 235.171875 56.296875 C 235.414062 56.296875 235.617188 56.121094 235.652344 55.882812 C 235.996094 53.523438 236.523438 51.527344 237.269531 49.789062 C 238.816406 46.164062 241.699219 43.441406 245.601562 41.90625 C 246.453125 41.574219 247.367188 41.273438 248.390625 40.992188 C 248.621094 40.929688 248.769531 40.707031 248.742188 40.46875 C 248.714844 40.234375 248.519531 40.050781 248.28125 40.042969 C 247.402344 40.007812 246.609375 39.941406 245.855469 39.84375 C 242.023438 39.339844 239.261719 37.636719 237.652344 34.78125 C 236.109375 32.042969 235.503906 28.792969 235.113281 25.972656 C 235.082031 25.734375 234.875 25.558594 234.632812 25.558594 C 234.390625 25.558594 234.183594 25.738281 234.152344 25.980469 C 233.535156 30.835938 232.277344 34.210938 230.082031 36.917969 C 228.191406 39.253906 225.941406 40.417969 222.996094 40.585938 C 222.757812 40.597656 222.5625 40.785156 222.542969 41.023438 C 222.519531 41.261719 222.675781 41.480469 222.910156 41.539062 C 225.894531 42.273438 228.066406 43.367188 229.746094 44.976562 C 232.285156 47.414062 233.902344 50.96875 234.6875 55.84375 Z M 230.835938 37.527344 C 233 34.855469 234.0625 31.71875 234.632812 29 C 235.058594 31.113281 235.707031 33.296875 236.8125 35.257812 C 238.578125 38.390625 241.578125 40.257812 245.730469 40.800781 C 245.742188 40.804688 245.757812 40.804688 245.773438 40.808594 C 245.59375 40.871094 245.421875 40.9375 245.25 41.007812 C 241.097656 42.636719 238.03125 45.542969 236.378906 49.40625 C 235.882812 50.574219 235.476562 51.839844 235.15625 53.246094 C 234.222656 49.378906 232.660156 46.433594 230.417969 44.277344 C 229.039062 42.957031 227.367188 41.964844 225.25 41.21875 C 227.441406 40.664062 229.28125 39.445312 230.835938 37.527344 Z M 230.835938 37.527344 " fill-opacity="1" fill-rule="nonzero"/></g><g clip-path="url(#2367e4123a)"><path fill="#1d1d1b" d="M 117.472656 86.582031 C 117.472656 86.582031 117.472656 86.59375 117.472656 86.597656 C 117.496094 86.839844 117.695312 87.027344 117.941406 87.035156 C 117.945312 87.035156 117.953125 87.035156 117.957031 87.035156 C 118.195312 87.035156 118.398438 86.859375 118.433594 86.621094 C 118.78125 84.261719 119.308594 82.265625 120.050781 80.523438 C 121.597656 76.902344 124.480469 74.175781 128.382812 72.644531 C 129.234375 72.3125 130.148438 72.011719 131.175781 71.730469 C 131.402344 71.667969 131.554688 71.445312 131.527344 71.207031 C 131.5 70.96875 131.304688 70.789062 131.066406 70.777344 C 130.183594 70.742188 129.390625 70.679688 128.640625 70.578125 C 124.804688 70.074219 122.046875 68.371094 120.4375 65.519531 C 118.890625 62.78125 118.285156 59.53125 117.894531 56.710938 C 117.863281 56.472656 117.660156 56.292969 117.417969 56.292969 C 117.417969 56.292969 117.414062 56.292969 117.414062 56.292969 C 117.171875 56.296875 116.96875 56.476562 116.9375 56.714844 C 116.316406 61.574219 115.0625 64.945312 112.867188 67.652344 C 110.972656 69.988281 108.722656 71.15625 105.78125 71.320312 C 105.539062 71.335938 105.347656 71.523438 105.324219 71.761719 C 105.304688 72 105.457031 72.21875 105.691406 72.273438 C 108.679688 73.011719 110.851562 74.105469 112.53125 75.714844 C 115.066406 78.152344 116.683594 81.703125 117.472656 86.582031 Z M 113.617188 68.261719 C 115.785156 65.589844 116.84375 62.453125 117.417969 59.738281 C 117.84375 61.851562 118.488281 64.035156 119.59375 65.996094 C 121.359375 69.128906 124.363281 70.992188 128.511719 71.539062 C 128.527344 71.542969 128.539062 71.542969 128.554688 71.542969 C 128.378906 71.609375 128.203125 71.675781 128.03125 71.742188 C 123.878906 73.375 120.8125 76.277344 119.164062 80.144531 C 118.664062 81.308594 118.257812 82.578125 117.9375 83.984375 C 117.003906 80.117188 115.445312 77.171875 113.199219 75.015625 C 111.824219 73.695312 110.152344 72.699219 108.035156 71.957031 C 110.226562 71.402344 112.066406 70.179688 113.617188 68.261719 Z M 113.617188 68.261719 " fill-opacity="1" fill-rule="nonzero"/></g><g clip-path="url(#0e066a266c)"><path fill="#1d1d1b" d="M 344.25 133.9375 C 344.25 133.9375 344.253906 133.953125 344.253906 133.957031 C 344.285156 134.273438 344.542969 134.515625 344.855469 134.523438 C 344.859375 134.523438 344.867188 134.523438 344.875 134.523438 C 345.183594 134.523438 345.445312 134.296875 345.488281 133.988281 C 345.933594 130.9375 346.613281 128.359375 347.570312 126.113281 C 349.558594 121.429688 353.261719 117.910156 358.28125 115.925781 C 359.375 115.496094 360.550781 115.109375 361.867188 114.746094 C 362.164062 114.664062 362.355469 114.375 362.320312 114.070312 C 362.285156 113.765625 362.035156 113.527344 361.726562 113.515625 C 360.597656 113.472656 359.574219 113.386719 358.609375 113.257812 C 353.679688 112.605469 350.132812 110.40625 348.0625 106.71875 C 346.078125 103.179688 345.296875 98.980469 344.796875 95.335938 C 344.753906 95.027344 344.492188 94.796875 344.179688 94.796875 C 343.867188 94.800781 343.601562 95.03125 343.5625 95.34375 C 342.765625 101.621094 341.152344 105.980469 338.332031 109.476562 C 335.898438 112.496094 333.003906 114 329.21875 114.21875 C 328.910156 114.234375 328.664062 114.476562 328.632812 114.785156 C 328.605469 115.09375 328.804688 115.375 329.105469 115.449219 C 332.945312 116.402344 335.738281 117.8125 337.898438 119.894531 C 341.160156 123.042969 343.238281 127.636719 344.25 133.9375 Z M 339.296875 110.265625 C 342.082031 106.8125 343.445312 102.757812 344.179688 99.25 C 344.730469 101.980469 345.558594 104.800781 346.980469 107.335938 C 349.25 111.382812 353.109375 113.792969 358.445312 114.5 C 358.464844 114.5 358.484375 114.503906 358.5 114.507812 C 358.273438 114.589844 358.050781 114.675781 357.828125 114.761719 C 352.492188 116.867188 348.546875 120.625 346.425781 125.621094 C 345.785156 127.125 345.265625 128.765625 344.851562 130.578125 C 343.652344 125.585938 341.644531 121.777344 338.757812 118.992188 C 336.988281 117.285156 334.839844 116 332.117188 115.039062 C 334.933594 114.320312 337.300781 112.742188 339.296875 110.265625 Z M 339.296875 110.265625 " fill-opacity="1" fill-rule="nonzero"/></g></svg>