<svg xmlns="http://www.w3.org/2000/svg" xmlns:xlink="http://www.w3.org/1999/xlink" width="500" zoomAndPan="magnify" viewBox="0 0 375 374.999991" height="500" preserveAspectRatio="xMidYMid meet" version="1.0"><defs><clipPath id="a5e331eceb"><path d="M 49 90 L 326 90 L 326 287.925781 L 49 287.925781 Z M 49 90 " clip-rule="nonzero"/></clipPath><clipPath id="721dba6c51"><path d="M 48.300781 89.175781 L 326.550781 89.175781 L 326.550781 287.925781 L 48.300781 287.925781 Z M 48.300781 89.175781 " clip-rule="nonzero"/></clipPath><clipPath id="9bfc6e2cf5"><path d="M 251 116 L 306 116 L 306 160 L 251 160 Z M 251 116 " clip-rule="nonzero"/></clipPath><clipPath id="fd282548e1"><path d="M 267.742188 46.121094 L 376.890625 97.765625 L 333.90625 188.609375 L 224.757812 136.964844 Z M 267.742188 46.121094 " clip-rule="nonzero"/></clipPath><clipPath id="1fbd343910"><path d="M 267.742188 46.121094 L 376.890625 97.765625 L 333.90625 188.609375 L 224.757812 136.964844 Z M 267.742188 46.121094 " clip-rule="nonzero"/></clipPath><clipPath id="8044b5f79b"><path d="M 268 129 L 288 129 L 288 146 L 268 146 Z M 268 129 " clip-rule="nonzero"/></clipPath><clipPath id="b3ebf24841"><path d="M 267.742188 46.121094 L 376.890625 97.765625 L 333.90625 188.609375 L 224.757812 136.964844 Z M 267.742188 46.121094 " clip-rule="nonzero"/></clipPath><clipPath id="9e49c4be30"><path d="M 267.742188 46.121094 L 376.890625 97.765625 L 333.90625 188.609375 L 224.757812 136.964844 Z M 267.742188 46.121094 " clip-rule="nonzero"/></clipPath><clipPath id="d0f4a368e5"><path d="M 303 75 L 368 75 L 368 140 L 303 140 Z M 303 75 " clip-rule="nonzero"/></clipPath><clipPath id="d459d6ce40"><path d="M 267.742188 46.121094 L 376.890625 97.765625 L 333.90625 188.609375 L 224.757812 136.964844 Z M 267.742188 46.121094 " clip-rule="nonzero"/></clipPath><clipPath id="73e1de001c"><path d="M 267.742188 46.121094 L 376.890625 97.765625 L 333.90625 188.609375 L 224.757812 136.964844 Z M 267.742188 46.121094 " clip-rule="nonzero"/></clipPath><clipPath id="b6e6429016"><path d="M 325 97 L 346 97 L 346 117 L 325 117 Z M 325 97 " clip-rule="nonzero"/></clipPath><clipPath id="b2bbf9ebea"><path d="M 267.742188 46.121094 L 376.890625 97.765625 L 333.90625 188.609375 L 224.757812 136.964844 Z M 267.742188 46.121094 " clip-rule="nonzero"/></clipPath><clipPath id="ab516d6b8a"><path d="M 267.742188 46.121094 L 376.890625 97.765625 L 333.90625 188.609375 L 224.757812 136.964844 Z M 267.742188 46.121094 " clip-rule="nonzero"/></clipPath><clipPath id="365295d578"><path d="M 248 70 L 293 70 L 293 107 L 248 107 Z M 248 70 " clip-rule="nonzero"/></clipPath><clipPath id="3327b13d61"><path d="M 267.742188 46.121094 L 376.890625 97.765625 L 333.90625 188.609375 L 224.757812 136.964844 Z M 267.742188 46.121094 " clip-rule="nonzero"/></clipPath><clipPath id="d645669b4a"><path d="M 267.742188 46.121094 L 376.890625 97.765625 L 333.90625 188.609375 L 224.757812 136.964844 Z M 267.742188 46.121094 " clip-rule="nonzero"/></clipPath><clipPath id="3cea6572d2"><path d="M 263 82 L 278 82 L 278 95 L 263 95 Z M 263 82 " clip-rule="nonzero"/></clipPath><clipPath id="ef34234147"><path d="M 267.742188 46.121094 L 376.890625 97.765625 L 333.90625 188.609375 L 224.757812 136.964844 Z M 267.742188 46.121094 " clip-rule="nonzero"/></clipPath><clipPath id="74fdfce2ef"><path d="M 267.742188 46.121094 L 376.890625 97.765625 L 333.90625 188.609375 L 224.757812 136.964844 Z M 267.742188 46.121094 " clip-rule="nonzero"/></clipPath><clipPath id="8522ac680b"><path d="M 31 196 L 89 196 L 89 253 L 31 253 Z M 31 196 " clip-rule="nonzero"/></clipPath><clipPath id="e2c5e484fe"><path d="M 23.476562 208.597656 L 75.664062 187.601562 L 96.65625 239.789062 L 44.472656 260.78125 Z M 23.476562 208.597656 " clip-rule="nonzero"/></clipPath><clipPath id="510fb0159a"><path d="M 23.476562 208.597656 L 75.664062 187.601562 L 96.65625 239.789062 L 44.472656 260.78125 Z M 23.476562 208.597656 " clip-rule="nonzero"/></clipPath><clipPath id="332718f70b"><path d="M 45 226 L 59 226 L 59 245 L 45 245 Z M 45 226 " clip-rule="nonzero"/></clipPath><clipPath id="ffe7b4a225"><path d="M 23.476562 208.597656 L 75.664062 187.601562 L 96.65625 239.789062 L 44.472656 260.78125 Z M 23.476562 208.597656 " clip-rule="nonzero"/></clipPath><clipPath id="16db9c5d0e"><path d="M 23.476562 208.597656 L 75.664062 187.601562 L 96.65625 239.789062 L 44.472656 260.78125 Z M 23.476562 208.597656 " clip-rule="nonzero"/></clipPath><clipPath id="6b144b3d14"><path d="M 53 209 L 78 209 L 78 240 L 53 240 Z M 53 209 " clip-rule="nonzero"/></clipPath><clipPath id="54fbff6186"><path d="M 23.476562 208.597656 L 75.664062 187.601562 L 96.65625 239.789062 L 44.472656 260.78125 Z M 23.476562 208.597656 " clip-rule="nonzero"/></clipPath><clipPath id="babdf887ce"><path d="M 23.476562 208.597656 L 75.664062 187.601562 L 96.65625 239.789062 L 44.472656 260.78125 Z M 23.476562 208.597656 " clip-rule="nonzero"/></clipPath><clipPath id="0a7b292c64"><path d="M 260.523438 224.273438 L 341.523438 224.273438 L 341.523438 305 L 260.523438 305 Z M 260.523438 224.273438 " clip-rule="nonzero"/></clipPath></defs><rect x="-37.5" width="450" fill="#ffffff" y="-37.499999" height="449.999989" fill-opacity="1"/><rect x="-37.5" width="450" fill="#f6f5f4" y="-37.499999" height="449.999989" fill-opacity="1"/><g clip-path="url(#a5e331eceb)"><path fill="#ffffff" d="M 308.503906 287.003906 L 66.496094 287.003906 C 56.9375 287.003906 49.191406 279.253906 49.191406 269.695312 L 49.191406 107.359375 C 49.191406 97.804688 56.9375 90.054688 66.496094 90.054688 L 308.503906 90.054688 C 318.0625 90.054688 325.808594 97.804688 325.808594 107.359375 L 325.808594 269.695312 C 325.808594 279.253906 318.0625 287.003906 308.503906 287.003906 " fill-opacity="1" fill-rule="nonzero"/></g><g clip-path="url(#721dba6c51)"><path fill="#3c315b" d="M 308.5 287.003906 L 308.5 286.125 L 66.496094 286.125 C 61.957031 286.125 57.855469 284.289062 54.878906 281.3125 C 51.902344 278.335938 50.066406 274.238281 50.066406 269.695312 L 50.066406 107.363281 C 50.066406 102.824219 51.902344 98.722656 54.878906 95.746094 C 57.855469 92.773438 61.957031 90.933594 66.496094 90.933594 L 308.5 90.933594 C 313.039062 90.933594 317.144531 92.773438 320.117188 95.746094 C 323.089844 98.722656 324.929688 102.824219 324.929688 107.363281 L 324.929688 269.695312 C 324.929688 274.238281 323.089844 278.335938 320.117188 281.3125 C 317.144531 284.289062 313.039062 286.125 308.5 286.125 L 308.5 287.878906 C 318.542969 287.878906 326.683594 279.738281 326.683594 269.695312 L 326.683594 107.363281 C 326.683594 97.320312 318.542969 89.179688 308.5 89.179688 L 66.496094 89.179688 C 56.453125 89.179688 48.3125 97.320312 48.3125 107.363281 L 48.3125 269.695312 C 48.3125 279.738281 56.453125 287.878906 66.496094 287.878906 L 308.5 287.878906 L 308.5 287.003906 " fill-opacity="1" fill-rule="nonzero"/></g><path fill="#b2a6d9" d="M 300.445312 262.203125 L 74.550781 262.203125 C 66.867188 262.203125 60.640625 255.976562 60.640625 248.292969 L 60.640625 128.144531 C 60.640625 120.460938 66.867188 114.234375 74.550781 114.234375 L 300.445312 114.234375 C 308.128906 114.234375 314.355469 120.460938 314.355469 128.144531 L 314.355469 248.292969 C 314.355469 255.976562 308.128906 262.203125 300.445312 262.203125 " fill-opacity="1" fill-rule="nonzero"/><path fill="#b2a6d9" d="M 78.722656 97.96875 C 81.417969 97.96875 83.605469 100.152344 83.605469 102.847656 C 83.605469 105.542969 81.417969 107.726562 78.722656 107.726562 C 76.03125 107.726562 73.84375 105.542969 73.84375 102.847656 C 73.84375 100.152344 76.03125 97.96875 78.722656 97.96875 " fill-opacity="1" fill-rule="nonzero"/><path fill="#b2a6d9" d="M 99.324219 97.96875 C 102.019531 97.96875 104.203125 100.152344 104.203125 102.847656 C 104.203125 105.542969 102.019531 107.726562 99.324219 107.726562 C 96.628906 107.726562 94.445312 105.542969 94.445312 102.847656 C 94.445312 100.152344 96.628906 97.96875 99.324219 97.96875 " fill-opacity="1" fill-rule="nonzero"/><path fill="#b2a6d9" d="M 119.925781 97.96875 C 122.621094 97.96875 124.804688 100.152344 124.804688 102.847656 C 124.804688 105.542969 122.621094 107.726562 119.925781 107.726562 C 117.230469 107.726562 115.046875 105.542969 115.046875 102.847656 C 115.046875 100.152344 117.230469 97.96875 119.925781 97.96875 " fill-opacity="1" fill-rule="nonzero"/><path fill="#b2a6d9" d="M 100.101562 275.144531 L 301.246094 275.144531 L 301.246094 272.515625 L 100.101562 272.515625 " fill-opacity="1" fill-rule="nonzero"/><path fill="#3c315b" d="M 91.972656 273.828125 L 79.46875 280.082031 L 79.46875 267.578125 Z M 91.972656 273.828125 " fill-opacity="1" fill-rule="nonzero"/><path fill="#3c315b" d="M 148.242188 273.828125 C 148.242188 276.332031 146.214844 278.363281 143.710938 278.363281 C 141.207031 278.363281 139.179688 276.332031 139.179688 273.828125 C 139.179688 271.328125 141.207031 269.296875 143.710938 269.296875 C 146.214844 269.296875 148.242188 271.328125 148.242188 273.828125 " fill-opacity="1" fill-rule="nonzero"/><path fill="#3c315b" d="M 236.265625 194.8125 C 236.265625 221.746094 214.433594 243.578125 187.5 243.578125 C 160.566406 243.578125 138.730469 221.746094 138.730469 194.8125 C 138.730469 167.878906 160.566406 146.042969 187.5 146.042969 C 214.433594 146.042969 236.265625 167.878906 236.265625 194.8125 " fill-opacity="1" fill-rule="nonzero"/><path fill="#b2a6d9" d="M 180.648438 215.917969 L 171.410156 215.917969 L 171.410156 177.945312 L 180.648438 177.945312 L 180.648438 215.917969 " fill-opacity="1" fill-rule="nonzero"/><path fill="#b2a6d9" d="M 203.585938 215.917969 L 194.347656 215.917969 L 194.347656 177.945312 L 203.585938 177.945312 L 203.585938 215.917969 " fill-opacity="1" fill-rule="nonzero"/><g clip-path="url(#9bfc6e2cf5)"><g clip-path="url(#fd282548e1)"><g clip-path="url(#1fbd343910)"><path fill="#f5c2c2" d="M 300.652344 123.625 L 260.953125 116.941406 C 258.101562 116.464844 255.421875 118.378906 254.933594 121.226562 L 251.292969 142.824219 C 250.816406 145.675781 252.730469 148.355469 255.574219 148.84375 L 264.757812 150.390625 C 266.117188 150.621094 267.347656 151.386719 268.144531 152.511719 L 272.605469 158.769531 C 273.367188 159.847656 274.871094 160.101562 275.953125 159.328125 L 282.210938 154.867188 C 283.339844 154.070312 284.75 153.742188 286.109375 153.972656 L 295.292969 155.519531 C 298.144531 155.996094 300.824219 154.082031 301.3125 151.234375 L 304.953125 129.636719 C 305.425781 126.800781 303.496094 124.113281 300.652344 123.625 Z M 300.652344 123.625 " fill-opacity="1" fill-rule="nonzero"/></g></g></g><g clip-path="url(#8044b5f79b)"><g clip-path="url(#b3ebf24841)"><g clip-path="url(#9e49c4be30)"><path fill="#ffffff" d="M 284.039062 131.601562 C 281.984375 131.027344 279.648438 132.019531 278.53125 133.800781 C 278.054688 131.738281 276.179688 130.039062 274.035156 129.910156 C 271.601562 129.753906 269.242188 131.667969 268.878906 134.082031 C 268.644531 135.640625 269.128906 137.339844 270.371094 139.242188 C 271.886719 141.597656 274.015625 143.597656 276.515625 145.042969 L 276.597656 145.097656 L 276.695312 145.082031 C 279.378906 144.652344 282.136719 143.417969 284.441406 141.617188 C 286.238281 140.214844 287.257812 138.769531 287.546875 137.222656 C 288 134.835938 286.394531 132.253906 284.039062 131.601562 Z M 284.039062 131.601562 " fill-opacity="1" fill-rule="nonzero"/></g></g></g><g clip-path="url(#d0f4a368e5)"><g clip-path="url(#d459d6ce40)"><g clip-path="url(#73e1de001c)"><path fill="#f5c2c2" d="M 365.578125 110.242188 L 331.625 77.542969 C 329.195312 75.199219 325.320312 75.277344 322.976562 77.703125 L 305.175781 96.183594 C 302.832031 98.609375 302.910156 102.488281 305.335938 104.828125 L 313.191406 112.386719 C 314.363281 113.507812 315.039062 115.050781 315.066406 116.671875 L 315.238281 125.660156 C 315.269531 127.203125 316.542969 128.433594 318.101562 128.40625 L 327.085938 128.234375 C 328.707031 128.207031 330.28125 128.828125 331.449219 129.945312 L 339.304688 137.503906 C 341.730469 139.847656 345.609375 139.769531 347.949219 137.34375 L 365.734375 118.871094 C 368.070312 116.457031 368.003906 112.585938 365.578125 110.242188 Z M 365.578125 110.242188 " fill-opacity="1" fill-rule="nonzero"/></g></g></g><g clip-path="url(#b6e6429016)"><g clip-path="url(#b2bbf9ebea)"><g clip-path="url(#ab516d6b8a)"><path fill="#ffffff" d="M 344.246094 106.972656 C 342.640625 105.066406 339.726562 104.46875 337.464844 105.464844 C 338.367188 103.167969 337.667969 100.28125 335.691406 98.734375 C 333.445312 96.980469 329.898438 97.261719 327.957031 99.359375 C 326.707031 100.710938 326.054688 102.667969 325.984375 105.339844 C 325.898438 108.621094 326.628906 111.964844 328.082031 115.007812 L 328.125 115.109375 L 328.226562 115.15625 C 331.101562 116.515625 334.582031 117.152344 338.007812 116.921875 C 340.679688 116.746094 342.605469 116.039062 343.914062 114.726562 C 345.925781 112.710938 346.078125 109.15625 344.246094 106.972656 Z M 344.246094 106.972656 " fill-opacity="1" fill-rule="nonzero"/></g></g></g><g clip-path="url(#365295d578)"><g clip-path="url(#3327b13d61)"><g clip-path="url(#d645669b4a)"><path fill="#f5c2c2" d="M 289.644531 82.757812 L 260.542969 70.6875 C 258.457031 69.824219 256.058594 70.816406 255.195312 72.902344 L 248.640625 88.730469 C 247.773438 90.8125 248.769531 93.210938 250.851562 94.074219 L 257.582031 96.863281 C 258.582031 97.273438 259.378906 98.078125 259.796875 99.074219 L 262.09375 104.628906 C 262.488281 105.578125 263.585938 106.039062 264.535156 105.648438 L 270.09375 103.347656 C 271.097656 102.9375 272.21875 102.929688 273.21875 103.34375 L 279.949219 106.128906 C 282.035156 106.992188 284.429688 106 285.296875 103.914062 L 291.851562 88.089844 C 292.710938 86.015625 291.730469 83.625 289.644531 82.757812 Z M 289.644531 82.757812 " fill-opacity="1" fill-rule="nonzero"/></g></g></g><g clip-path="url(#3cea6572d2)"><g clip-path="url(#ef34234147)"><g clip-path="url(#74fdfce2ef)"><path fill="#ffffff" d="M 275.566406 85.921875 C 274.097656 85.121094 272.144531 85.464844 270.980469 86.628906 C 270.980469 84.976562 269.839844 83.351562 268.238281 82.882812 C 266.414062 82.339844 264.28125 83.382812 263.578125 85.164062 C 263.128906 86.3125 263.195312 87.6875 263.8125 89.359375 C 264.5625 91.425781 265.824219 93.324219 267.472656 94.855469 L 267.519531 94.910156 L 267.597656 94.914062 C 269.714844 95.058594 272.027344 94.605469 274.109375 93.632812 C 275.71875 92.878906 276.75 91.960938 277.238281 90.832031 C 278.023438 89.074219 277.253906 86.828125 275.566406 85.921875 Z M 275.566406 85.921875 " fill-opacity="1" fill-rule="nonzero"/></g></g></g><g clip-path="url(#8522ac680b)"><g clip-path="url(#e2c5e484fe)"><g clip-path="url(#510fb0159a)"><path fill="#f5c2c2" d="M 86.460938 213.71875 C 92.285156 228.199219 85.269531 244.660156 70.789062 250.484375 C 56.3125 256.308594 39.851562 249.292969 34.023438 234.816406 C 28.199219 220.335938 35.214844 203.875 49.695312 198.050781 C 64.175781 192.222656 80.636719 199.238281 86.460938 213.71875 " fill-opacity="1" fill-rule="nonzero"/></g></g></g><g clip-path="url(#332718f70b)"><g clip-path="url(#ffe7b4a225)"><g clip-path="url(#16db9c5d0e)"><path fill="#ffffff" d="M 51.28125 226.242188 L 46.46875 228.179688 C 45.5 228.570312 45.03125 229.671875 45.417969 230.640625 L 50.53125 243.34375 C 50.867188 244.023438 51.6875 244.328125 52.390625 244.042969 L 57.601562 241.949219 C 58.453125 241.605469 58.863281 240.640625 58.523438 239.789062 L 53.441406 227.164062 C 53.101562 226.3125 52.132812 225.898438 51.28125 226.242188 " fill-opacity="1" fill-rule="nonzero"/></g></g></g><g clip-path="url(#6b144b3d14)"><g clip-path="url(#54fbff6186)"><g clip-path="url(#babdf887ce)"><path fill="#ffffff" d="M 74.796875 220.078125 C 74.792969 220.054688 74.785156 220.03125 74.78125 220.007812 C 74.726562 219.710938 74.820312 219.414062 74.886719 219.121094 C 75.132812 217.992188 74.851562 216.664062 73.902344 216.003906 C 72.707031 215.179688 71.082031 215.71875 69.738281 216.28125 C 67.992188 217.011719 66.246094 217.742188 64.496094 218.472656 C 64.273438 218.566406 64.019531 218.660156 63.800781 218.554688 C 63.519531 218.417969 63.476562 218.039062 63.457031 217.722656 C 63.335938 215.847656 62.597656 214.058594 61.609375 212.460938 C 61.035156 211.535156 60.363281 210.652344 59.476562 210.019531 C 58.589844 209.386719 57.464844 209.03125 56.398438 209.246094 C 55.929688 209.339844 55.484375 209.558594 55.113281 209.863281 C 54.730469 210.1875 54.5 210.574219 54.300781 211.027344 C 54.238281 211.179688 54.136719 211.320312 54.09375 211.476562 C 54.039062 211.6875 54.089844 211.917969 54.132812 212.125 C 54.246094 212.675781 54.476562 213.191406 54.722656 213.691406 C 55.089844 214.453125 55.515625 215.203125 55.6875 216.039062 C 55.871094 216.957031 55.734375 217.90625 55.585938 218.828125 C 55.332031 220.414062 55.054688 221.996094 54.757812 223.574219 C 54.652344 224.125 54.535156 224.699219 54.167969 225.121094 C 54.070312 225.234375 53.953125 225.34375 53.929688 225.488281 C 53.910156 225.605469 53.953125 225.722656 53.996094 225.832031 C 54.871094 228 55.742188 230.167969 56.613281 232.335938 C 57.488281 234.503906 58.375 236.664062 59.230469 238.839844 C 59.304688 239.027344 59.359375 239.214844 59.59375 239.234375 C 59.769531 239.246094 59.945312 239.214844 60.121094 239.210938 C 60.636719 239.199219 61.152344 239.140625 61.65625 239.042969 C 62.683594 238.84375 63.679688 238.5 64.652344 238.121094 C 65.050781 237.964844 65.449219 237.800781 65.847656 237.636719 C 68.464844 236.546875 71.085938 235.460938 73.703125 234.375 C 75.179688 233.761719 76.796875 233.015625 77.410156 231.539062 C 77.730469 230.761719 77.714844 229.855469 77.367188 229.09375 C 77.140625 228.601562 76.78125 228.160156 76.695312 227.625 C 76.621094 227.175781 76.75 226.714844 76.765625 226.257812 C 76.789062 225.664062 76.613281 225.066406 76.277344 224.574219 C 76.109375 224.332031 75.902344 224.105469 75.832031 223.820312 C 75.761719 223.53125 75.847656 223.230469 75.882812 222.933594 C 75.96875 222.257812 75.789062 221.550781 75.390625 221 C 75.175781 220.703125 74.894531 220.429688 74.796875 220.078125 " fill-opacity="1" fill-rule="nonzero"/></g></g></g><g clip-path="url(#0a7b292c64)"><path fill="#2d2c38" d="M 341.195312 264.609375 C 341.195312 286.882812 323.132812 304.945312 300.859375 304.945312 C 278.582031 304.945312 260.523438 286.882812 260.523438 264.609375 C 260.523438 242.332031 278.582031 224.273438 300.859375 224.273438 C 323.132812 224.273438 341.195312 242.332031 341.195312 264.609375 Z M 341.195312 264.609375 " fill-opacity="1" fill-rule="nonzero"/></g><path fill="#ede8f5" d="M 322.207031 245.621094 L 294.839844 273.023438 L 283.542969 261.757812 L 277.839844 267.460938 L 294.847656 284.429688 L 327.914062 251.324219 Z M 322.207031 245.621094 " fill-opacity="1" fill-rule="nonzero"/></svg>